<?xml version="1.0" encoding="UTF-8"?>
<!DOCTYPE svg PUBLIC "-//W3C//DTD SVG 1.1//EN" "http://www.w3.org/Graphics/SVG/1.1/DTD/svg11.dtd">
<svg xmlns="http://www.w3.org/2000/svg" version="1.1" width="1136px" height="336px" style="shape-rendering:geometricPrecision; text-rendering:geometricPrecision; image-rendering:optimizeQuality; fill-rule:evenodd; clip-rule:evenodd" xmlns:xlink="http://www.w3.org/1999/xlink">
<g><path style="opacity:0.676" fill="#039fe2" d="M 168.5,-0.5 C 171.833,-0.5 175.167,-0.5 178.5,-0.5C 190.85,5.72642 193.683,15.0598 187,27.5C 184.723,31.0804 182.223,34.4137 179.5,37.5C 182.661,25.4802 178.327,17.8135 166.5,14.5C 163.813,14.3359 161.146,14.5026 158.5,15C 157.584,15.2784 156.918,15.7784 156.5,16.5C 155.391,16.5569 154.391,16.8902 153.5,17.5C 153.5,16.8333 153.5,16.1667 153.5,15.5C 156.711,8.35058 161.711,3.01725 168.5,-0.5 Z"/></g>
<g><path style="opacity:0.702" fill="#eee1ee" d="M 166.5,14.5 C 171.49,17.7504 172.657,22.0838 170,27.5C 135.944,78.7156 102.111,130.049 68.5,181.5C 60.3049,184.565 51.9716,187.232 43.5,189.5C 80.9074,131.691 118.574,74.0243 156.5,16.5C 156.918,15.7784 157.584,15.2784 158.5,15C 161.146,14.5026 163.813,14.3359 166.5,14.5 Z"/></g>
<g><path style="opacity:0.685" fill="#fdeb09" d="M 153.5,15.5 C 153.5,16.1667 153.5,16.8333 153.5,17.5C 115.435,73.2816 78.1017,129.615 41.5,186.5C 38.6905,190.768 35.8572,195.102 33,199.5C 30.6772,209.405 33.8438,216.739 42.5,221.5C 31.5766,226.297 23.4099,223.297 18,212.5C 17.1902,207.743 17.5236,203.076 19,198.5C 57.6667,139.833 96.3333,81.1667 135,22.5C 139.708,16.3992 145.874,14.0658 153.5,15.5 Z"/></g>
<g><path style="opacity:0.702" fill="#b96aa8" d="M 166.5,14.5 C 178.327,17.8135 182.661,25.4802 179.5,37.5C 160.093,67.9753 140.426,98.3087 120.5,128.5C 114.054,136.621 108.387,145.288 103.5,154.5C 102.728,155.694 101.728,156.694 100.5,157.5C 96.4732,162.875 92.8065,168.541 89.5,174.5C 82.6726,177.292 75.6726,179.625 68.5,181.5C 102.111,130.049 135.944,78.7156 170,27.5C 172.657,22.0838 171.49,17.7504 166.5,14.5 Z"/></g>
<g><path style="opacity:0.702" fill="#bc73a9" d="M 156.5,16.5 C 118.574,74.0243 80.9074,131.691 43.5,189.5C 42.8333,189.833 42.1667,190.167 41.5,190.5C 41.5,189.167 41.5,187.833 41.5,186.5C 78.1017,129.615 115.435,73.2816 153.5,17.5C 154.391,16.8902 155.391,16.5569 156.5,16.5 Z"/></g>
<g><path style="opacity:1" fill="#000000" d="M 265.5,70.5 C 550.834,70.3333 836.167,70.5 1121.5,71C 1123.01,73.9156 1122.68,76.5823 1120.5,79C 835.833,79.6667 551.167,79.6667 266.5,79C 263.112,76.4353 262.779,73.6019 265.5,70.5 Z"/></g>
<g><path style="opacity:1" fill="#000000" d="M 580.5,95.5 C 585.167,95.5 589.833,95.5 594.5,95.5C 594.333,114.17 594.5,132.836 595,151.5C 610.682,132.87 629.515,128.703 651.5,139C 660.906,148.875 665.406,160.709 665,174.5C 665.5,195.164 665.667,215.831 665.5,236.5C 660.5,236.5 655.5,236.5 650.5,236.5C 650.95,212.456 650.45,188.456 649,164.5C 645.009,149.585 635.509,144.085 620.5,148C 609.417,152.749 601.25,160.583 596,171.5C 594.533,193.1 594.033,214.767 594.5,236.5C 589.833,236.5 585.167,236.5 580.5,236.5C 580.5,189.5 580.5,142.5 580.5,95.5 Z"/></g>
<g><path style="opacity:1" fill="#000000" d="M 922.5,95.5 C 927.167,95.5 931.833,95.5 936.5,95.5C 936.5,102.833 936.5,110.167 936.5,117.5C 931.833,117.5 927.167,117.5 922.5,117.5C 922.5,110.167 922.5,102.833 922.5,95.5 Z"/></g>
<g><path style="opacity:1" fill="#000000" d="M 265.5,99.5 C 302.833,99.5 340.167,99.5 377.5,99.5C 377.5,103.833 377.5,108.167 377.5,112.5C 361.167,112.5 344.833,112.5 328.5,112.5C 328.5,153.833 328.5,195.167 328.5,236.5C 323.5,236.5 318.5,236.5 313.5,236.5C 313.5,195.167 313.5,153.833 313.5,112.5C 297.5,112.5 281.5,112.5 265.5,112.5C 265.5,108.167 265.5,103.833 265.5,99.5 Z"/></g>
<g><path style="opacity:1" fill="#000000" d="M 792.5,99.5 C 812.169,99.3334 831.836,99.5 851.5,100C 880.212,105.045 897.379,121.879 903,150.5C 907.931,175.192 902.931,197.526 888,217.5C 878.079,227.212 866.245,233.378 852.5,236C 832.503,236.5 812.503,236.667 792.5,236.5C 792.5,190.833 792.5,145.167 792.5,99.5 Z M 806.5,112.5 C 818.838,112.333 831.171,112.5 843.5,113C 869.271,115.77 884.437,129.936 889,155.5C 891.962,174.03 888.296,191.03 878,206.5C 871.019,214.144 862.519,219.311 852.5,222C 837.206,223.379 821.873,223.879 806.5,223.5C 806.5,186.5 806.5,149.5 806.5,112.5 Z"/></g>
<g><path style="opacity:1" fill="#000000" d="M 1074.5,101.5 C 1079.17,101.5 1083.83,101.5 1088.5,101.5C 1088.5,112.5 1088.5,123.5 1088.5,134.5C 1096.17,134.5 1103.83,134.5 1111.5,134.5C 1111.5,138.833 1111.5,143.167 1111.5,147.5C 1103.83,147.5 1096.17,147.5 1088.5,147.5C 1088.03,171.899 1088.53,196.232 1090,220.5C 1094.96,224.632 1100.46,225.466 1106.5,223C 1109.41,221.627 1112.25,220.127 1115,218.5C 1116.6,222.461 1118.1,226.461 1119.5,230.5C 1117.54,232.485 1115.21,233.985 1112.5,235C 1101.93,239.855 1091.59,239.522 1081.5,234C 1078.19,231.222 1076.03,227.722 1075,223.5C 1074.5,198.169 1074.33,172.836 1074.5,147.5C 1069.83,147.5 1065.17,147.5 1060.5,147.5C 1060.5,143.167 1060.5,138.833 1060.5,134.5C 1065.17,134.5 1069.83,134.5 1074.5,134.5C 1074.5,123.5 1074.5,112.5 1074.5,101.5 Z"/></g>
<g><path style="opacity:0.686" fill="#0a9fe2" d="M 240.5,232.5 C 251.682,210.064 254.182,186.731 248,162.5C 242.798,150.124 233.631,142.791 220.5,140.5C 207.772,138.344 195.439,139.678 183.5,144.5C 172.783,147.628 162.117,150.961 151.5,154.5C 152.081,147.939 151.248,141.605 149,135.5C 146.149,131.494 142.315,129.16 137.5,128.5C 134.391,128.264 131.391,128.597 128.5,129.5C 128.167,129.5 127.833,129.5 127.5,129.5C 129.654,116.409 137.321,111.243 150.5,114C 155.757,116.256 159.257,120.09 161,125.5C 161.172,130.202 161.672,134.868 162.5,139.5C 178.526,133.577 194.859,128.744 211.5,125C 235.819,121.063 251.985,130.563 260,153.5C 264.396,178.795 260.062,202.462 247,224.5C 245.054,227.42 242.887,230.087 240.5,232.5 Z"/></g>
<g><path style="opacity:1" fill="#000000" d="M 745.5,125.5 C 749.167,125.5 752.833,125.5 756.5,125.5C 756.5,154.5 756.5,183.5 756.5,212.5C 762.167,212.5 767.833,212.5 773.5,212.5C 773.5,216.833 773.5,221.167 773.5,225.5C 767.833,225.5 762.167,225.5 756.5,225.5C 756.5,234.5 756.5,243.5 756.5,252.5C 878.167,252.333 999.834,252.5 1121.5,253C 1123.27,256.394 1122.61,259.06 1119.5,261C 835.5,261.667 551.5,261.667 267.5,261C 263.514,259.057 262.847,256.39 265.5,253C 424.5,252.5 583.5,252.333 742.5,252.5C 742.5,243.5 742.5,234.5 742.5,225.5C 720.833,225.5 699.167,225.5 677.5,225.5C 677.334,221.486 677.501,217.486 678,213.5C 700.76,184.287 723.26,154.954 745.5,125.5 Z M 742.5,151.5 C 743.497,171.66 743.83,191.993 743.5,212.5C 727.83,212.667 712.163,212.5 696.5,212C 712.049,191.957 727.383,171.79 742.5,151.5 Z"/></g>
<g><path style="opacity:0.697" fill="#fce914" d="M 120.5,128.5 C 122.435,129.15 124.435,129.483 126.5,129.5C 119.061,135.69 116.395,143.69 118.5,153.5C 118.5,153.833 118.5,154.167 118.5,154.5C 113.393,155.424 108.393,156.758 103.5,158.5C 103.5,157.167 103.5,155.833 103.5,154.5C 108.387,145.288 114.054,136.621 120.5,128.5 Z"/></g>
<g><path style="opacity:0.702" fill="#bb68a7" d="M 137.5,128.5 C 142.315,129.16 146.149,131.494 149,135.5C 151.248,141.605 152.081,147.939 151.5,154.5C 149.051,155.791 146.384,156.791 143.5,157.5C 142.668,149.521 142.168,141.521 142,133.5C 140.975,131.313 139.475,129.646 137.5,128.5 Z"/></g>
<g><path style="opacity:0.702" fill="#eb6d83" d="M 126.5,129.5 C 126.833,129.5 127.167,129.5 127.5,129.5C 127.833,129.5 128.167,129.5 128.5,129.5C 127.878,130.627 127.045,131.627 126,132.5C 125.5,139.158 125.334,145.825 125.5,152.5C 123.097,152.448 120.764,152.781 118.5,153.5C 116.395,143.69 119.061,135.69 126.5,129.5 Z"/></g>
<g><path style="opacity:1" fill="#000000" d="M 402.5,133.5 C 439.629,131.462 459.963,148.962 463.5,186C 462.923,188.137 462.59,190.304 462.5,192.5C 434.5,192.5 406.5,192.5 378.5,192.5C 381.678,212.844 393.511,224.177 414,226.5C 427.064,225.734 436.731,219.734 443,208.5C 447.224,207.941 451.39,208.607 455.5,210.5C 454.751,217.507 451.418,223.34 445.5,228C 429.432,239.209 412.099,241.542 393.5,235C 371.809,223.466 361.643,205.3 363,180.5C 365.945,156.069 379.111,140.402 402.5,133.5 Z M 409.5,145.5 C 431.844,146.18 444.844,157.514 448.5,179.5C 424.824,179.833 401.157,179.5 377.5,178.5C 380.847,160.155 391.514,149.155 409.5,145.5 Z"/></g>
<g><path style="opacity:1" fill="#000000" d="M 511.5,133.5 C 535.314,129.743 552.981,138.243 564.5,159C 560.097,161.024 555.597,162.858 551,164.5C 537.6,144.944 520.767,141.444 500.5,154C 487.025,167.065 483.192,182.565 489,200.5C 501.1,225.475 519.266,231.308 543.5,218C 546.798,215.536 549.132,212.37 550.5,208.5C 554.931,207.848 559.264,208.515 563.5,210.5C 564.614,211.723 564.781,213.056 564,214.5C 557.5,227.519 547,235.352 532.5,238C 501.158,241.255 481.325,227.755 473,197.5C 468.264,165.267 481.098,143.934 511.5,133.5 Z"/></g>
<g><path style="opacity:1" fill="#000000" d="M 994.5,133.5 C 1031.63,131.462 1051.96,148.962 1055.5,186C 1054.92,188.137 1054.59,190.304 1054.5,192.5C 1026.5,192.5 998.5,192.5 970.5,192.5C 973.678,212.844 985.511,224.177 1006,226.5C 1019.06,225.734 1028.73,219.734 1035,208.5C 1039.22,207.941 1043.39,208.607 1047.5,210.5C 1046.75,217.507 1043.42,223.34 1037.5,228C 1021.43,239.209 1004.1,241.542 985.5,235C 963.809,223.466 953.643,205.3 955,180.5C 957.945,156.069 971.111,140.402 994.5,133.5 Z M 1001.5,145.5 C 1023.84,146.18 1036.84,157.514 1040.5,179.5C 1016.82,179.833 993.157,179.5 969.5,178.5C 972.847,160.155 983.514,149.155 1001.5,145.5 Z"/></g>
<g><path style="opacity:1" fill="#000000" d="M 922.5,134.5 C 927.167,134.5 931.833,134.5 936.5,134.5C 936.5,168.5 936.5,202.5 936.5,236.5C 931.833,236.5 927.167,236.5 922.5,236.5C 922.5,202.5 922.5,168.5 922.5,134.5 Z"/></g>
<g><path style="opacity:0.702" fill="#eee1ed" d="M 220.5,140.5 C 233.04,144.51 240.207,153.177 242,166.5C 245.352,212 226.186,243.5 184.5,261C 179.516,262.33 174.516,263.496 169.5,264.5C 166.763,264.599 164.096,264.265 161.5,263.5C 157.988,259.422 157.654,255.088 160.5,250.5C 160.5,250.167 160.5,249.833 160.5,249.5C 160.833,249.5 161.167,249.5 161.5,249.5C 163.421,248.637 165.421,247.971 167.5,247.5C 169.591,247.682 171.591,247.348 173.5,246.5C 174.492,242.217 174.826,237.884 174.5,233.5C 175.5,233.5 176.5,233.5 177.5,233.5C 177.5,215.833 177.5,198.167 177.5,180.5C 182.497,179.613 187.164,177.947 191.5,175.5C 191.167,196.511 191.5,217.511 192.5,238.5C 206.327,230.349 215.66,218.682 220.5,203.5C 226.373,189.395 226.873,175.062 222,160.5C 221.184,159.177 220.017,158.511 218.5,158.5C 215.305,156.97 211.805,156.304 208,156.5C 204.142,156.679 200.309,157.013 196.5,157.5C 194.762,150.273 190.095,146.44 182.5,146C 183.056,145.617 183.389,145.117 183.5,144.5C 195.439,139.678 207.772,138.344 220.5,140.5 Z"/></g>
<g><path style="opacity:0.702" fill="#bb69a8" d="M 220.5,140.5 C 233.631,142.791 242.798,150.124 248,162.5C 254.182,186.731 251.682,210.064 240.5,232.5C 240.672,233.492 240.338,234.158 239.5,234.5C 229.853,245.15 218.52,253.483 205.5,259.5C 194.624,264.221 183.291,266.387 171.5,266C 170.584,265.722 169.918,265.222 169.5,264.5C 174.516,263.496 179.516,262.33 184.5,261C 226.186,243.5 245.352,212 242,166.5C 240.207,153.177 233.04,144.51 220.5,140.5 Z"/></g>
<g><path style="opacity:0.702" fill="#bd67a6" d="M 125.5,152.5 C 125.823,156.226 125.489,159.893 124.5,163.5C 122.55,164.372 120.55,165.039 118.5,165.5C 118.5,161.833 118.5,158.167 118.5,154.5C 118.5,154.167 118.5,153.833 118.5,153.5C 120.764,152.781 123.097,152.448 125.5,152.5 Z"/></g>
<g><path style="opacity:0.698" fill="#1ba0e0" d="M 118.5,154.5 C 118.5,158.167 118.5,161.833 118.5,165.5C 108.88,168.655 99.2133,171.655 89.5,174.5C 92.8065,168.541 96.4732,162.875 100.5,157.5C 100.369,158.239 100.536,158.906 101,159.5C 101.671,158.748 102.504,158.414 103.5,158.5C 108.393,156.758 113.393,155.424 118.5,154.5 Z"/></g>
<g><path style="opacity:0.702" fill="#f2dfec" d="M 137.5,128.5 C 139.475,129.646 140.975,131.313 142,133.5C 142.168,141.521 142.668,149.521 143.5,157.5C 146.384,156.791 149.051,155.791 151.5,154.5C 162.117,150.961 172.783,147.628 183.5,144.5C 183.389,145.117 183.056,145.617 182.5,146C 190.095,146.44 194.762,150.273 196.5,157.5C 195.833,157.5 195.5,157.833 195.5,158.5C 194.178,158.33 193.011,158.663 192,159.5C 191.501,164.823 191.334,170.156 191.5,175.5C 187.164,177.947 182.497,179.613 177.5,180.5C 177.5,198.167 177.5,215.833 177.5,233.5C 176.5,233.5 175.5,233.5 174.5,233.5C 174.5,216.5 174.5,199.5 174.5,182.5C 174.829,176.794 174.495,171.128 173.5,165.5C 171.47,166.172 169.47,166.838 167.5,167.5C 161.205,168.932 155.205,170.932 149.5,173.5C 147.173,173.665 145.007,174.331 143,175.5C 142.501,181.157 142.334,186.824 142.5,192.5C 142.5,221.833 142.5,251.167 142.5,280.5C 143.429,285.765 142.096,290.265 138.5,294C 132.3,296.274 125.966,298.107 119.5,299.5C 116.646,300.205 113.979,301.205 111.5,302.5C 101.412,302.434 98.0791,297.767 101.5,288.5C 101.5,287.833 101.833,287.5 102.5,287.5C 107.696,285.435 113.029,283.768 118.5,282.5C 120.55,282.039 122.55,281.372 124.5,280.5C 125.491,276.555 125.824,272.555 125.5,268.5C 125.5,245.167 125.5,221.833 125.5,198.5C 125.5,192.833 125.5,187.167 125.5,181.5C 122.848,181.41 120.515,182.076 118.5,183.5C 102.811,187.73 87.4778,192.73 72.5,198.5C 65.4166,200.361 58.4166,202.528 51.5,205C 40.1793,205.832 36.846,200.999 41.5,190.5C 42.1667,190.167 42.8333,189.833 43.5,189.5C 51.9716,187.232 60.3049,184.565 68.5,181.5C 75.6726,179.625 82.6726,177.292 89.5,174.5C 99.2133,171.655 108.88,168.655 118.5,165.5C 120.55,165.039 122.55,164.372 124.5,163.5C 125.489,159.893 125.823,156.226 125.5,152.5C 125.334,145.825 125.5,139.158 126,132.5C 127.045,131.627 127.878,130.627 128.5,129.5C 131.391,128.597 134.391,128.264 137.5,128.5 Z"/></g>
<g><path style="opacity:0.702" fill="#bb67a7" d="M 218.5,158.5 C 215.881,158.232 213.381,158.565 211,159.5C 210.501,163.821 210.334,168.154 210.5,172.5C 207.421,172.26 204.421,172.593 201.5,173.5C 200.334,192.491 200.167,211.491 201,230.5C 205.524,226.155 209.024,221.155 211.5,215.5C 212.167,214.167 212.833,212.833 213.5,211.5C 216.305,209.208 218.638,206.541 220.5,203.5C 215.66,218.682 206.327,230.349 192.5,238.5C 191.5,217.511 191.167,196.511 191.5,175.5C 196.985,171.6 199.151,166.266 198,159.5C 197.329,158.748 196.496,158.414 195.5,158.5C 195.5,157.833 195.833,157.5 196.5,157.5C 200.309,157.013 204.142,156.679 208,156.5C 211.805,156.304 215.305,156.97 218.5,158.5 Z"/></g>
<g><path style="opacity:0.702" fill="#d8308b" d="M 195.5,158.5 C 196.496,158.414 197.329,158.748 198,159.5C 199.151,166.266 196.985,171.6 191.5,175.5C 191.334,170.156 191.501,164.823 192,159.5C 193.011,158.663 194.178,158.33 195.5,158.5 Z"/></g>
<g><path style="opacity:0.702" fill="#ec6f83" d="M 218.5,158.5 C 220.017,158.511 221.184,159.177 222,160.5C 226.873,175.062 226.373,189.395 220.5,203.5C 218.638,206.541 216.305,209.208 213.5,211.5C 217.822,200.226 219.322,188.559 218,176.5C 216.682,173.059 214.182,171.725 210.5,172.5C 210.334,168.154 210.501,163.821 211,159.5C 213.381,158.565 215.881,158.232 218.5,158.5 Z"/></g>
<g><path style="opacity:0.702" fill="#bd69a7" d="M 167.5,167.5 C 167.5,169.5 167.5,171.5 167.5,173.5C 165.5,173.833 163.5,174.167 161.5,174.5C 161.5,178.5 161.5,182.5 161.5,186.5C 161.167,186.5 160.833,186.5 160.5,186.5C 157.421,187.304 154.421,188.304 151.5,189.5C 152.113,183.729 151.446,178.396 149.5,173.5C 155.205,170.932 161.205,168.932 167.5,167.5 Z"/></g>
<g><path style="opacity:0.702" fill="#e22e83" d="M 174.5,182.5 C 172.079,182.878 169.746,183.545 167.5,184.5C 167.5,180.833 167.5,177.167 167.5,173.5C 167.5,171.5 167.5,169.5 167.5,167.5C 169.47,166.838 171.47,166.172 173.5,165.5C 174.495,171.128 174.829,176.794 174.5,182.5 Z"/></g>
<g><path style="opacity:0.702" fill="#1f9ee0" d="M 210.5,172.5 C 210.171,187.01 210.504,201.343 211.5,215.5C 209.024,221.155 205.524,226.155 201,230.5C 200.167,211.491 200.334,192.491 201.5,173.5C 204.421,172.593 207.421,172.26 210.5,172.5 Z"/></g>
<g><path style="opacity:0.702" fill="#fdea07" d="M 210.5,172.5 C 214.182,171.725 216.682,173.059 218,176.5C 219.322,188.559 217.822,200.226 213.5,211.5C 212.833,212.833 212.167,214.167 211.5,215.5C 210.504,201.343 210.171,187.01 210.5,172.5 Z"/></g>
<g><path style="opacity:0.702" fill="#d92b89" d="M 149.5,173.5 C 151.446,178.396 152.113,183.729 151.5,189.5C 148.421,190.304 145.421,191.304 142.5,192.5C 142.334,186.824 142.501,181.157 143,175.5C 145.007,174.331 147.173,173.665 149.5,173.5 Z"/></g>
<g><path style="opacity:0.702" fill="#eb6c83" d="M 167.5,173.5 C 167.5,177.167 167.5,180.833 167.5,184.5C 165.421,184.971 163.421,185.637 161.5,186.5C 161.5,182.5 161.5,178.5 161.5,174.5C 163.5,174.167 165.5,173.833 167.5,173.5 Z"/></g>
<g><path style="opacity:0.702" fill="#ec7182" d="M 174.5,182.5 C 174.5,199.5 174.5,216.5 174.5,233.5C 172.046,234.227 169.713,235.227 167.5,236.5C 167.5,219.167 167.5,201.833 167.5,184.5C 169.746,183.545 172.079,182.878 174.5,182.5 Z"/></g>
<g><path style="opacity:0.702" fill="#bd6aa8" d="M 118.5,183.5 C 118.5,185.5 118.5,187.5 118.5,189.5C 102.107,194.298 85.7737,199.298 69.5,204.5C 70.7017,202.608 72.035,200.774 73.5,199C 73.2716,198.601 72.9382,198.435 72.5,198.5C 87.4778,192.73 102.811,187.73 118.5,183.5 Z"/></g>
<g><path style="opacity:0.702" fill="#fdeb07" d="M 167.5,184.5 C 167.5,201.833 167.5,219.167 167.5,236.5C 167.5,236.833 167.5,237.167 167.5,237.5C 165.11,238.891 163.443,240.891 162.5,243.5C 161.503,224.674 161.17,205.674 161.5,186.5C 163.421,185.637 165.421,184.971 167.5,184.5 Z"/></g>
<g><path style="opacity:0.702" fill="#e22d83" d="M 125.5,198.5 C 123.035,198.767 120.701,199.434 118.5,200.5C 118.5,196.833 118.5,193.167 118.5,189.5C 118.5,187.5 118.5,185.5 118.5,183.5C 120.515,182.076 122.848,181.41 125.5,181.5C 125.5,187.167 125.5,192.833 125.5,198.5 Z"/></g>
<g><path style="opacity:0.702" fill="#059fe2" d="M 160.5,186.5 C 160.5,207.5 160.5,228.5 160.5,249.5C 160.5,249.833 160.5,250.167 160.5,250.5C 156.088,252.418 153.254,255.751 152,260.5C 151.5,236.836 151.333,213.169 151.5,189.5C 154.421,188.304 157.421,187.304 160.5,186.5 Z"/></g>
<g><path style="opacity:0.702" fill="#0fb2c4" d="M 160.5,186.5 C 160.833,186.5 161.167,186.5 161.5,186.5C 161.17,205.674 161.503,224.674 162.5,243.5C 161.85,245.435 161.517,247.435 161.5,249.5C 161.167,249.5 160.833,249.5 160.5,249.5C 160.5,228.5 160.5,207.5 160.5,186.5 Z"/></g>
<g><path style="opacity:0.702" fill="#eb6b83" d="M 118.5,189.5 C 118.5,193.167 118.5,196.833 118.5,200.5C 117.209,200.263 116.209,200.596 115.5,201.5C 111.297,202.27 107.297,203.604 103.5,205.5C 103.5,204.5 103.5,203.5 103.5,202.5C 90.288,205.721 77.288,209.721 64.5,214.5C 64.1667,214.167 63.8333,213.833 63.5,213.5C 65.5258,210.482 67.5258,207.482 69.5,204.5C 85.7737,199.298 102.107,194.298 118.5,189.5 Z"/></g>
<g><path style="opacity:0.702" fill="#bb67a6" d="M 151.5,189.5 C 151.333,213.169 151.5,236.836 152,260.5C 153.254,255.751 156.088,252.418 160.5,250.5C 157.654,255.088 157.988,259.422 161.5,263.5C 161.5,268.833 161.5,274.167 161.5,279.5C 156.29,277.123 153.123,273.123 152,267.5C 151.5,274.826 151.334,282.159 151.5,289.5C 149.506,285.506 146.506,282.506 142.5,280.5C 142.5,251.167 142.5,221.833 142.5,192.5C 145.421,191.304 148.421,190.304 151.5,189.5 Z"/></g>
<g><path style="opacity:0.702" fill="#e42c81" d="M 41.5,186.5 C 41.5,187.833 41.5,189.167 41.5,190.5C 36.846,200.999 40.1793,205.832 51.5,205C 58.4166,202.528 65.4166,200.361 72.5,198.5C 72.9382,198.435 73.2716,198.601 73.5,199C 72.035,200.774 70.7017,202.608 69.5,204.5C 67.5258,207.482 65.5258,210.482 63.5,213.5C 63.8333,213.833 64.1667,214.167 64.5,214.5C 77.288,209.721 90.288,205.721 103.5,202.5C 103.5,203.5 103.5,204.5 103.5,205.5C 85.367,211.766 67.0336,217.433 48.5,222.5C 46.4523,222.328 44.4523,221.995 42.5,221.5C 33.8438,216.739 30.6772,209.405 33,199.5C 35.8572,195.102 38.6905,190.768 41.5,186.5 Z"/></g>
<g><path style="opacity:0.702" fill="#eb6b83" d="M 125.5,198.5 C 125.5,221.833 125.5,245.167 125.5,268.5C 123.167,269.167 120.833,269.833 118.5,270.5C 118.5,247.167 118.5,223.833 118.5,200.5C 120.701,199.434 123.035,198.767 125.5,198.5 Z"/></g>
<g><path style="opacity:0.702" fill="#fdd03a" d="M 115.5,201.5 C 116.209,200.596 117.209,200.263 118.5,200.5C 118.5,223.833 118.5,247.167 118.5,270.5C 118.167,270.5 117.833,270.5 117.5,270.5C 118.156,247.142 117.49,224.142 115.5,201.5 Z"/></g>
<g><path style="opacity:0.689" fill="#fdeb02" d="M 115.5,201.5 C 117.49,224.142 118.156,247.142 117.5,270.5C 111.469,271.856 106.802,275.19 103.5,280.5C 103.5,255.5 103.5,230.5 103.5,205.5C 107.297,203.604 111.297,202.27 115.5,201.5 Z"/></g>
<g><path style="opacity:0.702" fill="#b96ba9" d="M 174.5,233.5 C 174.826,237.884 174.492,242.217 173.5,246.5C 171.591,247.348 169.591,247.682 167.5,247.5C 167.5,244.167 167.5,240.833 167.5,237.5C 167.5,237.167 167.5,236.833 167.5,236.5C 169.713,235.227 172.046,234.227 174.5,233.5 Z"/></g>
<g><path style="opacity:0.702" fill="#0da0e1" d="M 167.5,237.5 C 167.5,240.833 167.5,244.167 167.5,247.5C 165.421,247.971 163.421,248.637 161.5,249.5C 161.517,247.435 161.85,245.435 162.5,243.5C 163.443,240.891 165.11,238.891 167.5,237.5 Z"/></g>
<g><path style="opacity:0.468" fill="#e5097d" d="M 239.5,234.5 C 223.054,262.743 198.387,278.41 165.5,281.5C 180.269,276.782 193.603,269.449 205.5,259.5C 218.52,253.483 229.853,245.15 239.5,234.5 Z"/></g>
<g><path style="opacity:0.702" fill="#eb6d83" d="M 205.5,259.5 C 193.603,269.449 180.269,276.782 165.5,281.5C 164.167,281.5 162.833,281.5 161.5,281.5C 161.5,280.833 161.5,280.167 161.5,279.5C 161.5,274.167 161.5,268.833 161.5,263.5C 164.096,264.265 166.763,264.599 169.5,264.5C 169.918,265.222 170.584,265.722 171.5,266C 183.291,266.387 194.624,264.221 205.5,259.5 Z"/></g>
<g><path style="opacity:0.702" fill="#bd67a6" d="M 125.5,268.5 C 125.824,272.555 125.491,276.555 124.5,280.5C 122.55,281.372 120.55,282.039 118.5,282.5C 118.5,278.5 118.5,274.5 118.5,270.5C 120.833,269.833 123.167,269.167 125.5,268.5 Z"/></g>
<g><path style="opacity:0.681" fill="#109fe1" d="M 161.5,279.5 C 161.5,280.167 161.5,280.833 161.5,281.5C 161.077,288.377 157.744,293.044 151.5,295.5C 151.5,293.5 151.5,291.5 151.5,289.5C 151.334,282.159 151.5,274.826 152,267.5C 153.123,273.123 156.29,277.123 161.5,279.5 Z"/></g>
<g><path style="opacity:0.699" fill="#1ba1df" d="M 117.5,270.5 C 117.833,270.5 118.167,270.5 118.5,270.5C 118.5,274.5 118.5,278.5 118.5,282.5C 113.029,283.768 107.696,285.435 102.5,287.5C 102.5,286.167 102.5,284.833 102.5,283.5C 102.557,282.391 102.89,281.391 103.5,280.5C 106.802,275.19 111.469,271.856 117.5,270.5 Z"/></g>
<g><path style="opacity:1" fill="#000000" d="M 1037.5,271.5 C 1039.5,271.5 1041.5,271.5 1043.5,271.5C 1043.24,287.524 1043.58,303.524 1044.5,319.5C 1040.84,320.363 1038.67,319.03 1038,315.5C 1028.42,322.803 1019.76,321.803 1012,312.5C 1007.36,301.876 1009.53,293.043 1018.5,286C 1025.87,283.015 1032.04,284.515 1037,290.5C 1037.5,284.175 1037.67,277.842 1037.5,271.5 Z M 1023.5,289.5 C 1036.12,290.358 1040.62,297.024 1037,309.5C 1033.15,315.388 1027.99,316.888 1021.5,314C 1014.51,307.598 1013.68,300.432 1019,292.5C 1020.65,291.601 1022.15,290.601 1023.5,289.5 Z"/></g>
<g><path style="opacity:1" fill="#000000" d="M 1051.5,271.5 C 1053.5,271.5 1055.5,271.5 1057.5,271.5C 1057.5,273.833 1057.5,276.167 1057.5,278.5C 1055.5,278.5 1053.5,278.5 1051.5,278.5C 1051.5,276.167 1051.5,273.833 1051.5,271.5 Z"/></g>
<g><path style="opacity:1" fill="#000000" d="M 911.5,272.5 C 919.84,272.334 928.173,272.5 936.5,273C 946.933,280.541 948.267,289.541 940.5,300C 939.167,300.667 937.833,301.333 936.5,302C 930.175,302.5 923.842,302.666 917.5,302.5C 917.5,308.167 917.5,313.833 917.5,319.5C 915.5,319.5 913.5,319.5 911.5,319.5C 911.5,303.833 911.5,288.167 911.5,272.5 Z M 917.5,276.5 C 923.262,276.149 928.928,276.649 934.5,278C 941.924,283.888 942.257,290.221 935.5,297C 929.577,298.304 923.577,298.804 917.5,298.5C 917.5,291.167 917.5,283.833 917.5,276.5 Z"/></g>
<g><path style="opacity:1" fill="#000000" d="M 1103.5,272.5 C 1105.17,272.5 1106.83,272.5 1108.5,272.5C 1108.5,276.833 1108.5,281.167 1108.5,285.5C 1111.17,285.5 1113.83,285.5 1116.5,285.5C 1116.5,286.833 1116.5,288.167 1116.5,289.5C 1113.83,289.5 1111.17,289.5 1108.5,289.5C 1108.33,297.174 1108.5,304.841 1109,312.5C 1111.51,314.823 1114.34,315.156 1117.5,313.5C 1118.36,314.736 1119.02,316.069 1119.5,317.5C 1115.37,319.447 1111.04,319.947 1106.5,319C 1105.67,318.167 1104.83,317.333 1104,316.5C 1103.5,307.506 1103.33,298.506 1103.5,289.5C 1101.83,289.5 1100.17,289.5 1098.5,289.5C 1098.5,288.167 1098.5,286.833 1098.5,285.5C 1100.17,285.5 1101.83,285.5 1103.5,285.5C 1103.5,281.167 1103.5,276.833 1103.5,272.5 Z"/></g>
<g><path style="opacity:0.702" fill="#d92e8a" d="M 142.5,280.5 C 146.506,282.506 149.506,285.506 151.5,289.5C 151.5,291.5 151.5,293.5 151.5,295.5C 141.528,298.49 131.528,301.49 121.5,304.5C 121.167,304.5 120.833,304.5 120.5,304.5C 119.962,302.883 119.629,301.216 119.5,299.5C 125.966,298.107 132.3,296.274 138.5,294C 142.096,290.265 143.429,285.765 142.5,280.5 Z"/></g>
<g><path style="opacity:0.679" fill="#fdeb04" d="M 102.5,283.5 C 102.5,284.833 102.5,286.167 102.5,287.5C 101.833,287.5 101.5,287.833 101.5,288.5C 95.5084,291.131 92.5084,295.797 92.5,302.5C 93.2176,309.956 96.8843,315.29 103.5,318.5C 89.0196,323.7 80.3529,318.7 77.5,303.5C 78.1195,298.094 80.4528,293.594 84.5,290C 90.3488,287.329 96.3488,285.162 102.5,283.5 Z"/></g>
<g><path style="opacity:1" fill="#000000" d="M 967.5,284.5 C 968.613,285.946 968.78,287.613 968,289.5C 963.321,290.334 959.654,292.668 957,296.5C 956.5,304.159 956.334,311.826 956.5,319.5C 954.5,319.5 952.5,319.5 950.5,319.5C 950.5,308.167 950.5,296.833 950.5,285.5C 952.167,285.5 953.833,285.5 955.5,285.5C 955.338,287.527 955.505,289.527 956,291.5C 958.756,287.215 962.59,284.882 967.5,284.5 Z"/></g>
<g><path style="opacity:1" fill="#000000" d="M 984.5,284.5 C 998.48,283.812 1005.81,290.478 1006.5,304.5C 996.833,304.5 987.167,304.5 977.5,304.5C 977.876,309.756 980.543,313.256 985.5,315C 990.678,316.273 995.011,314.94 998.5,311C 1000.13,310.506 1001.8,310.34 1003.5,310.5C 1001.29,317.375 996.453,320.708 989,320.5C 978.312,319.311 972.479,313.311 971.5,302.5C 972.017,293.662 976.35,287.662 984.5,284.5 Z M 985.5,289.5 C 994.07,288.595 999.07,292.261 1000.5,300.5C 992.833,300.5 985.167,300.5 977.5,300.5C 977.866,295.137 980.533,291.471 985.5,289.5 Z"/></g>
<g><path style="opacity:1" fill="#000000" d="M 1076.5,284.5 C 1084.79,283.199 1091.12,286.033 1095.5,293C 1094.11,294.02 1092.61,294.853 1091,295.5C 1086.22,289.056 1080.39,287.889 1073.5,292C 1067.63,299.969 1068.3,307.302 1075.5,314C 1081.94,316.889 1087.11,315.389 1091,309.5C 1092.33,310.167 1093.67,310.833 1095,311.5C 1093.55,315.942 1090.38,318.776 1085.5,320C 1069.9,320.727 1062.73,313.227 1064,297.5C 1066.02,290.984 1070.18,286.651 1076.5,284.5 Z"/></g>
<g><path style="opacity:1" fill="#000000" d="M 1051.5,285.5 C 1053.5,285.5 1055.5,285.5 1057.5,285.5C 1057.5,296.833 1057.5,308.167 1057.5,319.5C 1055.5,319.5 1053.5,319.5 1051.5,319.5C 1051.5,308.167 1051.5,296.833 1051.5,285.5 Z"/></g>
<g><path style="opacity:0.702" fill="#ec6e83" d="M 101.5,288.5 C 98.0791,297.767 101.412,302.434 111.5,302.5C 114.123,304.265 117.123,304.932 120.5,304.5C 120.833,304.5 121.167,304.5 121.5,304.5C 123.206,307.204 125.539,309.204 128.5,310.5C 128.167,310.833 127.833,311.167 127.5,311.5C 119.887,313.343 112.554,315.676 105.5,318.5C 104.833,318.5 104.167,318.5 103.5,318.5C 96.8843,315.29 93.2176,309.956 92.5,302.5C 92.5084,295.797 95.5084,291.131 101.5,288.5 Z"/></g>
<g><path style="opacity:0.577" fill="#e40f7e" d="M 151.5,295.5 C 151.605,301.887 148.939,306.721 143.5,310C 133.56,313.202 123.56,316.202 113.5,319C 110.633,319.801 107.966,319.634 105.5,318.5C 112.554,315.676 119.887,313.343 127.5,311.5C 127.833,311.167 128.167,310.833 128.5,310.5C 125.539,309.204 123.206,307.204 121.5,304.5C 131.528,301.49 141.528,298.49 151.5,295.5 Z"/></g>
<g><path style="opacity:0.702" fill="#c06da8" d="M 119.5,299.5 C 119.629,301.216 119.962,302.883 120.5,304.5C 117.123,304.932 114.123,304.265 111.5,302.5C 113.979,301.205 116.646,300.205 119.5,299.5 Z"/></g>
</svg>
