<?xml version="1.0" encoding="UTF-8"?>
<!DOCTYPE svg PUBLIC "-//W3C//DTD SVG 1.1//EN" "http://www.w3.org/Graphics/SVG/1.1/DTD/svg11.dtd">
<svg xmlns="http://www.w3.org/2000/svg" version="1.1" width="1136px" height="336px" style="shape-rendering:geometricPrecision; text-rendering:geometricPrecision; image-rendering:optimizeQuality; fill-rule:evenodd; clip-rule:evenodd" xmlns:xlink="http://www.w3.org/1999/xlink">
<g><path style="opacity:0.676" fill="#039fe2" d="M 168.5,-0.5 C 171.833,-0.5 175.167,-0.5 178.5,-0.5C 190.85,5.72642 193.683,15.0598 187,27.5C 184.723,31.0804 182.223,34.4137 179.5,37.5C 182.661,25.4802 178.327,17.8135 166.5,14.5C 163.813,14.3359 161.146,14.5026 158.5,15C 157.584,15.2784 156.918,15.7784 156.5,16.5C 155.391,16.5569 154.391,16.8902 153.5,17.5C 153.5,16.8333 153.5,16.1667 153.5,15.5C 156.711,8.35058 161.711,3.01725 168.5,-0.5 Z"/></g>
<g><path style="opacity:0.702" fill="#eee1ee" d="M 166.5,14.5 C 171.49,17.7504 172.657,22.0838 170,27.5C 135.944,78.7156 102.111,130.049 68.5,181.5C 60.3049,184.565 51.9716,187.232 43.5,189.5C 80.9074,131.691 118.574,74.0243 156.5,16.5C 156.918,15.7784 157.584,15.2784 158.5,15C 161.146,14.5026 163.813,14.3359 166.5,14.5 Z"/></g>
<g><path style="opacity:0.685" fill="#fdeb09" d="M 153.5,15.5 C 153.5,16.1667 153.5,16.8333 153.5,17.5C 115.435,73.2816 78.1017,129.615 41.5,186.5C 38.6905,190.768 35.8572,195.102 33,199.5C 30.6772,209.405 33.8438,216.739 42.5,221.5C 31.5766,226.297 23.4099,223.297 18,212.5C 17.1902,207.743 17.5236,203.076 19,198.5C 57.6667,139.833 96.3333,81.1667 135,22.5C 139.708,16.3992 145.874,14.0658 153.5,15.5 Z"/></g>
<g><path style="opacity:0.702" fill="#b96aa8" d="M 166.5,14.5 C 178.327,17.8135 182.661,25.4802 179.5,37.5C 160.093,67.9753 140.426,98.3087 120.5,128.5C 114.054,136.621 108.387,145.288 103.5,154.5C 102.728,155.694 101.728,156.694 100.5,157.5C 96.4732,162.875 92.8065,168.541 89.5,174.5C 82.6726,177.292 75.6726,179.625 68.5,181.5C 102.111,130.049 135.944,78.7156 170,27.5C 172.657,22.0838 171.49,17.7504 166.5,14.5 Z"/></g>
<g><path style="opacity:0.702" fill="#bc73a9" d="M 156.5,16.5 C 118.574,74.0243 80.9074,131.691 43.5,189.5C 42.8333,189.833 42.1667,190.167 41.5,190.5C 41.5,189.167 41.5,187.833 41.5,186.5C 78.1017,129.615 115.435,73.2816 153.5,17.5C 154.391,16.8902 155.391,16.5569 156.5,16.5 Z"/></g>
<g><path style="opacity:1" fill="#1b1b1b" d="M 1118.5,70.5 C 1119.8,71.4884 1121.13,72.4884 1122.5,73.5C 1122.82,75.7224 1122.16,77.5557 1120.5,79C 835.833,79.6667 551.167,79.6667 266.5,79C 263.263,76.5813 262.93,73.9146 265.5,71C 549.833,70.5 834.166,70.3333 1118.5,70.5 Z"/></g>
<g><path style="opacity:0.588" fill="#fefefe" d="M 1118.5,70.5 C 1120.97,70.0882 1122.31,71.0882 1122.5,73.5C 1121.13,72.4884 1119.8,71.4884 1118.5,70.5 Z"/></g>
<g><path style="opacity:0.526" fill="#fefffe" d="M 594.5,96.5 C 590.167,96.5 585.833,96.5 581.5,96.5C 581.5,143.167 581.5,189.833 581.5,236.5C 580.501,189.67 580.168,142.67 580.5,95.5C 585.363,95.1805 590.03,95.5139 594.5,96.5 Z"/></g>
<g><path style="opacity:0.636" fill="#fefffe" d="M 936.5,96.5 C 932.167,96.5 927.833,96.5 923.5,96.5C 923.5,103.167 923.5,109.833 923.5,116.5C 927.833,116.5 932.167,116.5 936.5,116.5C 932.03,117.486 927.363,117.819 922.5,117.5C 922.5,110.167 922.5,102.833 922.5,95.5C 927.363,95.1805 932.03,95.5139 936.5,96.5 Z"/></g>
<g><path style="opacity:1" fill="#121212" d="M 594.5,96.5 C 594.333,114.836 594.5,133.17 595,151.5C 595.708,150.619 596.542,149.953 597.5,149.5C 599.5,148.167 601.167,146.5 602.5,144.5C 602.5,143.833 602.833,143.5 603.5,143.5C 605.027,143.573 606.027,142.906 606.5,141.5C 616.745,133.821 628.078,131.488 640.5,134.5C 642.214,135.738 644.214,136.405 646.5,136.5C 646.973,137.906 647.973,138.573 649.5,138.5C 650.262,140.262 651.596,141.262 653.5,141.5C 653.738,143.404 654.738,144.738 656.5,145.5C 660.631,150.702 663.131,156.702 664,163.5C 665.381,187.808 665.881,212.142 665.5,236.5C 660.5,236.5 655.5,236.5 650.5,236.5C 650.667,214.164 650.5,191.831 650,169.5C 649.268,164.234 647.768,159.234 645.5,154.5C 644.833,151.833 643.167,150.167 640.5,149.5C 639.713,147.896 638.38,147.229 636.5,147.5C 631.174,146.26 625.841,146.26 620.5,147.5C 618.447,147.402 616.78,148.069 615.5,149.5C 613.326,149.75 611.659,150.75 610.5,152.5C 610.5,153.167 610.167,153.5 609.5,153.5C 605.833,155.167 603.167,157.833 601.5,161.5C 601.5,162.167 601.167,162.5 600.5,162.5C 599.094,162.973 598.427,163.973 598.5,165.5C 597.346,168.479 596.18,171.479 595,174.5C 594.5,195.164 594.333,215.831 594.5,236.5C 590.167,236.5 585.833,236.5 581.5,236.5C 581.5,189.833 581.5,143.167 581.5,96.5C 585.833,96.5 590.167,96.5 594.5,96.5 Z"/></g>
<g><path style="opacity:1" fill="#000000" d="M 936.5,96.5 C 936.5,103.167 936.5,109.833 936.5,116.5C 932.167,116.5 927.833,116.5 923.5,116.5C 923.5,109.833 923.5,103.167 923.5,96.5C 927.833,96.5 932.167,96.5 936.5,96.5 Z"/></g>
<g><path style="opacity:1" fill="#171717" d="M 265.5,99.5 C 302.833,99.5 340.167,99.5 377.5,99.5C 377.5,103.833 377.5,108.167 377.5,112.5C 361.167,112.5 344.833,112.5 328.5,112.5C 328.5,153.833 328.5,195.167 328.5,236.5C 323.5,236.5 318.5,236.5 313.5,236.5C 313.5,195.167 313.5,153.833 313.5,112.5C 297.5,112.5 281.5,112.5 265.5,112.5C 265.5,108.167 265.5,103.833 265.5,99.5 Z"/></g>
<g><path style="opacity:1" fill="#171717" d="M 874.5,108.5 C 874.973,109.906 875.973,110.573 877.5,110.5C 877.973,111.906 878.973,112.573 880.5,112.5C 881.5,112.833 882.167,113.5 882.5,114.5C 884.167,116.833 886.167,118.833 888.5,120.5C 889.167,120.5 889.5,120.833 889.5,121.5C 889.427,123.027 890.094,124.027 891.5,124.5C 894.502,127.161 896.502,130.495 897.5,134.5C 897.402,136.553 898.069,138.22 899.5,139.5C 905.125,156.112 905.958,173.112 902,190.5C 900.545,196.726 898.045,202.392 894.5,207.5C 893.094,207.973 892.427,208.973 892.5,210.5C 890.738,211.262 889.738,212.596 889.5,214.5C 889.5,215.167 889.167,215.5 888.5,215.5C 886.167,217.167 884.167,219.167 882.5,221.5C 882.167,222.5 881.5,223.167 880.5,223.5C 878.973,223.427 877.973,224.094 877.5,225.5C 875.973,225.427 874.973,226.094 874.5,227.5C 867.828,231.784 860.495,234.617 852.5,236C 832.503,236.5 812.503,236.667 792.5,236.5C 792.5,190.833 792.5,145.167 792.5,99.5C 812.169,99.3334 831.836,99.5 851.5,100C 859.883,101.18 867.55,104.013 874.5,108.5 Z M 860.5,116.5 C 861.514,117.674 862.847,118.34 864.5,118.5C 865.965,119.737 867.632,120.737 869.5,121.5C 869.973,122.906 870.973,123.573 872.5,123.5C 873.833,125.5 875.5,127.167 877.5,128.5C 877.738,130.404 878.738,131.738 880.5,132.5C 880.427,134.027 881.094,135.027 882.5,135.5C 891.806,157.158 891.806,178.825 882.5,200.5C 881.094,200.973 880.427,201.973 880.5,203.5C 879.094,203.973 878.427,204.973 878.5,206.5C 875.833,208.5 873.5,210.833 871.5,213.5C 869.973,213.427 868.973,214.094 868.5,215.5C 866.973,215.427 865.973,216.094 865.5,217.5C 859.1,220.244 852.433,222.077 845.5,223C 832.504,223.5 819.504,223.667 806.5,223.5C 806.5,186.5 806.5,149.5 806.5,112.5C 818.838,112.333 831.171,112.5 843.5,113C 849.307,113.595 854.974,114.761 860.5,116.5 Z"/></g>
<g><path style="opacity:0.482" fill="#fefffe" d="M 1088.5,102.5 C 1084.17,102.5 1079.83,102.5 1075.5,102.5C 1075.5,113.5 1075.5,124.5 1075.5,135.5C 1070.83,135.5 1066.17,135.5 1061.5,135.5C 1061.5,139.167 1061.5,142.833 1061.5,146.5C 1066.17,146.5 1070.83,146.5 1075.5,146.5C 1075.5,172.167 1075.5,197.833 1075.5,223.5C 1074.5,198.339 1074.17,173.005 1074.5,147.5C 1069.83,147.5 1065.17,147.5 1060.5,147.5C 1060.5,143.167 1060.5,138.833 1060.5,134.5C 1065.17,134.5 1069.83,134.5 1074.5,134.5C 1074.5,123.5 1074.5,112.5 1074.5,101.5C 1079.36,101.181 1084.03,101.514 1088.5,102.5 Z"/></g>
<g><path style="opacity:1" fill="#090909" d="M 1088.5,102.5 C 1088.5,113.167 1088.5,123.833 1088.5,134.5C 1095.65,135.492 1102.98,135.825 1110.5,135.5C 1110.5,139.167 1110.5,142.833 1110.5,146.5C 1102.98,146.175 1095.65,146.508 1088.5,147.5C 1088.33,170.836 1088.5,194.169 1089,217.5C 1090.8,222.163 1094.3,224.497 1099.5,224.5C 1104.1,223.935 1108.43,222.601 1112.5,220.5C 1113.61,220.557 1114.61,220.89 1115.5,221.5C 1117.27,223.792 1118.27,226.458 1118.5,229.5C 1117.17,230.833 1115.83,232.167 1114.5,233.5C 1106.01,237.913 1097.01,239.079 1087.5,237C 1085.93,236.392 1084.6,235.558 1083.5,234.5C 1081.83,232.167 1079.83,230.167 1077.5,228.5C 1076.07,227.22 1075.4,225.553 1075.5,223.5C 1075.5,197.833 1075.5,172.167 1075.5,146.5C 1070.83,146.5 1066.17,146.5 1061.5,146.5C 1061.5,142.833 1061.5,139.167 1061.5,135.5C 1066.17,135.5 1070.83,135.5 1075.5,135.5C 1075.5,124.5 1075.5,113.5 1075.5,102.5C 1079.83,102.5 1084.17,102.5 1088.5,102.5 Z"/></g>
<g><path style="opacity:0.488" fill="#fefffe" d="M 874.5,108.5 C 876.027,108.427 877.027,109.094 877.5,110.5C 875.973,110.573 874.973,109.906 874.5,108.5 Z"/></g>
<g><path style="opacity:0.457" fill="#fefefe" d="M 877.5,110.5 C 879.027,110.427 880.027,111.094 880.5,112.5C 878.973,112.573 877.973,111.906 877.5,110.5 Z"/></g>
<g><path style="opacity:0.686" fill="#0a9fe2" d="M 240.5,232.5 C 251.682,210.064 254.182,186.731 248,162.5C 242.798,150.124 233.631,142.791 220.5,140.5C 207.772,138.344 195.439,139.678 183.5,144.5C 172.783,147.628 162.117,150.961 151.5,154.5C 152.081,147.939 151.248,141.605 149,135.5C 146.149,131.494 142.315,129.16 137.5,128.5C 134.391,128.264 131.391,128.597 128.5,129.5C 128.167,129.5 127.833,129.5 127.5,129.5C 129.654,116.409 137.321,111.243 150.5,114C 155.757,116.256 159.257,120.09 161,125.5C 161.172,130.202 161.672,134.868 162.5,139.5C 178.526,133.577 194.859,128.744 211.5,125C 235.819,121.063 251.985,130.563 260,153.5C 264.396,178.795 260.062,202.462 247,224.5C 245.054,227.42 242.887,230.087 240.5,232.5 Z"/></g>
<g><path style="opacity:0.453" fill="#fefefe" d="M 882.5,114.5 C 885.5,115.5 887.5,117.5 888.5,120.5C 886.167,118.833 884.167,116.833 882.5,114.5 Z"/></g>
<g><path style="opacity:0.454" fill="#fefffe" d="M 860.5,116.5 C 862.38,116.229 863.713,116.896 864.5,118.5C 862.847,118.34 861.514,117.674 860.5,116.5 Z"/></g>
<g><path style="opacity:0.52" fill="#fefefe" d="M 869.5,121.5 C 871.027,121.427 872.027,122.094 872.5,123.5C 870.973,123.573 869.973,122.906 869.5,121.5 Z"/></g>
<g><path style="opacity:0.582" fill="#fefefe" d="M 889.5,121.5 C 890.906,121.973 891.573,122.973 891.5,124.5C 890.094,124.027 889.427,123.027 889.5,121.5 Z"/></g>
<g><path style="opacity:0.588" fill="#fefffe" d="M 747.5,125.5 C 747.167,126.5 746.5,127.167 745.5,127.5C 745.5,126.167 746.167,125.5 747.5,125.5 Z"/></g>
<g><path style="opacity:1" fill="#161616" d="M 747.5,125.5 C 750.5,125.5 753.5,125.5 756.5,125.5C 756.5,154.5 756.5,183.5 756.5,212.5C 761.64,213.488 766.974,213.821 772.5,213.5C 772.5,217.5 772.5,221.5 772.5,225.5C 767.167,225.5 761.833,225.5 756.5,225.5C 756.5,234.5 756.5,243.5 756.5,252.5C 878.167,252.333 999.834,252.5 1121.5,253C 1123.27,256.394 1122.61,259.06 1119.5,261C 835.5,261.667 551.5,261.667 267.5,261C 263.514,259.057 262.847,256.39 265.5,253C 424.5,252.5 583.5,252.333 742.5,252.5C 742.5,243.5 742.5,234.5 742.5,225.5C 721.167,225.5 699.833,225.5 678.5,225.5C 678.034,220.57 678.701,215.903 680.5,211.5C 680.5,210.833 680.833,210.5 681.5,210.5C 682.906,210.027 683.573,209.027 683.5,207.5C 683.5,206.833 683.833,206.5 684.5,206.5C 685.906,206.027 686.573,205.027 686.5,203.5C 686.5,202.833 686.833,202.5 687.5,202.5C 689.262,201.738 690.262,200.404 690.5,198.5C 690.5,197.833 690.833,197.5 691.5,197.5C 692.906,197.027 693.573,196.027 693.5,194.5C 693.5,193.833 693.833,193.5 694.5,193.5C 696.262,192.738 697.262,191.404 697.5,189.5C 697.5,188.833 697.833,188.5 698.5,188.5C 699.906,188.027 700.573,187.027 700.5,185.5C 700.5,184.833 700.833,184.5 701.5,184.5C 702.906,184.027 703.573,183.027 703.5,181.5C 703.5,180.833 703.833,180.5 704.5,180.5C 706.262,179.738 707.262,178.404 707.5,176.5C 707.5,175.833 707.833,175.5 708.5,175.5C 709.906,175.027 710.573,174.027 710.5,172.5C 710.5,171.833 710.833,171.5 711.5,171.5C 712.906,171.027 713.573,170.027 713.5,168.5C 713.5,167.833 713.833,167.5 714.5,167.5C 716.262,166.738 717.262,165.404 717.5,163.5C 717.5,162.833 717.833,162.5 718.5,162.5C 719.906,162.027 720.573,161.027 720.5,159.5C 720.5,158.833 720.833,158.5 721.5,158.5C 723.262,157.738 724.262,156.404 724.5,154.5C 724.5,153.833 724.833,153.5 725.5,153.5C 726.906,153.027 727.573,152.027 727.5,150.5C 727.5,149.833 727.833,149.5 728.5,149.5C 729.906,149.027 730.573,148.027 730.5,146.5C 730.5,145.833 730.833,145.5 731.5,145.5C 733.262,144.738 734.262,143.404 734.5,141.5C 734.5,140.833 734.833,140.5 735.5,140.5C 736.906,140.027 737.573,139.027 737.5,137.5C 737.5,136.833 737.833,136.5 738.5,136.5C 739.906,136.027 740.573,135.027 740.5,133.5C 740.5,132.833 740.833,132.5 741.5,132.5C 743.262,131.738 744.262,130.404 744.5,128.5C 744.5,127.833 744.833,127.5 745.5,127.5C 746.5,127.167 747.167,126.5 747.5,125.5 Z M 698.5,208.5 C 700.262,207.738 701.262,206.404 701.5,204.5C 702.167,204.5 702.5,204.167 702.5,203.5C 703.906,203.027 704.573,202.027 704.5,200.5C 705.167,200.5 705.5,200.167 705.5,199.5C 706.906,199.027 707.573,198.027 707.5,196.5C 708.167,196.5 708.5,196.167 708.5,195.5C 709.906,195.027 710.573,194.027 710.5,192.5C 711.167,192.5 711.5,192.167 711.5,191.5C 713.262,190.738 714.262,189.404 714.5,187.5C 715.167,187.5 715.5,187.167 715.5,186.5C 716.906,186.027 717.573,185.027 717.5,183.5C 718.167,183.5 718.5,183.167 718.5,182.5C 719.906,182.027 720.573,181.027 720.5,179.5C 721.167,179.5 721.5,179.167 721.5,178.5C 722.906,178.027 723.573,177.027 723.5,175.5C 724.167,175.5 724.5,175.167 724.5,174.5C 726.262,173.738 727.262,172.404 727.5,170.5C 729.262,169.738 730.262,168.404 730.5,166.5C 731.167,166.5 731.5,166.167 731.5,165.5C 732.906,165.027 733.573,164.027 733.5,162.5C 734.167,162.5 734.5,162.167 734.5,161.5C 735.906,161.027 736.573,160.027 736.5,158.5C 737.167,158.5 737.5,158.167 737.5,157.5C 739.262,156.738 740.262,155.404 740.5,153.5C 741.458,153.047 742.292,152.381 743,151.5C 743.5,171.831 743.667,192.164 743.5,212.5C 727.83,212.667 712.163,212.5 696.5,212C 697.823,211.184 698.489,210.017 698.5,208.5 Z"/></g>
<g><path style="opacity:0.483" fill="#fefefe" d="M 744.5,128.5 C 744.262,130.404 743.262,131.738 741.5,132.5C 741.738,130.596 742.738,129.262 744.5,128.5 Z"/></g>
<g><path style="opacity:0.525" fill="#fefefe" d="M 877.5,128.5 C 879.262,129.262 880.262,130.596 880.5,132.5C 878.738,131.738 877.738,130.404 877.5,128.5 Z"/></g>
<g><path style="opacity:0.697" fill="#fce914" d="M 120.5,128.5 C 122.435,129.15 124.435,129.483 126.5,129.5C 119.061,135.69 116.395,143.69 118.5,153.5C 118.5,153.833 118.5,154.167 118.5,154.5C 113.393,155.424 108.393,156.758 103.5,158.5C 103.5,157.167 103.5,155.833 103.5,154.5C 108.387,145.288 114.054,136.621 120.5,128.5 Z"/></g>
<g><path style="opacity:0.702" fill="#bb68a7" d="M 137.5,128.5 C 142.315,129.16 146.149,131.494 149,135.5C 151.248,141.605 152.081,147.939 151.5,154.5C 149.051,155.791 146.384,156.791 143.5,157.5C 142.668,149.521 142.168,141.521 142,133.5C 140.975,131.313 139.475,129.646 137.5,128.5 Z"/></g>
<g><path style="opacity:0.702" fill="#eb6d83" d="M 126.5,129.5 C 126.833,129.5 127.167,129.5 127.5,129.5C 127.833,129.5 128.167,129.5 128.5,129.5C 127.878,130.627 127.045,131.627 126,132.5C 125.5,139.158 125.334,145.825 125.5,152.5C 123.097,152.448 120.764,152.781 118.5,153.5C 116.395,143.69 119.061,135.69 126.5,129.5 Z"/></g>
<g><path style="opacity:0.551" fill="#fefefe" d="M 880.5,132.5 C 881.906,132.973 882.573,133.973 882.5,135.5C 881.094,135.027 880.427,134.027 880.5,132.5 Z"/></g>
<g><path style="opacity:1" fill="#141414" d="M 438.5,140.5 C 438.973,141.906 439.973,142.573 441.5,142.5C 442.167,142.5 442.5,142.833 442.5,143.5C 443.585,145.587 445.251,146.92 447.5,147.5C 448.08,149.749 449.413,151.415 451.5,152.5C 452.167,152.5 452.5,152.833 452.5,153.5C 452.427,155.027 453.094,156.027 454.5,156.5C 455.338,156.842 455.672,157.508 455.5,158.5C 455.992,160.819 456.992,162.819 458.5,164.5C 460.262,167.503 461.428,170.837 462,174.5C 462.961,179.577 463.128,184.577 462.5,189.5C 434.392,191.479 406.059,192.145 377.5,191.5C 377.205,193.735 377.539,195.735 378.5,197.5C 380.009,200.678 381.342,204.011 382.5,207.5C 382.427,209.027 383.094,210.027 384.5,210.5C 384.427,212.027 385.094,213.027 386.5,213.5C 388.5,214.833 390.167,216.5 391.5,218.5C 391.973,219.906 392.973,220.573 394.5,220.5C 406.125,227.568 418.125,228.235 430.5,222.5C 432.027,222.573 433.027,221.906 433.5,220.5C 435.027,220.573 436.027,219.906 436.5,218.5C 437.167,217.167 438.167,216.167 439.5,215.5C 440.906,215.027 441.573,214.027 441.5,212.5C 442.837,211.685 443.837,210.518 444.5,209C 445.448,208.517 446.448,208.351 447.5,208.5C 450.067,208.721 452.401,209.388 454.5,210.5C 455.11,211.391 455.443,212.391 455.5,213.5C 454.921,216.331 453.588,218.664 451.5,220.5C 448.5,222.833 445.833,225.5 443.5,228.5C 443.5,229.167 443.167,229.5 442.5,229.5C 440.973,229.427 439.973,230.094 439.5,231.5C 428.452,238.104 416.452,240.27 403.5,238C 398.388,237.024 393.722,235.191 389.5,232.5C 389.027,231.094 388.027,230.427 386.5,230.5C 386.027,229.094 385.027,228.427 383.5,228.5C 382.5,228.167 381.833,227.5 381.5,226.5C 380.167,224.5 378.5,222.833 376.5,221.5C 375.5,221.167 374.833,220.5 374.5,219.5C 374.573,217.973 373.906,216.973 372.5,216.5C 372.573,214.973 371.906,213.973 370.5,213.5C 360.798,196.489 360.131,179.156 368.5,161.5C 370.25,160.341 371.25,158.674 371.5,156.5C 372.906,156.027 373.573,155.027 373.5,153.5C 375.262,152.738 376.262,151.404 376.5,149.5C 377.5,147.833 378.833,146.5 380.5,145.5C 382.404,145.262 383.738,144.262 384.5,142.5C 386.027,142.573 387.027,141.906 387.5,140.5C 387.842,139.662 388.508,139.328 389.5,139.5C 391.153,139.34 392.486,138.674 393.5,137.5C 396.135,135.672 399.135,134.505 402.5,134C 409.5,133.333 416.5,133.333 423.5,134C 429.047,135.112 434.047,137.278 438.5,140.5 Z M 421.5,146.5 C 423.214,147.738 425.214,148.405 427.5,148.5C 427.842,149.338 428.508,149.672 429.5,149.5C 429.973,150.906 430.973,151.573 432.5,151.5C 432.973,152.906 433.973,153.573 435.5,153.5C 436.833,155.5 438.5,157.167 440.5,158.5C 440.427,160.027 441.094,161.027 442.5,161.5C 442.427,163.027 443.094,164.027 444.5,164.5C 445.605,168.352 446.938,172.018 448.5,175.5C 448.5,176.833 448.5,178.167 448.5,179.5C 424.661,179.831 400.994,179.498 377.5,178.5C 378.301,176.958 378.634,175.292 378.5,173.5C 379.738,171.786 380.405,169.786 380.5,167.5C 382.071,165.365 383.404,163.032 384.5,160.5C 385.906,160.027 386.573,159.027 386.5,157.5C 388.167,156.5 389.5,155.167 390.5,153.5C 392.027,153.573 393.027,152.906 393.5,151.5C 395.027,151.573 396.027,150.906 396.5,149.5C 404.554,146.021 412.887,145.021 421.5,146.5 Z"/></g>
<g><path style="opacity:1" fill="#191919" d="M 537.5,135.5 C 538.78,136.931 540.447,137.598 542.5,137.5C 544.153,137.66 545.486,138.326 546.5,139.5C 546.973,140.906 547.973,141.573 549.5,141.5C 550.262,143.262 551.596,144.262 553.5,144.5C 554.833,145.167 555.833,146.167 556.5,147.5C 556.427,149.027 557.094,150.027 558.5,150.5C 559.906,150.973 560.573,151.973 560.5,153.5C 560.427,155.027 561.094,156.027 562.5,156.5C 562.473,158.199 561.806,159.533 560.5,160.5C 557.458,161.91 554.291,163.243 551,164.5C 550.601,164.272 550.435,163.938 550.5,163.5C 550.573,161.973 549.906,160.973 548.5,160.5C 547.512,159.205 546.512,157.872 545.5,156.5C 545.5,155.167 544.833,154.5 543.5,154.5C 542.5,154.167 541.833,153.5 541.5,152.5C 541.027,151.094 540.027,150.427 538.5,150.5C 529.101,146.1 519.435,145.434 509.5,148.5C 506.911,148.461 504.911,149.461 503.5,151.5C 501.973,151.427 500.973,152.094 500.5,153.5C 498.833,155.833 496.833,157.833 494.5,159.5C 493.094,159.973 492.427,160.973 492.5,162.5C 490.127,164.579 488.794,167.246 488.5,170.5C 485.833,180.5 485.833,190.5 488.5,200.5C 488.794,203.754 490.127,206.421 492.5,208.5C 492.427,210.027 493.094,211.027 494.5,211.5C 495.167,211.5 495.5,211.833 495.5,212.5C 496.5,215.5 498.5,217.5 501.5,218.5C 502.71,218.932 503.71,219.599 504.5,220.5C 504.973,221.906 505.973,222.573 507.5,222.5C 518.787,226.839 529.787,226.173 540.5,220.5C 542.027,220.573 543.027,219.906 543.5,218.5C 544.833,216.5 546.5,214.833 548.5,213.5C 550.104,212.713 550.771,211.38 550.5,209.5C 552.042,208.699 553.708,208.366 555.5,208.5C 558.067,208.721 560.401,209.388 562.5,210.5C 563.234,211.708 563.567,213.041 563.5,214.5C 563.34,216.153 562.674,217.486 561.5,218.5C 560.094,218.973 559.427,219.973 559.5,221.5C 559.5,222.167 559.167,222.5 558.5,222.5C 556.5,223.833 554.833,225.5 553.5,227.5C 553.5,228.167 553.167,228.5 552.5,228.5C 550.973,228.427 549.973,229.094 549.5,230.5C 541.572,236.361 532.572,239.028 522.5,238.5C 513.769,238.984 505.769,236.984 498.5,232.5C 498.027,231.094 497.027,230.427 495.5,230.5C 495.027,229.094 494.027,228.427 492.5,228.5C 491.5,228.167 490.833,227.5 490.5,226.5C 489.167,224.5 487.5,222.833 485.5,221.5C 484.5,221.167 483.833,220.5 483.5,219.5C 483.573,217.973 482.906,216.973 481.5,216.5C 481.573,214.973 480.906,213.973 479.5,213.5C 468.833,194.833 468.833,176.167 479.5,157.5C 480.906,157.027 481.573,156.027 481.5,154.5C 483.262,153.738 484.262,152.404 484.5,150.5C 486.167,148.167 488.167,146.167 490.5,144.5C 492.027,144.573 493.027,143.906 493.5,142.5C 493.973,141.094 494.973,140.427 496.5,140.5C 498.819,140.008 500.819,139.008 502.5,137.5C 505.135,135.672 508.135,134.505 511.5,134C 518.5,133.333 525.5,133.333 532.5,134C 534.382,134.198 536.048,134.698 537.5,135.5 Z"/></g>
<g><path style="opacity:0.457" fill="#fefefe" d="M 740.5,133.5 C 740.573,135.027 739.906,136.027 738.5,136.5C 738.427,134.973 739.094,133.973 740.5,133.5 Z"/></g>
<g><path style="opacity:1" fill="#141414" d="M 1030.5,140.5 C 1030.97,141.906 1031.97,142.573 1033.5,142.5C 1034.17,142.5 1034.5,142.833 1034.5,143.5C 1035.58,145.587 1037.25,146.92 1039.5,147.5C 1040.08,149.749 1041.41,151.415 1043.5,152.5C 1044.17,152.5 1044.5,152.833 1044.5,153.5C 1044.43,155.027 1045.09,156.027 1046.5,156.5C 1047.34,156.842 1047.67,157.508 1047.5,158.5C 1047.99,160.819 1048.99,162.819 1050.5,164.5C 1052.26,167.503 1053.43,170.837 1054,174.5C 1054.96,179.577 1055.13,184.577 1054.5,189.5C 1026.39,191.479 998.059,192.145 969.5,191.5C 969.205,193.735 969.539,195.735 970.5,197.5C 972.009,200.678 973.342,204.011 974.5,207.5C 974.427,209.027 975.094,210.027 976.5,210.5C 976.427,212.027 977.094,213.027 978.5,213.5C 980.5,214.833 982.167,216.5 983.5,218.5C 983.973,219.906 984.973,220.573 986.5,220.5C 998.125,227.568 1010.12,228.235 1022.5,222.5C 1024.03,222.573 1025.03,221.906 1025.5,220.5C 1027.03,220.573 1028.03,219.906 1028.5,218.5C 1029.17,217.167 1030.17,216.167 1031.5,215.5C 1032.91,215.027 1033.57,214.027 1033.5,212.5C 1034.84,211.685 1035.84,210.518 1036.5,209C 1037.45,208.517 1038.45,208.351 1039.5,208.5C 1042.07,208.721 1044.4,209.388 1046.5,210.5C 1047.11,211.391 1047.44,212.391 1047.5,213.5C 1046.92,216.331 1045.59,218.664 1043.5,220.5C 1040.5,222.833 1037.83,225.5 1035.5,228.5C 1035.5,229.167 1035.17,229.5 1034.5,229.5C 1032.97,229.427 1031.97,230.094 1031.5,231.5C 1020.45,238.104 1008.45,240.27 995.5,238C 990.388,237.024 985.722,235.191 981.5,232.5C 981.027,231.094 980.027,230.427 978.5,230.5C 978.027,229.094 977.027,228.427 975.5,228.5C 974.5,228.167 973.833,227.5 973.5,226.5C 972.167,224.5 970.5,222.833 968.5,221.5C 967.5,221.167 966.833,220.5 966.5,219.5C 966.573,217.973 965.906,216.973 964.5,216.5C 964.573,214.973 963.906,213.973 962.5,213.5C 952.798,196.489 952.131,179.156 960.5,161.5C 962.25,160.341 963.25,158.674 963.5,156.5C 964.906,156.027 965.573,155.027 965.5,153.5C 967.262,152.738 968.262,151.404 968.5,149.5C 969.5,147.833 970.833,146.5 972.5,145.5C 974.404,145.262 975.738,144.262 976.5,142.5C 978.027,142.573 979.027,141.906 979.5,140.5C 979.842,139.662 980.508,139.328 981.5,139.5C 983.153,139.34 984.486,138.674 985.5,137.5C 988.135,135.672 991.135,134.505 994.5,134C 1001.5,133.333 1008.5,133.333 1015.5,134C 1021.05,135.112 1026.05,137.278 1030.5,140.5 Z M 1013.5,146.5 C 1015.21,147.738 1017.21,148.405 1019.5,148.5C 1019.84,149.338 1020.51,149.672 1021.5,149.5C 1021.97,150.906 1022.97,151.573 1024.5,151.5C 1024.97,152.906 1025.97,153.573 1027.5,153.5C 1028.83,155.5 1030.5,157.167 1032.5,158.5C 1032.43,160.027 1033.09,161.027 1034.5,161.5C 1034.43,163.027 1035.09,164.027 1036.5,164.5C 1037.6,168.352 1038.94,172.018 1040.5,175.5C 1040.5,176.833 1040.5,178.167 1040.5,179.5C 1016.66,179.831 992.994,179.498 969.5,178.5C 970.301,176.958 970.634,175.292 970.5,173.5C 971.738,171.786 972.405,169.786 972.5,167.5C 974.071,165.365 975.404,163.032 976.5,160.5C 977.906,160.027 978.573,159.027 978.5,157.5C 980.167,156.5 981.5,155.167 982.5,153.5C 984.027,153.573 985.027,152.906 985.5,151.5C 987.027,151.573 988.027,150.906 988.5,149.5C 996.554,146.021 1004.89,145.021 1013.5,146.5 Z"/></g>
<g><path style="opacity:0.54" fill="#fefefe" d="M 640.5,134.5 C 642.898,134.259 644.898,134.926 646.5,136.5C 644.214,136.405 642.214,135.738 640.5,134.5 Z"/></g>
<g><path style="opacity:0.493" fill="#fefefe" d="M 897.5,134.5 C 898.931,135.78 899.598,137.447 899.5,139.5C 898.069,138.22 897.402,136.553 897.5,134.5 Z"/></g>
<g><path style="opacity:0.474" fill="#fefffe" d="M 936.5,135.5 C 932.167,135.5 927.833,135.5 923.5,135.5C 923.5,169.167 923.5,202.833 923.5,236.5C 922.502,202.671 922.168,168.671 922.5,134.5C 927.363,134.181 932.03,134.514 936.5,135.5 Z"/></g>
<g><path style="opacity:0.396" fill="#fefffe" d="M 1088.5,134.5 C 1096.17,134.5 1103.83,134.5 1111.5,134.5C 1111.5,138.833 1111.5,143.167 1111.5,147.5C 1103.83,147.5 1096.17,147.5 1088.5,147.5C 1095.65,146.508 1102.98,146.175 1110.5,146.5C 1110.5,142.833 1110.5,139.167 1110.5,135.5C 1102.98,135.825 1095.65,135.492 1088.5,134.5 Z"/></g>
<g><path style="opacity:0.483" fill="#fefefe" d="M 537.5,135.5 C 539.553,135.402 541.22,136.069 542.5,137.5C 540.447,137.598 538.78,136.931 537.5,135.5 Z"/></g>
<g><path style="opacity:1" fill="#000000" d="M 936.5,135.5 C 936.5,169.167 936.5,202.833 936.5,236.5C 932.167,236.5 927.833,236.5 923.5,236.5C 923.5,202.833 923.5,169.167 923.5,135.5C 927.833,135.5 932.167,135.5 936.5,135.5 Z"/></g>
<g><path style="opacity:0.52" fill="#fefffe" d="M 646.5,136.5 C 648.027,136.427 649.027,137.094 649.5,138.5C 647.973,138.573 646.973,137.906 646.5,136.5 Z"/></g>
<g><path style="opacity:0.529" fill="#fefefe" d="M 393.5,137.5 C 392.486,138.674 391.153,139.34 389.5,139.5C 390.287,137.896 391.62,137.229 393.5,137.5 Z"/></g>
<g><path style="opacity:0.544" fill="#fefffe" d="M 502.5,137.5 C 500.819,139.008 498.819,140.008 496.5,140.5C 497.911,138.461 499.911,137.461 502.5,137.5 Z"/></g>
<g><path style="opacity:0.52" fill="#fefefe" d="M 737.5,137.5 C 737.573,139.027 736.906,140.027 735.5,140.5C 735.427,138.973 736.094,137.973 737.5,137.5 Z"/></g>
<g><path style="opacity:0.529" fill="#fefefe" d="M 985.5,137.5 C 984.486,138.674 983.153,139.34 981.5,139.5C 982.287,137.896 983.62,137.229 985.5,137.5 Z"/></g>
<g><path style="opacity:0.535" fill="#fefffe" d="M 649.5,138.5 C 651.404,138.738 652.738,139.738 653.5,141.5C 651.596,141.262 650.262,140.262 649.5,138.5 Z"/></g>
<g><path style="opacity:0.702" fill="#eee1ed" d="M 220.5,140.5 C 233.04,144.51 240.207,153.177 242,166.5C 245.352,212 226.186,243.5 184.5,261C 179.516,262.33 174.516,263.496 169.5,264.5C 166.763,264.599 164.096,264.265 161.5,263.5C 157.988,259.422 157.654,255.088 160.5,250.5C 160.5,250.167 160.5,249.833 160.5,249.5C 160.833,249.5 161.167,249.5 161.5,249.5C 163.421,248.637 165.421,247.971 167.5,247.5C 169.591,247.682 171.591,247.348 173.5,246.5C 174.492,242.217 174.826,237.884 174.5,233.5C 175.5,233.5 176.5,233.5 177.5,233.5C 177.5,215.833 177.5,198.167 177.5,180.5C 182.497,179.613 187.164,177.947 191.5,175.5C 191.167,196.511 191.5,217.511 192.5,238.5C 206.327,230.349 215.66,218.682 220.5,203.5C 226.373,189.395 226.873,175.062 222,160.5C 221.184,159.177 220.017,158.511 218.5,158.5C 215.305,156.97 211.805,156.304 208,156.5C 204.142,156.679 200.309,157.013 196.5,157.5C 194.762,150.273 190.095,146.44 182.5,146C 183.056,145.617 183.389,145.117 183.5,144.5C 195.439,139.678 207.772,138.344 220.5,140.5 Z"/></g>
<g><path style="opacity:0.488" fill="#fefffe" d="M 546.5,139.5 C 548.027,139.427 549.027,140.094 549.5,141.5C 547.973,141.573 546.973,140.906 546.5,139.5 Z"/></g>
<g><path style="opacity:0.504" fill="#fefefe" d="M 387.5,140.5 C 387.027,141.906 386.027,142.573 384.5,142.5C 384.973,141.094 385.973,140.427 387.5,140.5 Z"/></g>
<g><path style="opacity:0.41" fill="#fefefe" d="M 438.5,140.5 C 440.027,140.427 441.027,141.094 441.5,142.5C 439.973,142.573 438.973,141.906 438.5,140.5 Z"/></g>
<g><path style="opacity:0.504" fill="#fefefe" d="M 979.5,140.5 C 979.027,141.906 978.027,142.573 976.5,142.5C 976.973,141.094 977.973,140.427 979.5,140.5 Z"/></g>
<g><path style="opacity:0.41" fill="#fefefe" d="M 1030.5,140.5 C 1032.03,140.427 1033.03,141.094 1033.5,142.5C 1031.97,142.573 1030.97,141.906 1030.5,140.5 Z"/></g>
<g><path style="opacity:0.483" fill="#fefefe" d="M 549.5,141.5 C 551.404,141.738 552.738,142.738 553.5,144.5C 551.596,144.262 550.262,143.262 549.5,141.5 Z"/></g>
<g><path style="opacity:0.567" fill="#fefefe" d="M 606.5,141.5 C 606.027,142.906 605.027,143.573 603.5,143.5C 603.973,142.094 604.973,141.427 606.5,141.5 Z"/></g>
<g><path style="opacity:0.556" fill="#fefefe" d="M 653.5,141.5 C 655.262,142.262 656.262,143.596 656.5,145.5C 654.738,144.738 653.738,143.404 653.5,141.5 Z"/></g>
<g><path style="opacity:0.504" fill="#fefefe" d="M 734.5,141.5 C 734.262,143.404 733.262,144.738 731.5,145.5C 731.738,143.596 732.738,142.262 734.5,141.5 Z"/></g>
<g><path style="opacity:0.462" fill="#fefefe" d="M 384.5,142.5 C 383.738,144.262 382.404,145.262 380.5,145.5C 381.262,143.738 382.596,142.738 384.5,142.5 Z"/></g>
<g><path style="opacity:0.52" fill="#fefffe" d="M 493.5,142.5 C 493.027,143.906 492.027,144.573 490.5,144.5C 490.973,143.094 491.973,142.427 493.5,142.5 Z"/></g>
<g><path style="opacity:0.462" fill="#fefefe" d="M 976.5,142.5 C 975.738,144.262 974.404,145.262 972.5,145.5C 973.262,143.738 974.596,142.738 976.5,142.5 Z"/></g>
<g><path style="opacity:0.512" fill="#fefefe" d="M 442.5,143.5 C 444.749,144.08 446.415,145.413 447.5,147.5C 445.251,146.92 443.585,145.587 442.5,143.5 Z"/></g>
<g><path style="opacity:0.512" fill="#fefefe" d="M 1034.5,143.5 C 1036.75,144.08 1038.42,145.413 1039.5,147.5C 1037.25,146.92 1035.58,145.587 1034.5,143.5 Z"/></g>
<g><path style="opacity:0.702" fill="#bb69a8" d="M 220.5,140.5 C 233.631,142.791 242.798,150.124 248,162.5C 254.182,186.731 251.682,210.064 240.5,232.5C 240.672,233.492 240.338,234.158 239.5,234.5C 229.853,245.15 218.52,253.483 205.5,259.5C 194.624,264.221 183.291,266.387 171.5,266C 170.584,265.722 169.918,265.222 169.5,264.5C 174.516,263.496 179.516,262.33 184.5,261C 226.186,243.5 245.352,212 242,166.5C 240.207,153.177 233.04,144.51 220.5,140.5 Z"/></g>
<g><path style="opacity:0.462" fill="#fefefe" d="M 602.5,144.5 C 601.167,146.5 599.5,148.167 597.5,149.5C 598.167,146.833 599.833,145.167 602.5,144.5 Z"/></g>
<g><path style="opacity:0.468" fill="#fefefe" d="M 421.5,146.5 C 423.898,146.259 425.898,146.926 427.5,148.5C 425.214,148.405 423.214,147.738 421.5,146.5 Z"/></g>
<g><path style="opacity:0.473" fill="#fefefe" d="M 730.5,146.5 C 730.573,148.027 729.906,149.027 728.5,149.5C 728.427,147.973 729.094,146.973 730.5,146.5 Z"/></g>
<g><path style="opacity:0.459" fill="#fefefe" d="M 1013.5,146.5 C 1015.9,146.259 1017.9,146.926 1019.5,148.5C 1017.21,148.405 1015.21,147.738 1013.5,146.5 Z"/></g>
<g><path style="opacity:0.535" fill="#fefefe" d="M 447.5,147.5 C 449.587,148.585 450.92,150.251 451.5,152.5C 449.413,151.415 448.08,149.749 447.5,147.5 Z"/></g>
<g><path style="opacity:0.52" fill="#fefefe" d="M 556.5,147.5 C 557.906,147.973 558.573,148.973 558.5,150.5C 557.094,150.027 556.427,149.027 556.5,147.5 Z"/></g>
<g><path style="opacity:0.535" fill="#fefefe" d="M 620.5,147.5 C 619.22,148.931 617.553,149.598 615.5,149.5C 616.78,148.069 618.447,147.402 620.5,147.5 Z"/></g>
<g><path style="opacity:0.442" fill="#fefefe" d="M 636.5,147.5 C 638.38,147.229 639.713,147.896 640.5,149.5C 638.847,149.34 637.514,148.674 636.5,147.5 Z"/></g>
<g><path style="opacity:0.535" fill="#fefefe" d="M 1039.5,147.5 C 1041.59,148.585 1042.92,150.251 1043.5,152.5C 1041.41,151.415 1040.08,149.749 1039.5,147.5 Z"/></g>
<g><path style="opacity:0.489" fill="#fefefe" d="M 509.5,148.5 C 507.819,150.008 505.819,151.008 503.5,151.5C 504.911,149.461 506.911,148.461 509.5,148.5 Z"/></g>
<g><path style="opacity:0.462" fill="#fefefe" d="M 376.5,149.5 C 376.262,151.404 375.262,152.738 373.5,153.5C 373.738,151.596 374.738,150.262 376.5,149.5 Z"/></g>
<g><path style="opacity:0.488" fill="#fefefe" d="M 396.5,149.5 C 396.027,150.906 395.027,151.573 393.5,151.5C 393.973,150.094 394.973,149.427 396.5,149.5 Z"/></g>
<g><path style="opacity:0.457" fill="#fefefe" d="M 429.5,149.5 C 431.027,149.427 432.027,150.094 432.5,151.5C 430.973,151.573 429.973,150.906 429.5,149.5 Z"/></g>
<g><path style="opacity:0.522" fill="#fefefe" d="M 615.5,149.5 C 614.341,151.25 612.674,152.25 610.5,152.5C 611.659,150.75 613.326,149.75 615.5,149.5 Z"/></g>
<g><path style="opacity:0.559" fill="#fefffe" d="M 640.5,149.5 C 643.167,150.167 644.833,151.833 645.5,154.5C 643.5,153.167 641.833,151.5 640.5,149.5 Z"/></g>
<g><path style="opacity:0.735" fill="#fefefe" d="M 698.5,208.5 C 698.489,210.017 697.823,211.184 696.5,212C 712.163,212.5 727.83,212.667 743.5,212.5C 743.667,192.164 743.5,171.831 743,151.5C 742.292,152.381 741.458,153.047 740.5,153.5C 740.712,151.616 741.712,150.283 743.5,149.5C 744.5,170.823 744.833,192.156 744.5,213.5C 727.83,213.667 711.163,213.5 694.5,213C 695.328,211.008 696.661,209.508 698.5,208.5 Z"/></g>
<g><path style="opacity:0.462" fill="#fefefe" d="M 968.5,149.5 C 968.262,151.404 967.262,152.738 965.5,153.5C 965.738,151.596 966.738,150.262 968.5,149.5 Z"/></g>
<g><path style="opacity:0.473" fill="#fefefe" d="M 988.5,149.5 C 988.027,150.906 987.027,151.573 985.5,151.5C 985.973,150.094 986.973,149.427 988.5,149.5 Z"/></g>
<g><path style="opacity:0.441" fill="#fefefe" d="M 1021.5,149.5 C 1023.03,149.427 1024.03,150.094 1024.5,151.5C 1022.97,151.573 1021.97,150.906 1021.5,149.5 Z"/></g>
<g><path style="opacity:0.514" fill="#fefefe" d="M 484.5,150.5 C 484.262,152.404 483.262,153.738 481.5,154.5C 481.738,152.596 482.738,151.262 484.5,150.5 Z"/></g>
<g><path style="opacity:0.567" fill="#fefffe" d="M 538.5,150.5 C 540.027,150.427 541.027,151.094 541.5,152.5C 539.973,152.573 538.973,151.906 538.5,150.5 Z"/></g>
<g><path style="opacity:0.551" fill="#fefefe" d="M 727.5,150.5 C 727.573,152.027 726.906,153.027 725.5,153.5C 725.427,151.973 726.094,150.973 727.5,150.5 Z"/></g>
<g><path style="opacity:0.52" fill="#fefefe" d="M 393.5,151.5 C 393.027,152.906 392.027,153.573 390.5,153.5C 390.973,152.094 391.973,151.427 393.5,151.5 Z"/></g>
<g><path style="opacity:0.488" fill="#fefefe" d="M 432.5,151.5 C 434.027,151.427 435.027,152.094 435.5,153.5C 433.973,153.573 432.973,152.906 432.5,151.5 Z"/></g>
<g><path style="opacity:0.504" fill="#fefefe" d="M 503.5,151.5 C 503.027,152.906 502.027,153.573 500.5,153.5C 500.973,152.094 501.973,151.427 503.5,151.5 Z"/></g>
<g><path style="opacity:0.52" fill="#fefefe" d="M 985.5,151.5 C 985.027,152.906 984.027,153.573 982.5,153.5C 982.973,152.094 983.973,151.427 985.5,151.5 Z"/></g>
<g><path style="opacity:0.488" fill="#fefefe" d="M 1024.5,151.5 C 1026.03,151.427 1027.03,152.094 1027.5,153.5C 1025.97,153.573 1024.97,152.906 1024.5,151.5 Z"/></g>
<g><path style="opacity:0.702" fill="#bd67a6" d="M 125.5,152.5 C 125.823,156.226 125.489,159.893 124.5,163.5C 122.55,164.372 120.55,165.039 118.5,165.5C 118.5,161.833 118.5,158.167 118.5,154.5C 118.5,154.167 118.5,153.833 118.5,153.5C 120.764,152.781 123.097,152.448 125.5,152.5 Z"/></g>
<g><path style="opacity:0.551" fill="#fefffe" d="M 373.5,153.5 C 373.573,155.027 372.906,156.027 371.5,156.5C 371.427,154.973 372.094,153.973 373.5,153.5 Z"/></g>
<g><path style="opacity:0.504" fill="#fefefe" d="M 452.5,153.5 C 453.906,153.973 454.573,154.973 454.5,156.5C 453.094,156.027 452.427,155.027 452.5,153.5 Z"/></g>
<g><path style="opacity:0.536" fill="#fefffe" d="M 560.5,153.5 C 561.906,153.973 562.573,154.973 562.5,156.5C 561.094,156.027 560.427,155.027 560.5,153.5 Z"/></g>
<g><path style="opacity:0.47" fill="#fefefe" d="M 609.5,153.5 C 607.167,156.5 604.5,159.167 601.5,161.5C 603.167,157.833 605.833,155.167 609.5,153.5 Z"/></g>
<g><path style="opacity:0.483" fill="#fefefe" d="M 740.5,153.5 C 740.262,155.404 739.262,156.738 737.5,157.5C 737.738,155.596 738.738,154.262 740.5,153.5 Z"/></g>
<g><path style="opacity:0.551" fill="#fefffe" d="M 965.5,153.5 C 965.573,155.027 964.906,156.027 963.5,156.5C 963.427,154.973 964.094,153.973 965.5,153.5 Z"/></g>
<g><path style="opacity:0.488" fill="#fefefe" d="M 1044.5,153.5 C 1045.91,153.973 1046.57,154.973 1046.5,156.5C 1045.09,156.027 1044.43,155.027 1044.5,153.5 Z"/></g>
<g><path style="opacity:0.473" fill="#fefefe" d="M 481.5,154.5 C 481.573,156.027 480.906,157.027 479.5,157.5C 479.427,155.973 480.094,154.973 481.5,154.5 Z"/></g>
<g><path style="opacity:0.482" fill="#fefffe" d="M 543.5,154.5 C 544.833,154.5 545.5,155.167 545.5,156.5C 544.5,156.167 543.833,155.5 543.5,154.5 Z"/></g>
<g><path style="opacity:0.514" fill="#fefefe" d="M 724.5,154.5 C 724.262,156.404 723.262,157.738 721.5,158.5C 721.738,156.596 722.738,155.262 724.5,154.5 Z"/></g>
<g><path style="opacity:0.698" fill="#1ba0e0" d="M 118.5,154.5 C 118.5,158.167 118.5,161.833 118.5,165.5C 108.88,168.655 99.2133,171.655 89.5,174.5C 92.8065,168.541 96.4732,162.875 100.5,157.5C 100.369,158.239 100.536,158.906 101,159.5C 101.671,158.748 102.504,158.414 103.5,158.5C 108.393,156.758 113.393,155.424 118.5,154.5 Z"/></g>
<g><path style="opacity:0.702" fill="#f2dfec" d="M 137.5,128.5 C 139.475,129.646 140.975,131.313 142,133.5C 142.168,141.521 142.668,149.521 143.5,157.5C 146.384,156.791 149.051,155.791 151.5,154.5C 162.117,150.961 172.783,147.628 183.5,144.5C 183.389,145.117 183.056,145.617 182.5,146C 190.095,146.44 194.762,150.273 196.5,157.5C 195.833,157.5 195.5,157.833 195.5,158.5C 194.178,158.33 193.011,158.663 192,159.5C 191.501,164.823 191.334,170.156 191.5,175.5C 187.164,177.947 182.497,179.613 177.5,180.5C 177.5,198.167 177.5,215.833 177.5,233.5C 176.5,233.5 175.5,233.5 174.5,233.5C 174.5,216.5 174.5,199.5 174.5,182.5C 174.829,176.794 174.495,171.128 173.5,165.5C 171.47,166.172 169.47,166.838 167.5,167.5C 161.205,168.932 155.205,170.932 149.5,173.5C 147.173,173.665 145.007,174.331 143,175.5C 142.501,181.157 142.334,186.824 142.5,192.5C 142.5,221.833 142.5,251.167 142.5,280.5C 143.429,285.765 142.096,290.265 138.5,294C 132.3,296.274 125.966,298.107 119.5,299.5C 116.646,300.205 113.979,301.205 111.5,302.5C 101.412,302.434 98.0791,297.767 101.5,288.5C 101.5,287.833 101.833,287.5 102.5,287.5C 107.696,285.435 113.029,283.768 118.5,282.5C 120.55,282.039 122.55,281.372 124.5,280.5C 125.491,276.555 125.824,272.555 125.5,268.5C 125.5,245.167 125.5,221.833 125.5,198.5C 125.5,192.833 125.5,187.167 125.5,181.5C 122.848,181.41 120.515,182.076 118.5,183.5C 102.811,187.73 87.4778,192.73 72.5,198.5C 65.4166,200.361 58.4166,202.528 51.5,205C 40.1793,205.832 36.846,200.999 41.5,190.5C 42.1667,190.167 42.8333,189.833 43.5,189.5C 51.9716,187.232 60.3049,184.565 68.5,181.5C 75.6726,179.625 82.6726,177.292 89.5,174.5C 99.2133,171.655 108.88,168.655 118.5,165.5C 120.55,165.039 122.55,164.372 124.5,163.5C 125.489,159.893 125.823,156.226 125.5,152.5C 125.334,145.825 125.5,139.158 126,132.5C 127.045,131.627 127.878,130.627 128.5,129.5C 131.391,128.597 134.391,128.264 137.5,128.5 Z"/></g>
<g><path style="opacity:0.702" fill="#bb67a7" d="M 218.5,158.5 C 215.881,158.232 213.381,158.565 211,159.5C 210.501,163.821 210.334,168.154 210.5,172.5C 207.421,172.26 204.421,172.593 201.5,173.5C 200.334,192.491 200.167,211.491 201,230.5C 205.524,226.155 209.024,221.155 211.5,215.5C 212.167,214.167 212.833,212.833 213.5,211.5C 216.305,209.208 218.638,206.541 220.5,203.5C 215.66,218.682 206.327,230.349 192.5,238.5C 191.5,217.511 191.167,196.511 191.5,175.5C 196.985,171.6 199.151,166.266 198,159.5C 197.329,158.748 196.496,158.414 195.5,158.5C 195.5,157.833 195.833,157.5 196.5,157.5C 200.309,157.013 204.142,156.679 208,156.5C 211.805,156.304 215.305,156.97 218.5,158.5 Z"/></g>
<g><path style="opacity:0.486" fill="#fefefe" d="M 371.5,156.5 C 371.25,158.674 370.25,160.341 368.5,161.5C 368.75,159.326 369.75,157.659 371.5,156.5 Z"/></g>
<g><path style="opacity:0.468" fill="#fefefe" d="M 562.5,156.5 C 565.295,159.091 564.628,160.425 560.5,160.5C 561.806,159.533 562.473,158.199 562.5,156.5 Z"/></g>
<g><path style="opacity:0.486" fill="#fefefe" d="M 963.5,156.5 C 963.25,158.674 962.25,160.341 960.5,161.5C 960.75,159.326 961.75,157.659 963.5,156.5 Z"/></g>
<g><path style="opacity:0.441" fill="#fefefe" d="M 386.5,157.5 C 386.573,159.027 385.906,160.027 384.5,160.5C 384.427,158.973 385.094,157.973 386.5,157.5 Z"/></g>
<g><path style="opacity:0.441" fill="#fefefe" d="M 978.5,157.5 C 978.573,159.027 977.906,160.027 976.5,160.5C 976.427,158.973 977.094,157.973 978.5,157.5 Z"/></g>
<g><path style="opacity:0.702" fill="#d8308b" d="M 195.5,158.5 C 196.496,158.414 197.329,158.748 198,159.5C 199.151,166.266 196.985,171.6 191.5,175.5C 191.334,170.156 191.501,164.823 192,159.5C 193.011,158.663 194.178,158.33 195.5,158.5 Z"/></g>
<g><path style="opacity:0.702" fill="#ec6f83" d="M 218.5,158.5 C 220.017,158.511 221.184,159.177 222,160.5C 226.873,175.062 226.373,189.395 220.5,203.5C 218.638,206.541 216.305,209.208 213.5,211.5C 217.822,200.226 219.322,188.559 218,176.5C 216.682,173.059 214.182,171.725 210.5,172.5C 210.334,168.154 210.501,163.821 211,159.5C 213.381,158.565 215.881,158.232 218.5,158.5 Z"/></g>
<g><path style="opacity:0.551" fill="#fefefe" d="M 440.5,158.5 C 441.906,158.973 442.573,159.973 442.5,161.5C 441.094,161.027 440.427,160.027 440.5,158.5 Z"/></g>
<g><path style="opacity:0.527" fill="#fefefe" d="M 455.5,158.5 C 457.539,159.911 458.539,161.911 458.5,164.5C 456.992,162.819 455.992,160.819 455.5,158.5 Z"/></g>
<g><path style="opacity:0.52" fill="#fefefe" d="M 736.5,158.5 C 736.573,160.027 735.906,161.027 734.5,161.5C 734.427,159.973 735.094,158.973 736.5,158.5 Z"/></g>
<g><path style="opacity:0.551" fill="#fefefe" d="M 1032.5,158.5 C 1033.91,158.973 1034.57,159.973 1034.5,161.5C 1033.09,161.027 1032.43,160.027 1032.5,158.5 Z"/></g>
<g><path style="opacity:0.527" fill="#fefefe" d="M 1047.5,158.5 C 1049.54,159.911 1050.54,161.911 1050.5,164.5C 1048.99,162.819 1047.99,160.819 1047.5,158.5 Z"/></g>
<g><path style="opacity:0.52" fill="#fefffe" d="M 494.5,159.5 C 494.573,161.027 493.906,162.027 492.5,162.5C 492.427,160.973 493.094,159.973 494.5,159.5 Z"/></g>
<g><path style="opacity:0.504" fill="#fefffe" d="M 720.5,159.5 C 720.573,161.027 719.906,162.027 718.5,162.5C 718.427,160.973 719.094,159.973 720.5,159.5 Z"/></g>
<g><path style="opacity:0.488" fill="#fefffe" d="M 548.5,160.5 C 549.906,160.973 550.573,161.973 550.5,163.5C 549.094,163.027 548.427,162.027 548.5,160.5 Z"/></g>
<g><path style="opacity:0.568" fill="#fefefe" d="M 442.5,161.5 C 443.906,161.973 444.573,162.973 444.5,164.5C 443.094,164.027 442.427,163.027 442.5,161.5 Z"/></g>
<g><path style="opacity:0.568" fill="#fefefe" d="M 1034.5,161.5 C 1035.91,161.973 1036.57,162.973 1036.5,164.5C 1035.09,164.027 1034.43,163.027 1034.5,161.5 Z"/></g>
<g><path style="opacity:0.504" fill="#fefefe" d="M 492.5,162.5 C 491.674,165.485 490.341,168.151 488.5,170.5C 488.794,167.246 490.127,164.579 492.5,162.5 Z"/></g>
<g><path style="opacity:0.567" fill="#fefffe" d="M 600.5,162.5 C 600.573,164.027 599.906,165.027 598.5,165.5C 598.427,163.973 599.094,162.973 600.5,162.5 Z"/></g>
<g><path style="opacity:0.473" fill="#fefefe" d="M 733.5,162.5 C 733.573,164.027 732.906,165.027 731.5,165.5C 731.427,163.973 732.094,162.973 733.5,162.5 Z"/></g>
<g><path style="opacity:0.483" fill="#fefefe" d="M 717.5,163.5 C 717.262,165.404 716.262,166.738 714.5,167.5C 714.738,165.596 715.738,164.262 717.5,163.5 Z"/></g>
<g><path style="opacity:0.525" fill="#fefefe" d="M 730.5,166.5 C 730.262,168.404 729.262,169.738 727.5,170.5C 727.738,168.596 728.738,167.262 730.5,166.5 Z"/></g>
<g><path style="opacity:0.459" fill="#fefffe" d="M 380.5,167.5 C 380.405,169.786 379.738,171.786 378.5,173.5C 378.259,171.102 378.926,169.102 380.5,167.5 Z"/></g>
<g><path style="opacity:0.459" fill="#fefffe" d="M 972.5,167.5 C 972.405,169.786 971.738,171.786 970.5,173.5C 970.259,171.102 970.926,169.102 972.5,167.5 Z"/></g>
<g><path style="opacity:0.702" fill="#bd69a7" d="M 167.5,167.5 C 167.5,169.5 167.5,171.5 167.5,173.5C 165.5,173.833 163.5,174.167 161.5,174.5C 161.5,178.5 161.5,182.5 161.5,186.5C 161.167,186.5 160.833,186.5 160.5,186.5C 157.421,187.304 154.421,188.304 151.5,189.5C 152.113,183.729 151.446,178.396 149.5,173.5C 155.205,170.932 161.205,168.932 167.5,167.5 Z"/></g>
<g><path style="opacity:0.457" fill="#fefefe" d="M 713.5,168.5 C 713.573,170.027 712.906,171.027 711.5,171.5C 711.427,169.973 712.094,168.973 713.5,168.5 Z"/></g>
<g><path style="opacity:0.493" fill="#fefefe" d="M 727.5,170.5 C 727.262,172.404 726.262,173.738 724.5,174.5C 724.738,172.596 725.738,171.262 727.5,170.5 Z"/></g>
<g><path style="opacity:0.702" fill="#e22e83" d="M 174.5,182.5 C 172.079,182.878 169.746,183.545 167.5,184.5C 167.5,180.833 167.5,177.167 167.5,173.5C 167.5,171.5 167.5,169.5 167.5,167.5C 169.47,166.838 171.47,166.172 173.5,165.5C 174.495,171.128 174.829,176.794 174.5,182.5 Z"/></g>
<g><path style="opacity:0.702" fill="#1f9ee0" d="M 210.5,172.5 C 210.171,187.01 210.504,201.343 211.5,215.5C 209.024,221.155 205.524,226.155 201,230.5C 200.167,211.491 200.334,192.491 201.5,173.5C 204.421,172.593 207.421,172.26 210.5,172.5 Z"/></g>
<g><path style="opacity:0.702" fill="#fdea07" d="M 210.5,172.5 C 214.182,171.725 216.682,173.059 218,176.5C 219.322,188.559 217.822,200.226 213.5,211.5C 212.833,212.833 212.167,214.167 211.5,215.5C 210.504,201.343 210.171,187.01 210.5,172.5 Z"/></g>
<g><path style="opacity:0.52" fill="#fefefe" d="M 710.5,172.5 C 710.573,174.027 709.906,175.027 708.5,175.5C 708.427,173.973 709.094,172.973 710.5,172.5 Z"/></g>
<g><path style="opacity:0.702" fill="#d92b89" d="M 149.5,173.5 C 151.446,178.396 152.113,183.729 151.5,189.5C 148.421,190.304 145.421,191.304 142.5,192.5C 142.334,186.824 142.501,181.157 143,175.5C 145.007,174.331 147.173,173.665 149.5,173.5 Z"/></g>
<g><path style="opacity:0.702" fill="#eb6c83" d="M 167.5,173.5 C 167.5,177.167 167.5,180.833 167.5,184.5C 165.421,184.971 163.421,185.637 161.5,186.5C 161.5,182.5 161.5,178.5 161.5,174.5C 163.5,174.167 165.5,173.833 167.5,173.5 Z"/></g>
<g><path style="opacity:0.524" fill="#fefefe" d="M 448.5,175.5 C 449.451,176.919 449.784,178.585 449.5,180.5C 425.158,180.833 400.824,180.5 376.5,179.5C 376.624,178.893 376.957,178.56 377.5,178.5C 400.994,179.498 424.661,179.831 448.5,179.5C 448.5,178.167 448.5,176.833 448.5,175.5 Z"/></g>
<g><path style="opacity:0.535" fill="#fefefe" d="M 723.5,175.5 C 723.573,177.027 722.906,178.027 721.5,178.5C 721.427,176.973 722.094,175.973 723.5,175.5 Z"/></g>
<g><path style="opacity:0.524" fill="#fefefe" d="M 1040.5,175.5 C 1041.45,176.919 1041.78,178.585 1041.5,180.5C 1017.16,180.833 992.824,180.5 968.5,179.5C 968.624,178.893 968.957,178.56 969.5,178.5C 992.994,179.498 1016.66,179.831 1040.5,179.5C 1040.5,178.167 1040.5,176.833 1040.5,175.5 Z"/></g>
<g><path style="opacity:0.504" fill="#fefefe" d="M 707.5,176.5 C 707.262,178.404 706.262,179.738 704.5,180.5C 704.738,178.596 705.738,177.262 707.5,176.5 Z"/></g>
<g><path style="opacity:0.504" fill="#fefffe" d="M 720.5,179.5 C 720.573,181.027 719.906,182.027 718.5,182.5C 718.427,180.973 719.094,179.973 720.5,179.5 Z"/></g>
<g><path style="opacity:0.473" fill="#fefefe" d="M 703.5,181.5 C 703.573,183.027 702.906,184.027 701.5,184.5C 701.427,182.973 702.094,181.973 703.5,181.5 Z"/></g>
<g><path style="opacity:0.702" fill="#ec7182" d="M 174.5,182.5 C 174.5,199.5 174.5,216.5 174.5,233.5C 172.046,234.227 169.713,235.227 167.5,236.5C 167.5,219.167 167.5,201.833 167.5,184.5C 169.746,183.545 172.079,182.878 174.5,182.5 Z"/></g>
<g><path style="opacity:0.457" fill="#fefefe" d="M 717.5,183.5 C 717.573,185.027 716.906,186.027 715.5,186.5C 715.427,184.973 716.094,183.973 717.5,183.5 Z"/></g>
<g><path style="opacity:0.702" fill="#bd6aa8" d="M 118.5,183.5 C 118.5,185.5 118.5,187.5 118.5,189.5C 102.107,194.298 85.7737,199.298 69.5,204.5C 70.7017,202.608 72.035,200.774 73.5,199C 73.2716,198.601 72.9382,198.435 72.5,198.5C 87.4778,192.73 102.811,187.73 118.5,183.5 Z"/></g>
<g><path style="opacity:0.702" fill="#fdeb07" d="M 167.5,184.5 C 167.5,201.833 167.5,219.167 167.5,236.5C 167.5,236.833 167.5,237.167 167.5,237.5C 165.11,238.891 163.443,240.891 162.5,243.5C 161.503,224.674 161.17,205.674 161.5,186.5C 163.421,185.637 165.421,184.971 167.5,184.5 Z"/></g>
<g><path style="opacity:0.551" fill="#fefefe" d="M 700.5,185.5 C 700.573,187.027 699.906,188.027 698.5,188.5C 698.427,186.973 699.094,185.973 700.5,185.5 Z"/></g>
<g><path style="opacity:0.702" fill="#e22d83" d="M 125.5,198.5 C 123.035,198.767 120.701,199.434 118.5,200.5C 118.5,196.833 118.5,193.167 118.5,189.5C 118.5,187.5 118.5,185.5 118.5,183.5C 120.515,182.076 122.848,181.41 125.5,181.5C 125.5,187.167 125.5,192.833 125.5,198.5 Z"/></g>
<g><path style="opacity:0.702" fill="#059fe2" d="M 160.5,186.5 C 160.5,207.5 160.5,228.5 160.5,249.5C 160.5,249.833 160.5,250.167 160.5,250.5C 156.088,252.418 153.254,255.751 152,260.5C 151.5,236.836 151.333,213.169 151.5,189.5C 154.421,188.304 157.421,187.304 160.5,186.5 Z"/></g>
<g><path style="opacity:0.702" fill="#0fb2c4" d="M 160.5,186.5 C 160.833,186.5 161.167,186.5 161.5,186.5C 161.17,205.674 161.503,224.674 162.5,243.5C 161.85,245.435 161.517,247.435 161.5,249.5C 161.167,249.5 160.833,249.5 160.5,249.5C 160.5,228.5 160.5,207.5 160.5,186.5 Z"/></g>
<g><path style="opacity:0.504" fill="#fefefe" d="M 714.5,187.5 C 714.262,189.404 713.262,190.738 711.5,191.5C 711.738,189.596 712.738,188.262 714.5,187.5 Z"/></g>
<g><path style="opacity:0.272" fill="#fefefe" d="M 462.5,189.5 C 462.5,190.5 462.5,191.5 462.5,192.5C 434.5,192.5 406.5,192.5 378.5,192.5C 378.5,194.167 378.5,195.833 378.5,197.5C 377.539,195.735 377.205,193.735 377.5,191.5C 406.059,192.145 434.392,191.479 462.5,189.5 Z"/></g>
<g><path style="opacity:0.514" fill="#fefefe" d="M 697.5,189.5 C 697.262,191.404 696.262,192.738 694.5,193.5C 694.738,191.596 695.738,190.262 697.5,189.5 Z"/></g>
<g><path style="opacity:0.272" fill="#fefefe" d="M 1054.5,189.5 C 1054.5,190.5 1054.5,191.5 1054.5,192.5C 1026.5,192.5 998.5,192.5 970.5,192.5C 970.5,194.167 970.5,195.833 970.5,197.5C 969.539,195.735 969.205,193.735 969.5,191.5C 998.059,192.145 1026.39,191.479 1054.5,189.5 Z"/></g>
<g><path style="opacity:0.702" fill="#eb6b83" d="M 118.5,189.5 C 118.5,193.167 118.5,196.833 118.5,200.5C 117.209,200.263 116.209,200.596 115.5,201.5C 111.297,202.27 107.297,203.604 103.5,205.5C 103.5,204.5 103.5,203.5 103.5,202.5C 90.288,205.721 77.288,209.721 64.5,214.5C 64.1667,214.167 63.8333,213.833 63.5,213.5C 65.5258,210.482 67.5258,207.482 69.5,204.5C 85.7737,199.298 102.107,194.298 118.5,189.5 Z"/></g>
<g><path style="opacity:0.702" fill="#bb67a6" d="M 151.5,189.5 C 151.333,213.169 151.5,236.836 152,260.5C 153.254,255.751 156.088,252.418 160.5,250.5C 157.654,255.088 157.988,259.422 161.5,263.5C 161.5,268.833 161.5,274.167 161.5,279.5C 156.29,277.123 153.123,273.123 152,267.5C 151.5,274.826 151.334,282.159 151.5,289.5C 149.506,285.506 146.506,282.506 142.5,280.5C 142.5,251.167 142.5,221.833 142.5,192.5C 145.421,191.304 148.421,190.304 151.5,189.5 Z"/></g>
<g><path style="opacity:0.702" fill="#e42c81" d="M 41.5,186.5 C 41.5,187.833 41.5,189.167 41.5,190.5C 36.846,200.999 40.1793,205.832 51.5,205C 58.4166,202.528 65.4166,200.361 72.5,198.5C 72.9382,198.435 73.2716,198.601 73.5,199C 72.035,200.774 70.7017,202.608 69.5,204.5C 67.5258,207.482 65.5258,210.482 63.5,213.5C 63.8333,213.833 64.1667,214.167 64.5,214.5C 77.288,209.721 90.288,205.721 103.5,202.5C 103.5,203.5 103.5,204.5 103.5,205.5C 85.367,211.766 67.0336,217.433 48.5,222.5C 46.4523,222.328 44.4523,221.995 42.5,221.5C 33.8438,216.739 30.6772,209.405 33,199.5C 35.8572,195.102 38.6905,190.768 41.5,186.5 Z"/></g>
<g><path style="opacity:0.551" fill="#fefefe" d="M 710.5,192.5 C 710.573,194.027 709.906,195.027 708.5,195.5C 708.427,193.973 709.094,192.973 710.5,192.5 Z"/></g>
<g><path style="opacity:0.504" fill="#fefffe" d="M 693.5,194.5 C 693.573,196.027 692.906,197.027 691.5,197.5C 691.427,195.973 692.094,194.973 693.5,194.5 Z"/></g>
<g><path style="opacity:0.504" fill="#fefffe" d="M 707.5,196.5 C 707.573,198.027 706.906,199.027 705.5,199.5C 705.427,197.973 706.094,196.973 707.5,196.5 Z"/></g>
<g><path style="opacity:0.702" fill="#eb6b83" d="M 125.5,198.5 C 125.5,221.833 125.5,245.167 125.5,268.5C 123.167,269.167 120.833,269.833 118.5,270.5C 118.5,247.167 118.5,223.833 118.5,200.5C 120.701,199.434 123.035,198.767 125.5,198.5 Z"/></g>
<g><path style="opacity:0.483" fill="#fefefe" d="M 690.5,198.5 C 690.262,200.404 689.262,201.738 687.5,202.5C 687.738,200.596 688.738,199.262 690.5,198.5 Z"/></g>
<g><path style="opacity:0.702" fill="#fdd03a" d="M 115.5,201.5 C 116.209,200.596 117.209,200.263 118.5,200.5C 118.5,223.833 118.5,247.167 118.5,270.5C 118.167,270.5 117.833,270.5 117.5,270.5C 118.156,247.142 117.49,224.142 115.5,201.5 Z"/></g>
<g><path style="opacity:0.499" fill="#fefffe" d="M 488.5,200.5 C 490.341,202.849 491.674,205.515 492.5,208.5C 490.127,206.421 488.794,203.754 488.5,200.5 Z"/></g>
<g><path style="opacity:0.457" fill="#fefefe" d="M 704.5,200.5 C 704.573,202.027 703.906,203.027 702.5,203.5C 702.427,201.973 703.094,200.973 704.5,200.5 Z"/></g>
<g><path style="opacity:0.52" fill="#fefefe" d="M 882.5,200.5 C 882.573,202.027 881.906,203.027 880.5,203.5C 880.427,201.973 881.094,200.973 882.5,200.5 Z"/></g>
<g><path style="opacity:0.689" fill="#fdeb02" d="M 115.5,201.5 C 117.49,224.142 118.156,247.142 117.5,270.5C 111.469,271.856 106.802,275.19 103.5,280.5C 103.5,255.5 103.5,230.5 103.5,205.5C 107.297,203.604 111.297,202.27 115.5,201.5 Z"/></g>
<g><path style="opacity:0.457" fill="#fefefe" d="M 686.5,203.5 C 686.573,205.027 685.906,206.027 684.5,206.5C 684.427,204.973 685.094,203.973 686.5,203.5 Z"/></g>
<g><path style="opacity:0.551" fill="#fefefe" d="M 880.5,203.5 C 880.573,205.027 879.906,206.027 878.5,206.5C 878.427,204.973 879.094,203.973 880.5,203.5 Z"/></g>
<g><path style="opacity:0.504" fill="#fefefe" d="M 701.5,204.5 C 701.262,206.404 700.262,207.738 698.5,208.5C 698.738,206.596 699.738,205.262 701.5,204.5 Z"/></g>
<g><path style="opacity:0.504" fill="#fefffe" d="M 382.5,207.5 C 383.906,207.973 384.573,208.973 384.5,210.5C 383.094,210.027 382.427,209.027 382.5,207.5 Z"/></g>
<g><path style="opacity:0.453" fill="#fefefe" d="M 447.5,208.5 C 446.448,208.351 445.448,208.517 444.5,209C 443.837,210.518 442.837,211.685 441.5,212.5C 441.834,208.12 443.834,206.786 447.5,208.5 Z"/></g>
<g><path style="opacity:0.546" fill="#fefefe" d="M 555.5,208.5 C 553.708,208.366 552.042,208.699 550.5,209.5C 550.791,208.351 551.624,207.684 553,207.5C 554.07,207.528 554.903,207.861 555.5,208.5 Z"/></g>
<g><path style="opacity:0.52" fill="#fefefe" d="M 683.5,207.5 C 683.573,209.027 682.906,210.027 681.5,210.5C 681.427,208.973 682.094,207.973 683.5,207.5 Z"/></g>
<g><path style="opacity:0.425" fill="#fefefe" d="M 894.5,207.5 C 894.573,209.027 893.906,210.027 892.5,210.5C 892.427,208.973 893.094,207.973 894.5,207.5 Z"/></g>
<g><path style="opacity:0.504" fill="#fefffe" d="M 974.5,207.5 C 975.906,207.973 976.573,208.973 976.5,210.5C 975.094,210.027 974.427,209.027 974.5,207.5 Z"/></g>
<g><path style="opacity:0.453" fill="#fefefe" d="M 1039.5,208.5 C 1038.45,208.351 1037.45,208.517 1036.5,209C 1035.84,210.518 1034.84,211.685 1033.5,212.5C 1033.83,208.12 1035.83,206.786 1039.5,208.5 Z"/></g>
<g><path style="opacity:0.457" fill="#fefefe" d="M 492.5,208.5 C 493.906,208.973 494.573,209.973 494.5,211.5C 493.094,211.027 492.427,210.027 492.5,208.5 Z"/></g>
<g><path style="opacity:0.479" fill="#fefefe" d="M 550.5,209.5 C 550.771,211.38 550.104,212.713 548.5,213.5C 548.66,211.847 549.326,210.514 550.5,209.5 Z"/></g>
<g><path style="opacity:0.535" fill="#fefefe" d="M 384.5,210.5 C 385.906,210.973 386.573,211.973 386.5,213.5C 385.094,213.027 384.427,212.027 384.5,210.5 Z"/></g>
<g><path style="opacity:0.583" fill="#fefefe" d="M 454.5,210.5 C 456.552,211.053 456.885,212.053 455.5,213.5C 455.443,212.391 455.11,211.391 454.5,210.5 Z"/></g>
<g><path style="opacity:0.58" fill="#fefefe" d="M 562.5,210.5 C 563.586,210.62 564.253,211.287 564.5,212.5C 564.457,213.416 564.124,214.083 563.5,214.5C 563.567,213.041 563.234,211.708 562.5,210.5 Z"/></g>
<g><path style="opacity:0.493" fill="#fefefe" d="M 892.5,210.5 C 892.262,212.404 891.262,213.738 889.5,214.5C 889.738,212.596 890.738,211.262 892.5,210.5 Z"/></g>
<g><path style="opacity:0.535" fill="#fefefe" d="M 976.5,210.5 C 977.906,210.973 978.573,211.973 978.5,213.5C 977.094,213.027 976.427,212.027 976.5,210.5 Z"/></g>
<g><path style="opacity:0.583" fill="#fefefe" d="M 1046.5,210.5 C 1048.55,211.053 1048.89,212.053 1047.5,213.5C 1047.44,212.391 1047.11,211.391 1046.5,210.5 Z"/></g>
<g><path style="opacity:0.322" fill="#fefefe" d="M 680.5,211.5 C 678.701,215.903 678.034,220.57 678.5,225.5C 677.355,221.689 677.188,217.689 678,213.5C 678.708,212.619 679.542,211.953 680.5,211.5 Z"/></g>
<g><path style="opacity:0.457" fill="#fefefe" d="M 441.5,212.5 C 441.573,214.027 440.906,215.027 439.5,215.5C 439.427,213.973 440.094,212.973 441.5,212.5 Z"/></g>
<g><path style="opacity:0.538" fill="#fefffe" d="M 495.5,212.5 C 497.833,214.167 499.833,216.167 501.5,218.5C 498.5,217.5 496.5,215.5 495.5,212.5 Z"/></g>
<g><path style="opacity:0.64" fill="#fefffe" d="M 756.5,212.5 C 762.167,212.5 767.833,212.5 773.5,212.5C 773.818,217.032 773.485,221.366 772.5,225.5C 772.5,221.5 772.5,217.5 772.5,213.5C 766.974,213.821 761.64,213.488 756.5,212.5 Z"/></g>
<g><path style="opacity:0.457" fill="#fefefe" d="M 1033.5,212.5 C 1033.57,214.027 1032.91,215.027 1031.5,215.5C 1031.43,213.973 1032.09,212.973 1033.5,212.5 Z"/></g>
<g><path style="opacity:0.457" fill="#fefefe" d="M 370.5,213.5 C 371.906,213.973 372.573,214.973 372.5,216.5C 371.094,216.027 370.427,215.027 370.5,213.5 Z"/></g>
<g><path style="opacity:0.457" fill="#fefefe" d="M 479.5,213.5 C 480.906,213.973 481.573,214.973 481.5,216.5C 480.094,216.027 479.427,215.027 479.5,213.5 Z"/></g>
<g><path style="opacity:0.52" fill="#fefffe" d="M 871.5,213.5 C 871.027,214.906 870.027,215.573 868.5,215.5C 868.973,214.094 869.973,213.427 871.5,213.5 Z"/></g>
<g><path style="opacity:0.457" fill="#fefefe" d="M 962.5,213.5 C 963.906,213.973 964.573,214.973 964.5,216.5C 963.094,216.027 962.427,215.027 962.5,213.5 Z"/></g>
<g><path style="opacity:0.504" fill="#fefffe" d="M 868.5,215.5 C 868.027,216.906 867.027,217.573 865.5,217.5C 865.973,216.094 866.973,215.427 868.5,215.5 Z"/></g>
<g><path style="opacity:0.453" fill="#fefefe" d="M 888.5,215.5 C 887.5,218.5 885.5,220.5 882.5,221.5C 884.167,219.167 886.167,217.167 888.5,215.5 Z"/></g>
<g><path style="opacity:0.441" fill="#fefefe" d="M 372.5,216.5 C 373.906,216.973 374.573,217.973 374.5,219.5C 373.094,219.027 372.427,218.027 372.5,216.5 Z"/></g>
<g><path style="opacity:0.441" fill="#fefefe" d="M 481.5,216.5 C 482.906,216.973 483.573,217.973 483.5,219.5C 482.094,219.027 481.427,218.027 481.5,216.5 Z"/></g>
<g><path style="opacity:0.441" fill="#fefefe" d="M 964.5,216.5 C 965.906,216.973 966.573,217.973 966.5,219.5C 965.094,219.027 964.427,218.027 964.5,216.5 Z"/></g>
<g><path style="opacity:0.425" fill="#fefefe" d="M 391.5,218.5 C 393.027,218.427 394.027,219.094 394.5,220.5C 392.973,220.573 391.973,219.906 391.5,218.5 Z"/></g>
<g><path style="opacity:0.488" fill="#fefefe" d="M 436.5,218.5 C 436.027,219.906 435.027,220.573 433.5,220.5C 433.973,219.094 434.973,218.427 436.5,218.5 Z"/></g>
<g><path style="opacity:0.567" fill="#fefffe" d="M 543.5,218.5 C 543.027,219.906 542.027,220.573 540.5,220.5C 540.973,219.094 541.973,218.427 543.5,218.5 Z"/></g>
<g><path style="opacity:0.473" fill="#fefffe" d="M 561.5,218.5 C 561.573,220.027 560.906,221.027 559.5,221.5C 559.427,219.973 560.094,218.973 561.5,218.5 Z"/></g>
<g><path style="opacity:0.425" fill="#fefefe" d="M 983.5,218.5 C 985.027,218.427 986.027,219.094 986.5,220.5C 984.973,220.573 983.973,219.906 983.5,218.5 Z"/></g>
<g><path style="opacity:0.488" fill="#fefefe" d="M 1028.5,218.5 C 1028.03,219.906 1027.03,220.573 1025.5,220.5C 1025.97,219.094 1026.97,218.427 1028.5,218.5 Z"/></g>
<g><path style="opacity:0.555" fill="#fefefe" d="M 1115.5,221.5 C 1114.61,220.89 1113.61,220.557 1112.5,220.5C 1114.65,217.666 1115.65,217.999 1115.5,221.5 Z"/></g>
<g><path style="opacity:0.473" fill="#fefefe" d="M 433.5,220.5 C 433.027,221.906 432.027,222.573 430.5,222.5C 430.973,221.094 431.973,220.427 433.5,220.5 Z"/></g>
<g><path style="opacity:0.542" fill="#fefefe" d="M 451.5,220.5 C 449.833,224.167 447.167,226.833 443.5,228.5C 445.833,225.5 448.5,222.833 451.5,220.5 Z"/></g>
<g><path style="opacity:0.473" fill="#fefffe" d="M 504.5,220.5 C 506.027,220.427 507.027,221.094 507.5,222.5C 505.973,222.573 504.973,221.906 504.5,220.5 Z"/></g>
<g><path style="opacity:0.473" fill="#fefefe" d="M 1025.5,220.5 C 1025.03,221.906 1024.03,222.573 1022.5,222.5C 1022.97,221.094 1023.97,220.427 1025.5,220.5 Z"/></g>
<g><path style="opacity:0.542" fill="#fefefe" d="M 1043.5,220.5 C 1041.83,224.167 1039.17,226.833 1035.5,228.5C 1037.83,225.5 1040.5,222.833 1043.5,220.5 Z"/></g>
<g><path style="opacity:0.462" fill="#fefefe" d="M 376.5,221.5 C 378.5,222.833 380.167,224.5 381.5,226.5C 378.833,225.833 377.167,224.167 376.5,221.5 Z"/></g>
<g><path style="opacity:0.462" fill="#fefefe" d="M 485.5,221.5 C 487.5,222.833 489.167,224.5 490.5,226.5C 487.833,225.833 486.167,224.167 485.5,221.5 Z"/></g>
<g><path style="opacity:0.462" fill="#fefefe" d="M 968.5,221.5 C 970.5,222.833 972.167,224.5 973.5,226.5C 970.833,225.833 969.167,224.167 968.5,221.5 Z"/></g>
<g><path style="opacity:0.469" fill="#fefefe" d="M 558.5,222.5 C 557.833,225.167 556.167,226.833 553.5,227.5C 554.833,225.5 556.5,223.833 558.5,222.5 Z"/></g>
<g><path style="opacity:0.488" fill="#fefefe" d="M 880.5,223.5 C 880.027,224.906 879.027,225.573 877.5,225.5C 877.973,224.094 878.973,223.427 880.5,223.5 Z"/></g>
<g><path style="opacity:0.535" fill="#fefefe" d="M 877.5,225.5 C 877.027,226.906 876.027,227.573 874.5,227.5C 874.973,226.094 875.973,225.427 877.5,225.5 Z"/></g>
<g><path style="opacity:0.457" fill="#fefefe" d="M 383.5,228.5 C 385.027,228.427 386.027,229.094 386.5,230.5C 384.973,230.573 383.973,229.906 383.5,228.5 Z"/></g>
<g><path style="opacity:0.457" fill="#fefefe" d="M 492.5,228.5 C 494.027,228.427 495.027,229.094 495.5,230.5C 493.973,230.573 492.973,229.906 492.5,228.5 Z"/></g>
<g><path style="opacity:0.582" fill="#fefefe" d="M 552.5,228.5 C 552.027,229.906 551.027,230.573 549.5,230.5C 549.973,229.094 550.973,228.427 552.5,228.5 Z"/></g>
<g><path style="opacity:0.457" fill="#fefefe" d="M 975.5,228.5 C 977.027,228.427 978.027,229.094 978.5,230.5C 976.973,230.573 975.973,229.906 975.5,228.5 Z"/></g>
<g><path style="opacity:0.521" fill="#fefefe" d="M 1077.5,228.5 C 1079.83,230.167 1081.83,232.167 1083.5,234.5C 1080.5,233.5 1078.5,231.5 1077.5,228.5 Z"/></g>
<g><path style="opacity:0.441" fill="#fefefe" d="M 442.5,229.5 C 442.027,230.906 441.027,231.573 439.5,231.5C 439.973,230.094 440.973,229.427 442.5,229.5 Z"/></g>
<g><path style="opacity:0.441" fill="#fefefe" d="M 1034.5,229.5 C 1034.03,230.906 1033.03,231.573 1031.5,231.5C 1031.97,230.094 1032.97,229.427 1034.5,229.5 Z"/></g>
<g><path style="opacity:0.48" fill="#fefffe" d="M 1118.5,229.5 C 1119.53,229.897 1119.69,230.563 1119,231.5C 1117.67,232.582 1116.17,233.249 1114.5,233.5C 1115.83,232.167 1117.17,230.833 1118.5,229.5 Z"/></g>
<g><path style="opacity:0.441" fill="#fefefe" d="M 386.5,230.5 C 388.027,230.427 389.027,231.094 389.5,232.5C 387.973,232.573 386.973,231.906 386.5,230.5 Z"/></g>
<g><path style="opacity:0.441" fill="#fefefe" d="M 495.5,230.5 C 497.027,230.427 498.027,231.094 498.5,232.5C 496.973,232.573 495.973,231.906 495.5,230.5 Z"/></g>
<g><path style="opacity:0.441" fill="#fefefe" d="M 978.5,230.5 C 980.027,230.427 981.027,231.094 981.5,232.5C 979.973,232.573 978.973,231.906 978.5,230.5 Z"/></g>
<g><path style="opacity:0.702" fill="#b96ba9" d="M 174.5,233.5 C 174.826,237.884 174.492,242.217 173.5,246.5C 171.591,247.348 169.591,247.682 167.5,247.5C 167.5,244.167 167.5,240.833 167.5,237.5C 167.5,237.167 167.5,236.833 167.5,236.5C 169.713,235.227 172.046,234.227 174.5,233.5 Z"/></g>
<g><path style="opacity:0.702" fill="#0da0e1" d="M 167.5,237.5 C 167.5,240.833 167.5,244.167 167.5,247.5C 165.421,247.971 163.421,248.637 161.5,249.5C 161.517,247.435 161.85,245.435 162.5,243.5C 163.443,240.891 165.11,238.891 167.5,237.5 Z"/></g>
<g><path style="opacity:0.468" fill="#e5097d" d="M 239.5,234.5 C 223.054,262.743 198.387,278.41 165.5,281.5C 180.269,276.782 193.603,269.449 205.5,259.5C 218.52,253.483 229.853,245.15 239.5,234.5 Z"/></g>
<g><path style="opacity:0.702" fill="#eb6d83" d="M 205.5,259.5 C 193.603,269.449 180.269,276.782 165.5,281.5C 164.167,281.5 162.833,281.5 161.5,281.5C 161.5,280.833 161.5,280.167 161.5,279.5C 161.5,274.167 161.5,268.833 161.5,263.5C 164.096,264.265 166.763,264.599 169.5,264.5C 169.918,265.222 170.584,265.722 171.5,266C 183.291,266.387 194.624,264.221 205.5,259.5 Z"/></g>
<g><path style="opacity:0.702" fill="#bd67a6" d="M 125.5,268.5 C 125.824,272.555 125.491,276.555 124.5,280.5C 122.55,281.372 120.55,282.039 118.5,282.5C 118.5,278.5 118.5,274.5 118.5,270.5C 120.833,269.833 123.167,269.167 125.5,268.5 Z"/></g>
<g><path style="opacity:0.681" fill="#109fe1" d="M 161.5,279.5 C 161.5,280.167 161.5,280.833 161.5,281.5C 161.077,288.377 157.744,293.044 151.5,295.5C 151.5,293.5 151.5,291.5 151.5,289.5C 151.334,282.159 151.5,274.826 152,267.5C 153.123,273.123 156.29,277.123 161.5,279.5 Z"/></g>
<g><path style="opacity:0.699" fill="#1ba1df" d="M 117.5,270.5 C 117.833,270.5 118.167,270.5 118.5,270.5C 118.5,274.5 118.5,278.5 118.5,282.5C 113.029,283.768 107.696,285.435 102.5,287.5C 102.5,286.167 102.5,284.833 102.5,283.5C 102.557,282.391 102.89,281.391 103.5,280.5C 106.802,275.19 111.469,271.856 117.5,270.5 Z"/></g>
<g><path style="opacity:0.702" fill="#d92e8a" d="M 142.5,280.5 C 146.506,282.506 149.506,285.506 151.5,289.5C 151.5,291.5 151.5,293.5 151.5,295.5C 141.528,298.49 131.528,301.49 121.5,304.5C 121.167,304.5 120.833,304.5 120.5,304.5C 119.962,302.883 119.629,301.216 119.5,299.5C 125.966,298.107 132.3,296.274 138.5,294C 142.096,290.265 143.429,285.765 142.5,280.5 Z"/></g>
<g><path style="opacity:0.679" fill="#fdeb04" d="M 102.5,283.5 C 102.5,284.833 102.5,286.167 102.5,287.5C 101.833,287.5 101.5,287.833 101.5,288.5C 95.5084,291.131 92.5084,295.797 92.5,302.5C 93.2176,309.956 96.8843,315.29 103.5,318.5C 89.0196,323.7 80.3529,318.7 77.5,303.5C 78.1195,298.094 80.4528,293.594 84.5,290C 90.3488,287.329 96.3488,285.162 102.5,283.5 Z"/></g>
<g><path style="opacity:0.702" fill="#ec6e83" d="M 101.5,288.5 C 98.0791,297.767 101.412,302.434 111.5,302.5C 114.123,304.265 117.123,304.932 120.5,304.5C 120.833,304.5 121.167,304.5 121.5,304.5C 123.206,307.204 125.539,309.204 128.5,310.5C 128.167,310.833 127.833,311.167 127.5,311.5C 119.887,313.343 112.554,315.676 105.5,318.5C 104.833,318.5 104.167,318.5 103.5,318.5C 96.8843,315.29 93.2176,309.956 92.5,302.5C 92.5084,295.797 95.5084,291.131 101.5,288.5 Z"/></g>
<g><path style="opacity:0.577" fill="#e40f7d" d="M 151.5,295.5 C 151.605,301.887 148.939,306.721 143.5,310C 133.56,313.202 123.56,316.202 113.5,319C 110.633,319.801 107.966,319.634 105.5,318.5C 112.554,315.676 119.887,313.343 127.5,311.5C 127.833,311.167 128.167,310.833 128.5,310.5C 125.539,309.204 123.206,307.204 121.5,304.5C 131.528,301.49 141.528,298.49 151.5,295.5 Z"/></g>
<g><path style="opacity:0.702" fill="#c06da8" d="M 119.5,299.5 C 119.629,301.216 119.962,302.883 120.5,304.5C 117.123,304.932 114.123,304.265 111.5,302.5C 113.979,301.205 116.646,300.205 119.5,299.5 Z"/></g>
<g><path style="opacity:0.282" fill="#d6d6d6" d="M 1117.5,314.5 C 1120.11,317.781 1119.11,319.281 1114.5,319C 1115.88,317.729 1116.88,316.229 1117.5,314.5 Z"/></g>
</svg>
