<?xml version="1.0" encoding="UTF-8"?>
<svg xmlns="http://www.w3.org/2000/svg" xmlns:xlink="http://www.w3.org/1999/xlink" width="1136px" height="336px" viewBox="0 0 852 252" version="1.1">
<defs>
<filter id="alpha" filterUnits="objectBoundingBox" x="0%" y="0%" width="100%" height="100%">
  <feColorMatrix type="matrix" in="SourceGraphic" values="0 0 0 0 1 0 0 0 0 1 0 0 0 0 1 0 0 0 1 0"/>
</filter>
<mask id="mask0">
  <g filter="url(#alpha)">
<rect x="0" y="0" width="852" height="252" style="fill:rgb(0%,0%,0%);fill-opacity:0.67451;stroke:none;"/>
  </g>
</mask>
<clipPath id="clip1">
  <rect x="0" y="0" width="852" height="252"/>
</clipPath>
<g id="surface5" clip-path="url(#clip1)">
<path style=" stroke:none;fill-rule:evenodd;fill:rgb(1.176471%,62.352941%,88.627451%);fill-opacity:1;" d="M 126.375 -0.375 C 128.875 -0.375 131.375 -0.375 133.875 -0.375 C 143.136719 4.292969 145.261719 11.292969 140.25 20.625 C 138.542969 23.308594 136.667969 25.808594 134.625 28.125 C 136.996094 19.109375 133.746094 13.359375 124.875 10.875 C 122.859375 10.75 120.859375 10.875 118.875 11.25 C 118.1875 11.457031 117.6875 11.832031 117.375 12.375 C 116.542969 12.417969 115.792969 12.667969 115.125 13.125 C 115.125 12.625 115.125 12.125 115.125 11.625 C 117.535156 6.261719 121.285156 2.261719 126.375 -0.375 Z M 126.375 -0.375 "/>
</g>
<mask id="mask1">
  <g filter="url(#alpha)">
<rect x="0" y="0" width="852" height="252" style="fill:rgb(0%,0%,0%);fill-opacity:0.701961;stroke:none;"/>
  </g>
</mask>
<clipPath id="clip2">
  <rect x="0" y="0" width="852" height="252"/>
</clipPath>
<g id="surface8" clip-path="url(#clip2)">
<path style=" stroke:none;fill-rule:evenodd;fill:rgb(93.333333%,88.235294%,93.333333%);fill-opacity:1;" d="M 124.875 10.875 C 128.617188 13.3125 129.492188 16.5625 127.5 20.625 C 101.957031 59.035156 76.582031 97.535156 51.375 136.125 C 45.230469 138.421875 38.980469 140.425781 32.625 142.125 C 60.679688 98.769531 88.929688 55.519531 117.375 12.375 C 117.6875 11.832031 118.1875 11.457031 118.875 11.25 C 120.859375 10.875 122.859375 10.75 124.875 10.875 Z M 124.875 10.875 "/>
</g>
<mask id="mask2">
  <g filter="url(#alpha)">
<rect x="0" y="0" width="852" height="252" style="fill:rgb(0%,0%,0%);fill-opacity:0.686275;stroke:none;"/>
  </g>
</mask>
<clipPath id="clip3">
  <rect x="0" y="0" width="852" height="252"/>
</clipPath>
<g id="surface11" clip-path="url(#clip3)">
<path style=" stroke:none;fill-rule:evenodd;fill:rgb(99.215686%,92.156863%,3.529412%);fill-opacity:1;" d="M 115.125 11.625 C 115.125 12.125 115.125 12.625 115.125 13.125 C 86.578125 54.960938 58.578125 97.210938 31.125 139.875 C 29.019531 143.074219 26.894531 146.328125 24.75 149.625 C 23.007812 157.054688 25.382812 162.554688 31.875 166.125 C 23.683594 169.722656 17.558594 167.472656 13.5 159.375 C 12.894531 155.808594 13.144531 152.308594 14.25 148.875 C 43.25 104.875 72.25 60.875 101.25 16.875 C 104.78125 12.300781 109.40625 10.550781 115.125 11.625 Z M 115.125 11.625 "/>
</g>
<mask id="mask3">
  <g filter="url(#alpha)">
<rect x="0" y="0" width="852" height="252" style="fill:rgb(0%,0%,0%);fill-opacity:0.701961;stroke:none;"/>
  </g>
</mask>
<clipPath id="clip4">
  <rect x="0" y="0" width="852" height="252"/>
</clipPath>
<g id="surface14" clip-path="url(#clip4)">
<path style=" stroke:none;fill-rule:evenodd;fill:rgb(72.54902%,41.568627%,65.882353%);fill-opacity:1;" d="M 124.875 10.875 C 133.746094 13.359375 136.996094 19.109375 134.625 28.125 C 120.070312 50.980469 105.320312 73.730469 90.375 96.375 C 85.539062 102.464844 81.289062 108.964844 77.625 115.875 C 77.046875 116.769531 76.296875 117.519531 75.375 118.125 C 72.355469 122.15625 69.605469 126.40625 67.125 130.875 C 62.003906 132.96875 56.753906 134.71875 51.375 136.125 C 76.582031 97.535156 101.957031 59.035156 127.5 20.625 C 129.492188 16.5625 128.617188 13.3125 124.875 10.875 Z M 124.875 10.875 "/>
</g>
<mask id="mask4">
  <g filter="url(#alpha)">
<rect x="0" y="0" width="852" height="252" style="fill:rgb(0%,0%,0%);fill-opacity:0.701961;stroke:none;"/>
  </g>
</mask>
<clipPath id="clip5">
  <rect x="0" y="0" width="852" height="252"/>
</clipPath>
<g id="surface17" clip-path="url(#clip5)">
<path style=" stroke:none;fill-rule:evenodd;fill:rgb(73.72549%,45.098039%,66.27451%);fill-opacity:1;" d="M 117.375 12.375 C 88.929688 55.519531 60.679688 98.769531 32.625 142.125 C 32.125 142.375 31.625 142.625 31.125 142.875 C 31.125 141.875 31.125 140.875 31.125 139.875 C 58.578125 97.210938 86.578125 54.960938 115.125 13.125 C 115.792969 12.667969 116.542969 12.417969 117.375 12.375 Z M 117.375 12.375 "/>
</g>
<mask id="mask5">
  <g filter="url(#alpha)">
<rect x="0" y="0" width="852" height="252" style="fill:rgb(0%,0%,0%);fill-opacity:0.686275;stroke:none;"/>
  </g>
</mask>
<clipPath id="clip6">
  <rect x="0" y="0" width="852" height="252"/>
</clipPath>
<g id="surface20" clip-path="url(#clip6)">
<path style=" stroke:none;fill-rule:evenodd;fill:rgb(3.921569%,62.352941%,88.627451%);fill-opacity:1;" d="M 180.375 174.375 C 188.761719 157.546875 190.636719 140.046875 186 121.875 C 182.097656 112.59375 175.222656 107.09375 165.375 105.375 C 155.828125 103.757812 146.578125 104.757812 137.625 108.375 C 129.585938 110.722656 121.585938 113.222656 113.625 115.875 C 114.0625 110.953125 113.4375 106.203125 111.75 101.625 C 109.613281 98.621094 106.734375 96.871094 103.125 96.375 C 100.792969 96.199219 98.542969 96.449219 96.375 97.125 C 96.125 97.125 95.875 97.125 95.625 97.125 C 97.242188 87.308594 102.992188 83.433594 112.875 85.5 C 116.816406 87.191406 119.441406 90.066406 120.75 94.125 C 120.878906 97.652344 121.253906 101.152344 121.875 104.625 C 133.894531 100.183594 146.144531 96.558594 158.625 93.75 C 176.863281 90.796875 188.988281 97.921875 195 115.125 C 198.296875 134.097656 195.046875 151.847656 185.25 168.375 C 183.789062 170.566406 182.164062 172.566406 180.375 174.375 Z M 180.375 174.375 "/>
</g>
<mask id="mask6">
  <g filter="url(#alpha)">
<rect x="0" y="0" width="852" height="252" style="fill:rgb(0%,0%,0%);fill-opacity:0.698039;stroke:none;"/>
  </g>
</mask>
<clipPath id="clip7">
  <rect x="0" y="0" width="852" height="252"/>
</clipPath>
<g id="surface23" clip-path="url(#clip7)">
<path style=" stroke:none;fill-rule:evenodd;fill:rgb(98.823529%,91.372549%,7.843137%);fill-opacity:1;" d="M 90.375 96.375 C 91.828125 96.863281 93.328125 97.113281 94.875 97.125 C 89.296875 101.765625 87.296875 107.765625 88.875 115.125 C 88.875 115.375 88.875 115.625 88.875 115.875 C 85.042969 116.566406 81.292969 117.570312 77.625 118.875 C 77.625 117.875 77.625 116.875 77.625 115.875 C 81.289062 108.964844 85.539062 102.464844 90.375 96.375 Z M 90.375 96.375 "/>
</g>
<mask id="mask7">
  <g filter="url(#alpha)">
<rect x="0" y="0" width="852" height="252" style="fill:rgb(0%,0%,0%);fill-opacity:0.701961;stroke:none;"/>
  </g>
</mask>
<clipPath id="clip8">
  <rect x="0" y="0" width="852" height="252"/>
</clipPath>
<g id="surface26" clip-path="url(#clip8)">
<path style=" stroke:none;fill-rule:evenodd;fill:rgb(73.333333%,40.784314%,65.490196%);fill-opacity:1;" d="M 103.125 96.375 C 106.734375 96.871094 109.613281 98.621094 111.75 101.625 C 113.4375 106.203125 114.0625 110.953125 113.625 115.875 C 111.789062 116.84375 109.789062 117.59375 107.625 118.125 C 107 112.140625 106.625 106.140625 106.5 100.125 C 105.730469 98.484375 104.605469 97.234375 103.125 96.375 Z M 103.125 96.375 "/>
</g>
<mask id="mask8">
  <g filter="url(#alpha)">
<rect x="0" y="0" width="852" height="252" style="fill:rgb(0%,0%,0%);fill-opacity:0.701961;stroke:none;"/>
  </g>
</mask>
<clipPath id="clip9">
  <rect x="0" y="0" width="852" height="252"/>
</clipPath>
<g id="surface29" clip-path="url(#clip9)">
<path style=" stroke:none;fill-rule:evenodd;fill:rgb(92.156863%,42.745098%,51.372549%);fill-opacity:1;" d="M 94.875 97.125 C 95.125 97.125 95.375 97.125 95.625 97.125 C 95.875 97.125 96.125 97.125 96.375 97.125 C 95.910156 97.96875 95.285156 98.71875 94.5 99.375 C 94.125 104.367188 94 109.367188 94.125 114.375 C 92.324219 114.335938 90.574219 114.585938 88.875 115.125 C 87.296875 107.765625 89.296875 101.765625 94.875 97.125 Z M 94.875 97.125 "/>
</g>
<mask id="mask9">
  <g filter="url(#alpha)">
<rect x="0" y="0" width="852" height="252" style="fill:rgb(0%,0%,0%);fill-opacity:0.701961;stroke:none;"/>
  </g>
</mask>
<clipPath id="clip10">
  <rect x="0" y="0" width="852" height="252"/>
</clipPath>
<g id="surface32" clip-path="url(#clip10)">
<path style=" stroke:none;fill-rule:evenodd;fill:rgb(93.333333%,88.235294%,92.941176%);fill-opacity:1;" d="M 165.375 105.375 C 174.78125 108.382812 180.15625 114.882812 181.5 124.875 C 184.015625 159 169.640625 182.625 138.375 195.75 C 134.636719 196.746094 130.886719 197.621094 127.125 198.375 C 125.070312 198.449219 123.070312 198.199219 121.125 197.625 C 118.492188 194.566406 118.242188 191.316406 120.375 187.875 C 120.375 187.625 120.375 187.375 120.375 187.125 C 120.625 187.125 120.875 187.125 121.125 187.125 C 122.566406 186.476562 124.066406 185.976562 125.625 185.625 C 127.191406 185.761719 128.691406 185.511719 130.125 184.875 C 130.867188 181.664062 131.121094 178.414062 130.875 175.125 C 131.625 175.125 132.375 175.125 133.125 175.125 C 133.125 161.875 133.125 148.625 133.125 135.375 C 136.871094 134.710938 140.371094 133.460938 143.625 131.625 C 143.375 147.382812 143.625 163.132812 144.375 178.875 C 154.746094 172.761719 161.746094 164.011719 165.375 152.625 C 169.78125 142.046875 170.15625 131.296875 166.5 120.375 C 165.886719 119.382812 165.011719 118.882812 163.875 118.875 C 161.480469 117.726562 158.855469 117.226562 156 117.375 C 153.105469 117.507812 150.230469 117.757812 147.375 118.125 C 146.070312 112.703125 142.570312 109.828125 136.875 109.5 C 137.292969 109.210938 137.542969 108.835938 137.625 108.375 C 146.578125 104.757812 155.828125 103.757812 165.375 105.375 Z M 165.375 105.375 "/>
</g>
<mask id="mask10">
  <g filter="url(#alpha)">
<rect x="0" y="0" width="852" height="252" style="fill:rgb(0%,0%,0%);fill-opacity:0.701961;stroke:none;"/>
  </g>
</mask>
<clipPath id="clip11">
  <rect x="0" y="0" width="852" height="252"/>
</clipPath>
<g id="surface35" clip-path="url(#clip11)">
<path style=" stroke:none;fill-rule:evenodd;fill:rgb(73.333333%,41.176471%,65.882353%);fill-opacity:1;" d="M 165.375 105.375 C 175.222656 107.09375 182.097656 112.59375 186 121.875 C 190.636719 140.046875 188.761719 157.546875 180.375 174.375 C 180.503906 175.117188 180.253906 175.617188 179.625 175.875 C 172.390625 183.863281 163.890625 190.113281 154.125 194.625 C 145.96875 198.164062 137.46875 199.789062 128.625 199.5 C 127.9375 199.292969 127.4375 198.917969 127.125 198.375 C 130.886719 197.621094 134.636719 196.746094 138.375 195.75 C 169.640625 182.625 184.015625 159 181.5 124.875 C 180.15625 114.882812 174.78125 108.382812 165.375 105.375 Z M 165.375 105.375 "/>
</g>
<mask id="mask11">
  <g filter="url(#alpha)">
<rect x="0" y="0" width="852" height="252" style="fill:rgb(0%,0%,0%);fill-opacity:0.701961;stroke:none;"/>
  </g>
</mask>
<clipPath id="clip12">
  <rect x="0" y="0" width="852" height="252"/>
</clipPath>
<g id="surface38" clip-path="url(#clip12)">
<path style=" stroke:none;fill-rule:evenodd;fill:rgb(74.117647%,40.392157%,65.098039%);fill-opacity:1;" d="M 94.125 114.375 C 94.367188 117.167969 94.117188 119.917969 93.375 122.625 C 91.914062 123.277344 90.414062 123.777344 88.875 124.125 C 88.875 121.375 88.875 118.625 88.875 115.875 C 88.875 115.625 88.875 115.375 88.875 115.125 C 90.574219 114.585938 92.324219 114.335938 94.125 114.375 Z M 94.125 114.375 "/>
</g>
<mask id="mask12">
  <g filter="url(#alpha)">
<rect x="0" y="0" width="852" height="252" style="fill:rgb(0%,0%,0%);fill-opacity:0.698039;stroke:none;"/>
  </g>
</mask>
<clipPath id="clip13">
  <rect x="0" y="0" width="852" height="252"/>
</clipPath>
<g id="surface41" clip-path="url(#clip13)">
<path style=" stroke:none;fill-rule:evenodd;fill:rgb(10.588235%,62.745098%,87.843137%);fill-opacity:1;" d="M 88.875 115.875 C 88.875 118.625 88.875 121.375 88.875 124.125 C 81.660156 126.492188 74.410156 128.742188 67.125 130.875 C 69.605469 126.40625 72.355469 122.15625 75.375 118.125 C 75.277344 118.679688 75.402344 119.179688 75.75 119.625 C 76.253906 119.0625 76.878906 118.808594 77.625 118.875 C 81.292969 117.570312 85.042969 116.566406 88.875 115.875 Z M 88.875 115.875 "/>
</g>
<mask id="mask13">
  <g filter="url(#alpha)">
<rect x="0" y="0" width="852" height="252" style="fill:rgb(0%,0%,0%);fill-opacity:0.701961;stroke:none;"/>
  </g>
</mask>
<clipPath id="clip14">
  <rect x="0" y="0" width="852" height="252"/>
</clipPath>
<g id="surface44" clip-path="url(#clip14)">
<path style=" stroke:none;fill-rule:evenodd;fill:rgb(94.901961%,87.45098%,92.54902%);fill-opacity:1;" d="M 103.125 96.375 C 104.605469 97.234375 105.730469 98.484375 106.5 100.125 C 106.625 106.140625 107 112.140625 107.625 118.125 C 109.789062 117.59375 111.789062 116.84375 113.625 115.875 C 121.585938 113.222656 129.585938 110.722656 137.625 108.375 C 137.542969 108.835938 137.292969 109.210938 136.875 109.5 C 142.570312 109.828125 146.070312 112.703125 147.375 118.125 C 146.875 118.125 146.625 118.375 146.625 118.875 C 145.632812 118.746094 144.757812 118.996094 144 119.625 C 143.625 123.617188 143.5 127.617188 143.625 131.625 C 140.371094 133.460938 136.871094 134.710938 133.125 135.375 C 133.125 148.625 133.125 161.875 133.125 175.125 C 132.375 175.125 131.625 175.125 130.875 175.125 C 130.875 162.375 130.875 149.625 130.875 136.875 C 131.121094 132.59375 130.871094 128.347656 130.125 124.125 C 128.601562 124.628906 127.101562 125.128906 125.625 125.625 C 120.902344 126.699219 116.402344 128.199219 112.125 130.125 C 110.378906 130.25 108.753906 130.75 107.25 131.625 C 106.875 135.867188 106.75 140.117188 106.875 144.375 C 106.875 166.375 106.875 188.375 106.875 210.375 C 107.570312 214.324219 106.570312 217.699219 103.875 220.5 C 99.226562 222.207031 94.472656 223.582031 89.625 224.625 C 87.484375 225.152344 85.484375 225.902344 83.625 226.875 C 76.058594 226.824219 73.558594 223.324219 76.125 216.375 C 76.125 215.875 76.375 215.625 76.875 215.625 C 80.773438 214.078125 84.773438 212.824219 88.875 211.875 C 90.414062 211.527344 91.914062 211.027344 93.375 210.375 C 94.117188 207.417969 94.367188 204.417969 94.125 201.375 C 94.125 183.875 94.125 166.375 94.125 148.875 C 94.125 144.625 94.125 140.375 94.125 136.125 C 92.136719 136.058594 90.386719 136.558594 88.875 137.625 C 77.109375 140.796875 65.609375 144.546875 54.375 148.875 C 49.0625 150.269531 43.8125 151.894531 38.625 153.75 C 30.132812 154.375 27.632812 150.75 31.125 142.875 C 31.625 142.625 32.125 142.375 32.625 142.125 C 38.980469 140.425781 45.230469 138.421875 51.375 136.125 C 56.753906 134.71875 62.003906 132.96875 67.125 130.875 C 74.410156 128.742188 81.660156 126.492188 88.875 124.125 C 90.414062 123.777344 91.914062 123.277344 93.375 122.625 C 94.117188 119.917969 94.367188 117.167969 94.125 114.375 C 94 109.367188 94.125 104.367188 94.5 99.375 C 95.285156 98.71875 95.910156 97.96875 96.375 97.125 C 98.542969 96.449219 100.792969 96.199219 103.125 96.375 Z M 103.125 96.375 "/>
</g>
<mask id="mask14">
  <g filter="url(#alpha)">
<rect x="0" y="0" width="852" height="252" style="fill:rgb(0%,0%,0%);fill-opacity:0.701961;stroke:none;"/>
  </g>
</mask>
<clipPath id="clip15">
  <rect x="0" y="0" width="852" height="252"/>
</clipPath>
<g id="surface47" clip-path="url(#clip15)">
<path style=" stroke:none;fill-rule:evenodd;fill:rgb(73.333333%,40.392157%,65.490196%);fill-opacity:1;" d="M 163.875 118.875 C 161.910156 118.675781 160.035156 118.921875 158.25 119.625 C 157.875 122.867188 157.75 126.117188 157.875 129.375 C 155.566406 129.195312 153.316406 129.445312 151.125 130.125 C 150.25 144.367188 150.125 158.617188 150.75 172.875 C 154.144531 169.617188 156.769531 165.867188 158.625 161.625 C 159.125 160.625 159.625 159.625 160.125 158.625 C 162.230469 156.90625 163.976562 154.90625 165.375 152.625 C 161.746094 164.011719 154.746094 172.761719 144.375 178.875 C 143.625 163.132812 143.375 147.382812 143.625 131.625 C 147.738281 128.699219 149.363281 124.699219 148.5 119.625 C 147.996094 119.0625 147.371094 118.808594 146.625 118.875 C 146.625 118.375 146.875 118.125 147.375 118.125 C 150.230469 117.757812 153.105469 117.507812 156 117.375 C 158.855469 117.226562 161.480469 117.726562 163.875 118.875 Z M 163.875 118.875 "/>
</g>
<mask id="mask15">
  <g filter="url(#alpha)">
<rect x="0" y="0" width="852" height="252" style="fill:rgb(0%,0%,0%);fill-opacity:0.701961;stroke:none;"/>
  </g>
</mask>
<clipPath id="clip16">
  <rect x="0" y="0" width="852" height="252"/>
</clipPath>
<g id="surface50" clip-path="url(#clip16)">
<path style=" stroke:none;fill-rule:evenodd;fill:rgb(84.705882%,18.823529%,54.509804%);fill-opacity:1;" d="M 146.625 118.875 C 147.371094 118.808594 147.996094 119.0625 148.5 119.625 C 149.363281 124.699219 147.738281 128.699219 143.625 131.625 C 143.5 127.617188 143.625 123.617188 144 119.625 C 144.757812 118.996094 145.632812 118.746094 146.625 118.875 Z M 146.625 118.875 "/>
</g>
<mask id="mask16">
  <g filter="url(#alpha)">
<rect x="0" y="0" width="852" height="252" style="fill:rgb(0%,0%,0%);fill-opacity:0.701961;stroke:none;"/>
  </g>
</mask>
<clipPath id="clip17">
  <rect x="0" y="0" width="852" height="252"/>
</clipPath>
<g id="surface53" clip-path="url(#clip17)">
<path style=" stroke:none;fill-rule:evenodd;fill:rgb(92.54902%,43.529412%,51.372549%);fill-opacity:1;" d="M 163.875 118.875 C 165.011719 118.882812 165.886719 119.382812 166.5 120.375 C 170.15625 131.296875 169.78125 142.046875 165.375 152.625 C 163.976562 154.90625 162.230469 156.90625 160.125 158.625 C 163.367188 150.167969 164.492188 141.417969 163.5 132.375 C 162.511719 129.792969 160.636719 128.792969 157.875 129.375 C 157.75 126.117188 157.875 122.867188 158.25 119.625 C 160.035156 118.921875 161.910156 118.675781 163.875 118.875 Z M 163.875 118.875 "/>
</g>
<mask id="mask17">
  <g filter="url(#alpha)">
<rect x="0" y="0" width="852" height="252" style="fill:rgb(0%,0%,0%);fill-opacity:0.701961;stroke:none;"/>
  </g>
</mask>
<clipPath id="clip18">
  <rect x="0" y="0" width="852" height="252"/>
</clipPath>
<g id="surface56" clip-path="url(#clip18)">
<path style=" stroke:none;fill-rule:evenodd;fill:rgb(74.117647%,41.176471%,65.490196%);fill-opacity:1;" d="M 125.625 125.625 C 125.625 127.125 125.625 128.625 125.625 130.125 C 124.125 130.375 122.625 130.625 121.125 130.875 C 121.125 133.875 121.125 136.875 121.125 139.875 C 120.875 139.875 120.625 139.875 120.375 139.875 C 118.066406 140.476562 115.816406 141.226562 113.625 142.125 C 114.085938 137.796875 113.585938 133.796875 112.125 130.125 C 116.402344 128.199219 120.902344 126.699219 125.625 125.625 Z M 125.625 125.625 "/>
</g>
<mask id="mask18">
  <g filter="url(#alpha)">
<rect x="0" y="0" width="852" height="252" style="fill:rgb(0%,0%,0%);fill-opacity:0.701961;stroke:none;"/>
  </g>
</mask>
<clipPath id="clip19">
  <rect x="0" y="0" width="852" height="252"/>
</clipPath>
<g id="surface59" clip-path="url(#clip19)">
<path style=" stroke:none;fill-rule:evenodd;fill:rgb(88.627451%,18.039216%,51.372549%);fill-opacity:1;" d="M 130.875 136.875 C 129.058594 137.160156 127.308594 137.660156 125.625 138.375 C 125.625 135.625 125.625 132.875 125.625 130.125 C 125.625 128.625 125.625 127.125 125.625 125.625 C 127.101562 125.128906 128.601562 124.628906 130.125 124.125 C 130.871094 128.347656 131.121094 132.59375 130.875 136.875 Z M 130.875 136.875 "/>
</g>
<mask id="mask19">
  <g filter="url(#alpha)">
<rect x="0" y="0" width="852" height="252" style="fill:rgb(0%,0%,0%);fill-opacity:0.701961;stroke:none;"/>
  </g>
</mask>
<clipPath id="clip20">
  <rect x="0" y="0" width="852" height="252"/>
</clipPath>
<g id="surface62" clip-path="url(#clip20)">
<path style=" stroke:none;fill-rule:evenodd;fill:rgb(12.156863%,61.960784%,87.843137%);fill-opacity:1;" d="M 157.875 129.375 C 157.628906 140.257812 157.878906 151.007812 158.625 161.625 C 156.769531 165.867188 154.144531 169.617188 150.75 172.875 C 150.125 158.617188 150.25 144.367188 151.125 130.125 C 153.316406 129.445312 155.566406 129.195312 157.875 129.375 Z M 157.875 129.375 "/>
</g>
<mask id="mask20">
  <g filter="url(#alpha)">
<rect x="0" y="0" width="852" height="252" style="fill:rgb(0%,0%,0%);fill-opacity:0.701961;stroke:none;"/>
  </g>
</mask>
<clipPath id="clip21">
  <rect x="0" y="0" width="852" height="252"/>
</clipPath>
<g id="surface65" clip-path="url(#clip21)">
<path style=" stroke:none;fill-rule:evenodd;fill:rgb(99.215686%,91.764706%,2.745098%);fill-opacity:1;" d="M 157.875 129.375 C 160.636719 128.792969 162.511719 129.792969 163.5 132.375 C 164.492188 141.417969 163.367188 150.167969 160.125 158.625 C 159.625 159.625 159.125 160.625 158.625 161.625 C 157.878906 151.007812 157.628906 140.257812 157.875 129.375 Z M 157.875 129.375 "/>
</g>
<mask id="mask21">
  <g filter="url(#alpha)">
<rect x="0" y="0" width="852" height="252" style="fill:rgb(0%,0%,0%);fill-opacity:0.701961;stroke:none;"/>
  </g>
</mask>
<clipPath id="clip22">
  <rect x="0" y="0" width="852" height="252"/>
</clipPath>
<g id="surface68" clip-path="url(#clip22)">
<path style=" stroke:none;fill-rule:evenodd;fill:rgb(85.098039%,16.862745%,53.72549%);fill-opacity:1;" d="M 112.125 130.125 C 113.585938 133.796875 114.085938 137.796875 113.625 142.125 C 111.316406 142.726562 109.066406 143.476562 106.875 144.375 C 106.75 140.117188 106.875 135.867188 107.25 131.625 C 108.753906 130.75 110.378906 130.25 112.125 130.125 Z M 112.125 130.125 "/>
</g>
<mask id="mask22">
  <g filter="url(#alpha)">
<rect x="0" y="0" width="852" height="252" style="fill:rgb(0%,0%,0%);fill-opacity:0.701961;stroke:none;"/>
  </g>
</mask>
<clipPath id="clip23">
  <rect x="0" y="0" width="852" height="252"/>
</clipPath>
<g id="surface71" clip-path="url(#clip23)">
<path style=" stroke:none;fill-rule:evenodd;fill:rgb(92.156863%,42.352941%,51.372549%);fill-opacity:1;" d="M 125.625 130.125 C 125.625 132.875 125.625 135.625 125.625 138.375 C 124.066406 138.726562 122.566406 139.226562 121.125 139.875 C 121.125 136.875 121.125 133.875 121.125 130.875 C 122.625 130.625 124.125 130.375 125.625 130.125 Z M 125.625 130.125 "/>
</g>
<mask id="mask23">
  <g filter="url(#alpha)">
<rect x="0" y="0" width="852" height="252" style="fill:rgb(0%,0%,0%);fill-opacity:0.701961;stroke:none;"/>
  </g>
</mask>
<clipPath id="clip24">
  <rect x="0" y="0" width="852" height="252"/>
</clipPath>
<g id="surface74" clip-path="url(#clip24)">
<path style=" stroke:none;fill-rule:evenodd;fill:rgb(92.54902%,44.313725%,50.980392%);fill-opacity:1;" d="M 130.875 136.875 C 130.875 149.625 130.875 162.375 130.875 175.125 C 129.035156 175.671875 127.285156 176.421875 125.625 177.375 C 125.625 164.375 125.625 151.375 125.625 138.375 C 127.308594 137.660156 129.058594 137.160156 130.875 136.875 Z M 130.875 136.875 "/>
</g>
<mask id="mask24">
  <g filter="url(#alpha)">
<rect x="0" y="0" width="852" height="252" style="fill:rgb(0%,0%,0%);fill-opacity:0.701961;stroke:none;"/>
  </g>
</mask>
<clipPath id="clip25">
  <rect x="0" y="0" width="852" height="252"/>
</clipPath>
<g id="surface77" clip-path="url(#clip25)">
<path style=" stroke:none;fill-rule:evenodd;fill:rgb(74.117647%,41.568627%,65.882353%);fill-opacity:1;" d="M 88.875 137.625 C 88.875 139.125 88.875 140.625 88.875 142.125 C 76.582031 145.722656 64.332031 149.472656 52.125 153.375 C 53.027344 151.957031 54.027344 150.582031 55.125 149.25 C 54.953125 148.949219 54.703125 148.828125 54.375 148.875 C 65.609375 144.546875 77.109375 140.796875 88.875 137.625 Z M 88.875 137.625 "/>
</g>
<mask id="mask25">
  <g filter="url(#alpha)">
<rect x="0" y="0" width="852" height="252" style="fill:rgb(0%,0%,0%);fill-opacity:0.701961;stroke:none;"/>
  </g>
</mask>
<clipPath id="clip26">
  <rect x="0" y="0" width="852" height="252"/>
</clipPath>
<g id="surface80" clip-path="url(#clip26)">
<path style=" stroke:none;fill-rule:evenodd;fill:rgb(99.215686%,92.156863%,2.745098%);fill-opacity:1;" d="M 125.625 138.375 C 125.625 151.375 125.625 164.375 125.625 177.375 C 125.625 177.625 125.625 177.875 125.625 178.125 C 123.832031 179.167969 122.582031 180.667969 121.875 182.625 C 121.128906 168.503906 120.878906 154.253906 121.125 139.875 C 122.566406 139.226562 124.066406 138.726562 125.625 138.375 Z M 125.625 138.375 "/>
</g>
<mask id="mask26">
  <g filter="url(#alpha)">
<rect x="0" y="0" width="852" height="252" style="fill:rgb(0%,0%,0%);fill-opacity:0.701961;stroke:none;"/>
  </g>
</mask>
<clipPath id="clip27">
  <rect x="0" y="0" width="852" height="252"/>
</clipPath>
<g id="surface83" clip-path="url(#clip27)">
<path style=" stroke:none;fill-rule:evenodd;fill:rgb(88.627451%,17.647059%,51.372549%);fill-opacity:1;" d="M 94.125 148.875 C 92.277344 149.074219 90.527344 149.574219 88.875 150.375 C 88.875 147.625 88.875 144.875 88.875 142.125 C 88.875 140.625 88.875 139.125 88.875 137.625 C 90.386719 136.558594 92.136719 136.058594 94.125 136.125 C 94.125 140.375 94.125 144.625 94.125 148.875 Z M 94.125 148.875 "/>
</g>
<mask id="mask27">
  <g filter="url(#alpha)">
<rect x="0" y="0" width="852" height="252" style="fill:rgb(0%,0%,0%);fill-opacity:0.701961;stroke:none;"/>
  </g>
</mask>
<clipPath id="clip28">
  <rect x="0" y="0" width="852" height="252"/>
</clipPath>
<g id="surface86" clip-path="url(#clip28)">
<path style=" stroke:none;fill-rule:evenodd;fill:rgb(1.960784%,62.352941%,88.627451%);fill-opacity:1;" d="M 120.375 139.875 C 120.375 155.625 120.375 171.375 120.375 187.125 C 120.375 187.375 120.375 187.625 120.375 187.875 C 117.066406 189.3125 114.941406 191.8125 114 195.375 C 113.625 177.628906 113.5 159.875 113.625 142.125 C 115.816406 141.226562 118.066406 140.476562 120.375 139.875 Z M 120.375 139.875 "/>
</g>
<mask id="mask28">
  <g filter="url(#alpha)">
<rect x="0" y="0" width="852" height="252" style="fill:rgb(0%,0%,0%);fill-opacity:0.701961;stroke:none;"/>
  </g>
</mask>
<clipPath id="clip29">
  <rect x="0" y="0" width="852" height="252"/>
</clipPath>
<g id="surface89" clip-path="url(#clip29)">
<path style=" stroke:none;fill-rule:evenodd;fill:rgb(5.882353%,69.803922%,76.862745%);fill-opacity:1;" d="M 120.375 139.875 C 120.625 139.875 120.875 139.875 121.125 139.875 C 120.878906 154.253906 121.128906 168.503906 121.875 182.625 C 121.386719 184.078125 121.136719 185.578125 121.125 187.125 C 120.875 187.125 120.625 187.125 120.375 187.125 C 120.375 171.375 120.375 155.625 120.375 139.875 Z M 120.375 139.875 "/>
</g>
<mask id="mask29">
  <g filter="url(#alpha)">
<rect x="0" y="0" width="852" height="252" style="fill:rgb(0%,0%,0%);fill-opacity:0.701961;stroke:none;"/>
  </g>
</mask>
<clipPath id="clip30">
  <rect x="0" y="0" width="852" height="252"/>
</clipPath>
<g id="surface92" clip-path="url(#clip30)">
<path style=" stroke:none;fill-rule:evenodd;fill:rgb(92.156863%,41.960784%,51.372549%);fill-opacity:1;" d="M 88.875 142.125 C 88.875 144.875 88.875 147.625 88.875 150.375 C 87.90625 150.195312 87.15625 150.445312 86.625 151.125 C 83.472656 151.703125 80.472656 152.703125 77.625 154.125 C 77.625 153.375 77.625 152.625 77.625 151.875 C 67.714844 154.289062 57.964844 157.289062 48.375 160.875 C 48.125 160.625 47.875 160.375 47.625 160.125 C 49.144531 157.863281 50.644531 155.613281 52.125 153.375 C 64.332031 149.472656 76.582031 145.722656 88.875 142.125 Z M 88.875 142.125 "/>
</g>
<mask id="mask30">
  <g filter="url(#alpha)">
<rect x="0" y="0" width="852" height="252" style="fill:rgb(0%,0%,0%);fill-opacity:0.701961;stroke:none;"/>
  </g>
</mask>
<clipPath id="clip31">
  <rect x="0" y="0" width="852" height="252"/>
</clipPath>
<g id="surface95" clip-path="url(#clip31)">
<path style=" stroke:none;fill-rule:evenodd;fill:rgb(73.333333%,40.392157%,65.098039%);fill-opacity:1;" d="M 113.625 142.125 C 113.5 159.875 113.625 177.628906 114 195.375 C 114.941406 191.8125 117.066406 189.3125 120.375 187.875 C 118.242188 191.316406 118.492188 194.566406 121.125 197.625 C 121.125 201.625 121.125 205.625 121.125 209.625 C 117.21875 207.84375 114.84375 204.84375 114 200.625 C 113.625 206.121094 113.5 211.621094 113.625 217.125 C 112.128906 214.128906 109.878906 211.878906 106.875 210.375 C 106.875 188.375 106.875 166.375 106.875 144.375 C 109.066406 143.476562 111.316406 142.726562 113.625 142.125 Z M 113.625 142.125 "/>
</g>
<mask id="mask31">
  <g filter="url(#alpha)">
<rect x="0" y="0" width="852" height="252" style="fill:rgb(0%,0%,0%);fill-opacity:0.701961;stroke:none;"/>
  </g>
</mask>
<clipPath id="clip32">
  <rect x="0" y="0" width="852" height="252"/>
</clipPath>
<g id="surface98" clip-path="url(#clip32)">
<path style=" stroke:none;fill-rule:evenodd;fill:rgb(89.411765%,17.254902%,50.588235%);fill-opacity:1;" d="M 31.125 139.875 C 31.125 140.875 31.125 141.875 31.125 142.875 C 27.632812 150.75 30.132812 154.375 38.625 153.75 C 43.8125 151.894531 49.0625 150.269531 54.375 148.875 C 54.703125 148.828125 54.953125 148.949219 55.125 149.25 C 54.027344 150.582031 53.027344 151.957031 52.125 153.375 C 50.644531 155.613281 49.144531 157.863281 47.625 160.125 C 47.875 160.375 48.125 160.625 48.375 160.875 C 57.964844 157.289062 67.714844 154.289062 77.625 151.875 C 77.625 152.625 77.625 153.375 77.625 154.125 C 64.023438 158.824219 50.273438 163.074219 36.375 166.875 C 34.839844 166.746094 33.339844 166.496094 31.875 166.125 C 25.382812 162.554688 23.007812 157.054688 24.75 149.625 C 26.894531 146.328125 29.019531 143.074219 31.125 139.875 Z M 31.125 139.875 "/>
</g>
<mask id="mask32">
  <g filter="url(#alpha)">
<rect x="0" y="0" width="852" height="252" style="fill:rgb(0%,0%,0%);fill-opacity:0.701961;stroke:none;"/>
  </g>
</mask>
<clipPath id="clip33">
  <rect x="0" y="0" width="852" height="252"/>
</clipPath>
<g id="surface101" clip-path="url(#clip33)">
<path style=" stroke:none;fill-rule:evenodd;fill:rgb(92.156863%,41.960784%,51.372549%);fill-opacity:1;" d="M 94.125 148.875 C 94.125 166.375 94.125 183.875 94.125 201.375 C 92.375 201.875 90.625 202.375 88.875 202.875 C 88.875 185.375 88.875 167.875 88.875 150.375 C 90.527344 149.574219 92.277344 149.074219 94.125 148.875 Z M 94.125 148.875 "/>
</g>
<mask id="mask33">
  <g filter="url(#alpha)">
<rect x="0" y="0" width="852" height="252" style="fill:rgb(0%,0%,0%);fill-opacity:0.701961;stroke:none;"/>
  </g>
</mask>
<clipPath id="clip34">
  <rect x="0" y="0" width="852" height="252"/>
</clipPath>
<g id="surface104" clip-path="url(#clip34)">
<path style=" stroke:none;fill-rule:evenodd;fill:rgb(99.215686%,81.568627%,22.745098%);fill-opacity:1;" d="M 86.625 151.125 C 87.15625 150.445312 87.90625 150.195312 88.875 150.375 C 88.875 167.875 88.875 185.375 88.875 202.875 C 88.625 202.875 88.375 202.875 88.125 202.875 C 88.617188 185.355469 88.117188 168.105469 86.625 151.125 Z M 86.625 151.125 "/>
</g>
<mask id="mask34">
  <g filter="url(#alpha)">
<rect x="0" y="0" width="852" height="252" style="fill:rgb(0%,0%,0%);fill-opacity:0.690196;stroke:none;"/>
  </g>
</mask>
<clipPath id="clip35">
  <rect x="0" y="0" width="852" height="252"/>
</clipPath>
<g id="surface107" clip-path="url(#clip35)">
<path style=" stroke:none;fill-rule:evenodd;fill:rgb(99.215686%,92.156863%,0.784314%);fill-opacity:1;" d="M 86.625 151.125 C 88.117188 168.105469 88.617188 185.355469 88.125 202.875 C 83.601562 203.890625 80.101562 206.390625 77.625 210.375 C 77.625 191.625 77.625 172.875 77.625 154.125 C 80.472656 152.703125 83.472656 151.703125 86.625 151.125 Z M 86.625 151.125 "/>
</g>
<mask id="mask35">
  <g filter="url(#alpha)">
<rect x="0" y="0" width="852" height="252" style="fill:rgb(0%,0%,0%);fill-opacity:0.701961;stroke:none;"/>
  </g>
</mask>
<clipPath id="clip36">
  <rect x="0" y="0" width="852" height="252"/>
</clipPath>
<g id="surface110" clip-path="url(#clip36)">
<path style=" stroke:none;fill-rule:evenodd;fill:rgb(72.54902%,41.960784%,66.27451%);fill-opacity:1;" d="M 130.875 175.125 C 131.121094 178.414062 130.867188 181.664062 130.125 184.875 C 128.691406 185.511719 127.191406 185.761719 125.625 185.625 C 125.625 183.125 125.625 180.625 125.625 178.125 C 125.625 177.875 125.625 177.625 125.625 177.375 C 127.285156 176.421875 129.035156 175.671875 130.875 175.125 Z M 130.875 175.125 "/>
</g>
<mask id="mask36">
  <g filter="url(#alpha)">
<rect x="0" y="0" width="852" height="252" style="fill:rgb(0%,0%,0%);fill-opacity:0.701961;stroke:none;"/>
  </g>
</mask>
<clipPath id="clip37">
  <rect x="0" y="0" width="852" height="252"/>
</clipPath>
<g id="surface113" clip-path="url(#clip37)">
<path style=" stroke:none;fill-rule:evenodd;fill:rgb(5.098039%,62.745098%,88.235294%);fill-opacity:1;" d="M 125.625 178.125 C 125.625 180.625 125.625 183.125 125.625 185.625 C 124.066406 185.976562 122.566406 186.476562 121.125 187.125 C 121.136719 185.578125 121.386719 184.078125 121.875 182.625 C 122.582031 180.667969 123.832031 179.167969 125.625 178.125 Z M 125.625 178.125 "/>
</g>
<mask id="mask37">
  <g filter="url(#alpha)">
<rect x="0" y="0" width="852" height="252" style="fill:rgb(0%,0%,0%);fill-opacity:0.466667;stroke:none;"/>
  </g>
</mask>
<clipPath id="clip38">
  <rect x="0" y="0" width="852" height="252"/>
</clipPath>
<g id="surface116" clip-path="url(#clip38)">
<path style=" stroke:none;fill-rule:evenodd;fill:rgb(89.803922%,3.529412%,49.019608%);fill-opacity:1;" d="M 179.625 175.875 C 167.289062 197.058594 148.789062 208.808594 124.125 211.125 C 135.203125 207.585938 145.203125 202.085938 154.125 194.625 C 163.890625 190.113281 172.390625 183.863281 179.625 175.875 Z M 179.625 175.875 "/>
</g>
<mask id="mask38">
  <g filter="url(#alpha)">
<rect x="0" y="0" width="852" height="252" style="fill:rgb(0%,0%,0%);fill-opacity:0.701961;stroke:none;"/>
  </g>
</mask>
<clipPath id="clip39">
  <rect x="0" y="0" width="852" height="252"/>
</clipPath>
<g id="surface119" clip-path="url(#clip39)">
<path style=" stroke:none;fill-rule:evenodd;fill:rgb(92.156863%,42.745098%,51.372549%);fill-opacity:1;" d="M 154.125 194.625 C 145.203125 202.085938 135.203125 207.585938 124.125 211.125 C 123.125 211.125 122.125 211.125 121.125 211.125 C 121.125 210.625 121.125 210.125 121.125 209.625 C 121.125 205.625 121.125 201.625 121.125 197.625 C 123.070312 198.199219 125.070312 198.449219 127.125 198.375 C 127.4375 198.917969 127.9375 199.292969 128.625 199.5 C 137.46875 199.789062 145.96875 198.164062 154.125 194.625 Z M 154.125 194.625 "/>
</g>
<mask id="mask39">
  <g filter="url(#alpha)">
<rect x="0" y="0" width="852" height="252" style="fill:rgb(0%,0%,0%);fill-opacity:0.701961;stroke:none;"/>
  </g>
</mask>
<clipPath id="clip40">
  <rect x="0" y="0" width="852" height="252"/>
</clipPath>
<g id="surface122" clip-path="url(#clip40)">
<path style=" stroke:none;fill-rule:evenodd;fill:rgb(74.117647%,40.392157%,65.098039%);fill-opacity:1;" d="M 94.125 201.375 C 94.367188 204.417969 94.117188 207.417969 93.375 210.375 C 91.914062 211.027344 90.414062 211.527344 88.875 211.875 C 88.875 208.875 88.875 205.875 88.875 202.875 C 90.625 202.375 92.375 201.875 94.125 201.375 Z M 94.125 201.375 "/>
</g>
<mask id="mask40">
  <g filter="url(#alpha)">
<rect x="0" y="0" width="852" height="252" style="fill:rgb(0%,0%,0%);fill-opacity:0.682353;stroke:none;"/>
  </g>
</mask>
<clipPath id="clip41">
  <rect x="0" y="0" width="852" height="252"/>
</clipPath>
<g id="surface125" clip-path="url(#clip41)">
<path style=" stroke:none;fill-rule:evenodd;fill:rgb(6.27451%,62.352941%,88.235294%);fill-opacity:1;" d="M 121.125 209.625 C 121.125 210.125 121.125 210.625 121.125 211.125 C 120.808594 216.28125 118.308594 219.78125 113.625 221.625 C 113.625 220.125 113.625 218.625 113.625 217.125 C 113.5 211.621094 113.625 206.121094 114 200.625 C 114.84375 204.84375 117.21875 207.84375 121.125 209.625 Z M 121.125 209.625 "/>
</g>
<mask id="mask41">
  <g filter="url(#alpha)">
<rect x="0" y="0" width="852" height="252" style="fill:rgb(0%,0%,0%);fill-opacity:0.698039;stroke:none;"/>
  </g>
</mask>
<clipPath id="clip42">
  <rect x="0" y="0" width="852" height="252"/>
</clipPath>
<g id="surface128" clip-path="url(#clip42)">
<path style=" stroke:none;fill-rule:evenodd;fill:rgb(10.588235%,63.137255%,87.45098%);fill-opacity:1;" d="M 88.125 202.875 C 88.375 202.875 88.625 202.875 88.875 202.875 C 88.875 205.875 88.875 208.875 88.875 211.875 C 84.773438 212.824219 80.773438 214.078125 76.875 215.625 C 76.875 214.625 76.875 213.625 76.875 212.625 C 76.917969 211.792969 77.167969 211.042969 77.625 210.375 C 80.101562 206.390625 83.601562 203.890625 88.125 202.875 Z M 88.125 202.875 "/>
</g>
<mask id="mask42">
  <g filter="url(#alpha)">
<rect x="0" y="0" width="852" height="252" style="fill:rgb(0%,0%,0%);fill-opacity:0.701961;stroke:none;"/>
  </g>
</mask>
<clipPath id="clip43">
  <rect x="0" y="0" width="852" height="252"/>
</clipPath>
<g id="surface131" clip-path="url(#clip43)">
<path style=" stroke:none;fill-rule:evenodd;fill:rgb(85.098039%,18.039216%,54.117647%);fill-opacity:1;" d="M 106.875 210.375 C 109.878906 211.878906 112.128906 214.128906 113.625 217.125 C 113.625 218.625 113.625 220.125 113.625 221.625 C 106.144531 223.867188 98.644531 226.117188 91.125 228.375 C 90.875 228.375 90.625 228.375 90.375 228.375 C 89.972656 227.164062 89.722656 225.910156 89.625 224.625 C 94.472656 223.582031 99.226562 222.207031 103.875 220.5 C 106.570312 217.699219 107.570312 214.324219 106.875 210.375 Z M 106.875 210.375 "/>
</g>
<mask id="mask43">
  <g filter="url(#alpha)">
<rect x="0" y="0" width="852" height="252" style="fill:rgb(0%,0%,0%);fill-opacity:0.678431;stroke:none;"/>
  </g>
</mask>
<clipPath id="clip44">
  <rect x="0" y="0" width="852" height="252"/>
</clipPath>
<g id="surface134" clip-path="url(#clip44)">
<path style=" stroke:none;fill-rule:evenodd;fill:rgb(99.215686%,92.156863%,1.568627%);fill-opacity:1;" d="M 76.875 212.625 C 76.875 213.625 76.875 214.625 76.875 215.625 C 76.375 215.625 76.125 215.875 76.125 216.375 C 71.632812 218.347656 69.382812 221.847656 69.375 226.875 C 69.914062 232.46875 72.664062 236.46875 77.625 238.875 C 66.765625 242.773438 60.265625 239.023438 58.125 227.625 C 58.589844 223.570312 60.339844 220.195312 63.375 217.5 C 67.761719 215.496094 72.261719 213.871094 76.875 212.625 Z M 76.875 212.625 "/>
</g>
<mask id="mask44">
  <g filter="url(#alpha)">
<rect x="0" y="0" width="852" height="252" style="fill:rgb(0%,0%,0%);fill-opacity:0.701961;stroke:none;"/>
  </g>
</mask>
<clipPath id="clip45">
  <rect x="0" y="0" width="852" height="252"/>
</clipPath>
<g id="surface137" clip-path="url(#clip45)">
<path style=" stroke:none;fill-rule:evenodd;fill:rgb(92.54902%,43.137255%,51.372549%);fill-opacity:1;" d="M 76.125 216.375 C 73.558594 223.324219 76.058594 226.824219 83.625 226.875 C 85.59375 228.199219 87.84375 228.699219 90.375 228.375 C 90.625 228.375 90.875 228.375 91.125 228.375 C 92.40625 230.402344 94.152344 231.902344 96.375 232.875 C 96.125 233.125 95.875 233.375 95.625 233.625 C 89.914062 235.007812 84.414062 236.757812 79.125 238.875 C 78.625 238.875 78.125 238.875 77.625 238.875 C 72.664062 236.46875 69.914062 232.46875 69.375 226.875 C 69.382812 221.847656 71.632812 218.347656 76.125 216.375 Z M 76.125 216.375 "/>
</g>
<mask id="mask45">
  <g filter="url(#alpha)">
<rect x="0" y="0" width="852" height="252" style="fill:rgb(0%,0%,0%);fill-opacity:0.576471;stroke:none;"/>
  </g>
</mask>
<clipPath id="clip46">
  <rect x="0" y="0" width="852" height="252"/>
</clipPath>
<g id="surface140" clip-path="url(#clip46)">
<path style=" stroke:none;fill-rule:evenodd;fill:rgb(89.411765%,5.882353%,49.411765%);fill-opacity:1;" d="M 113.625 221.625 C 113.703125 226.414062 111.703125 230.039062 107.625 232.5 C 100.171875 234.902344 92.671875 237.152344 85.125 239.25 C 82.976562 239.851562 80.972656 239.726562 79.125 238.875 C 84.414062 236.757812 89.914062 235.007812 95.625 233.625 C 95.875 233.375 96.125 233.125 96.375 232.875 C 94.152344 231.902344 92.40625 230.402344 91.125 228.375 C 98.644531 226.117188 106.144531 223.867188 113.625 221.625 Z M 113.625 221.625 "/>
</g>
<mask id="mask46">
  <g filter="url(#alpha)">
<rect x="0" y="0" width="852" height="252" style="fill:rgb(0%,0%,0%);fill-opacity:0.701961;stroke:none;"/>
  </g>
</mask>
<clipPath id="clip47">
  <rect x="0" y="0" width="852" height="252"/>
</clipPath>
<g id="surface143" clip-path="url(#clip47)">
<path style=" stroke:none;fill-rule:evenodd;fill:rgb(75.294118%,42.745098%,65.882353%);fill-opacity:1;" d="M 89.625 224.625 C 89.722656 225.910156 89.972656 227.164062 90.375 228.375 C 87.84375 228.699219 85.59375 228.199219 83.625 226.875 C 85.484375 225.902344 87.484375 225.152344 89.625 224.625 Z M 89.625 224.625 "/>
</g>
</defs>
<g id="surface1">
<use xlink:href="#surface5" mask="url(#mask0)"/>
<use xlink:href="#surface8" mask="url(#mask1)"/>
<use xlink:href="#surface11" mask="url(#mask2)"/>
<use xlink:href="#surface14" mask="url(#mask3)"/>
<use xlink:href="#surface17" mask="url(#mask4)"/>
<path style=" stroke:none;fill-rule:evenodd;fill:rgb(0%,0%,0%);fill-opacity:1;" d="M 199.125 52.875 C 413.125 52.75 627.125 52.875 841.125 53.25 C 842.257812 55.4375 842.011719 57.4375 840.375 59.25 C 626.875 59.75 413.375 59.75 199.875 59.25 C 197.335938 57.328125 197.085938 55.203125 199.125 52.875 Z M 199.125 52.875 "/>
<path style=" stroke:none;fill-rule:evenodd;fill:rgb(0%,0%,0%);fill-opacity:1;" d="M 435.375 71.625 C 438.875 71.625 442.375 71.625 445.875 71.625 C 445.75 85.628906 445.875 99.628906 446.25 113.625 C 458.011719 99.652344 472.136719 96.527344 488.625 104.25 C 495.679688 111.65625 499.054688 120.53125 498.75 130.875 C 499.125 146.371094 499.25 161.875 499.125 177.375 C 495.375 177.375 491.625 177.375 487.875 177.375 C 488.210938 159.34375 487.835938 141.34375 486.75 123.375 C 483.757812 112.1875 476.632812 108.0625 465.375 111 C 457.0625 114.5625 450.9375 120.4375 447 128.625 C 445.898438 144.824219 445.523438 161.074219 445.875 177.375 C 442.375 177.375 438.875 177.375 435.375 177.375 C 435.375 142.125 435.375 106.875 435.375 71.625 Z M 435.375 71.625 "/>
<path style=" stroke:none;fill-rule:evenodd;fill:rgb(0%,0%,0%);fill-opacity:1;" d="M 691.875 71.625 C 695.375 71.625 698.875 71.625 702.375 71.625 C 702.375 77.125 702.375 82.625 702.375 88.125 C 698.875 88.125 695.375 88.125 691.875 88.125 C 691.875 82.625 691.875 77.125 691.875 71.625 Z M 691.875 71.625 "/>
<path style=" stroke:none;fill-rule:evenodd;fill:rgb(0%,0%,0%);fill-opacity:1;" d="M 199.125 74.625 C 227.125 74.625 255.125 74.625 283.125 74.625 C 283.125 77.875 283.125 81.125 283.125 84.375 C 270.875 84.375 258.625 84.375 246.375 84.375 C 246.375 115.375 246.375 146.375 246.375 177.375 C 242.625 177.375 238.875 177.375 235.125 177.375 C 235.125 146.375 235.125 115.375 235.125 84.375 C 223.125 84.375 211.125 84.375 199.125 84.375 C 199.125 81.125 199.125 77.875 199.125 74.625 Z M 199.125 74.625 "/>
<path style=" stroke:none;fill-rule:evenodd;fill:rgb(0%,0%,0%);fill-opacity:1;" d="M 594.375 74.625 C 609.125 74.5 623.878906 74.625 638.625 75 C 660.160156 78.785156 673.035156 91.410156 677.25 112.875 C 680.949219 131.394531 677.199219 148.144531 666 163.125 C 658.558594 170.410156 649.683594 175.035156 639.375 177 C 624.378906 177.375 609.378906 177.5 594.375 177.375 C 594.375 143.125 594.375 108.875 594.375 74.625 Z M 604.875 84.375 C 614.128906 84.25 623.378906 84.375 632.625 84.75 C 651.953125 86.828125 663.328125 97.453125 666.75 116.625 C 668.972656 130.523438 666.222656 143.273438 658.5 154.875 C 653.265625 160.609375 646.890625 164.484375 639.375 166.5 C 627.90625 167.535156 616.40625 167.910156 604.875 167.625 C 604.875 139.875 604.875 112.125 604.875 84.375 Z M 604.875 84.375 "/>
<path style=" stroke:none;fill-rule:evenodd;fill:rgb(0%,0%,0%);fill-opacity:1;" d="M 805.875 76.125 C 809.378906 76.125 812.871094 76.125 816.375 76.125 C 816.375 84.375 816.375 92.625 816.375 100.875 C 822.128906 100.875 827.871094 100.875 833.625 100.875 C 833.625 104.125 833.625 107.375 833.625 110.625 C 827.871094 110.625 822.128906 110.625 816.375 110.625 C 816.023438 128.925781 816.398438 147.175781 817.5 165.375 C 821.21875 168.472656 825.34375 169.097656 829.875 167.25 C 832.058594 166.21875 834.1875 165.09375 836.25 163.875 C 837.449219 166.847656 838.574219 169.847656 839.625 172.875 C 838.15625 174.363281 836.40625 175.488281 834.375 176.25 C 826.449219 179.890625 818.691406 179.640625 811.125 175.5 C 808.640625 173.417969 807.023438 170.792969 806.25 167.625 C 805.875 148.625 805.746094 129.628906 805.875 110.625 C 802.371094 110.625 798.878906 110.625 795.375 110.625 C 795.375 107.375 795.375 104.125 795.375 100.875 C 798.878906 100.875 802.371094 100.875 805.875 100.875 C 805.875 92.625 805.875 84.375 805.875 76.125 Z M 805.875 76.125 "/>
<use xlink:href="#surface20" mask="url(#mask5)"/>
<path style=" stroke:none;fill-rule:evenodd;fill:rgb(0%,0%,0%);fill-opacity:1;" d="M 559.125 94.125 C 561.875 94.125 564.625 94.125 567.375 94.125 C 567.375 115.875 567.375 137.625 567.375 159.375 C 571.625 159.375 575.875 159.375 580.125 159.375 C 580.125 162.625 580.125 165.875 580.125 169.125 C 575.875 169.125 571.625 169.125 567.375 169.125 C 567.375 175.875 567.375 182.625 567.375 189.375 C 658.625 189.25 749.875 189.375 841.125 189.75 C 842.453125 192.296875 841.957031 194.296875 839.625 195.75 C 626.625 196.25 413.625 196.25 200.625 195.75 C 197.636719 194.292969 197.136719 192.292969 199.125 189.75 C 318.375 189.375 437.625 189.25 556.875 189.375 C 556.875 182.625 556.875 175.875 556.875 169.125 C 540.625 169.125 524.375 169.125 508.125 169.125 C 508 166.113281 508.125 163.113281 508.5 160.125 C 525.570312 138.214844 542.445312 116.214844 559.125 94.125 Z M 556.875 113.625 C 557.621094 128.746094 557.871094 143.996094 557.625 159.375 C 545.871094 159.5 534.121094 159.375 522.375 159 C 534.035156 143.96875 545.539062 128.84375 556.875 113.625 Z M 556.875 113.625 "/>
<use xlink:href="#surface23" mask="url(#mask6)"/>
<use xlink:href="#surface26" mask="url(#mask7)"/>
<use xlink:href="#surface29" mask="url(#mask8)"/>
<path style=" stroke:none;fill-rule:evenodd;fill:rgb(0%,0%,0%);fill-opacity:1;" d="M 301.875 100.125 C 329.722656 98.597656 344.972656 111.722656 347.625 139.5 C 347.191406 141.101562 346.941406 142.726562 346.875 144.375 C 325.875 144.375 304.875 144.375 283.875 144.375 C 286.257812 159.632812 295.132812 168.132812 310.5 169.875 C 320.296875 169.300781 327.546875 164.800781 332.25 156.375 C 335.417969 155.957031 338.542969 156.457031 341.625 157.875 C 341.0625 163.128906 338.5625 167.503906 334.125 171 C 322.074219 179.40625 309.074219 181.15625 295.125 176.25 C 278.855469 167.597656 271.230469 153.976562 272.25 135.375 C 274.457031 117.050781 284.332031 105.300781 301.875 100.125 Z M 307.125 109.125 C 323.882812 109.636719 333.632812 118.136719 336.375 134.625 C 318.617188 134.875 300.867188 134.625 283.125 133.875 C 285.636719 120.117188 293.636719 111.867188 307.125 109.125 Z M 307.125 109.125 "/>
<path style=" stroke:none;fill-rule:evenodd;fill:rgb(0%,0%,0%);fill-opacity:1;" d="M 383.625 100.125 C 401.484375 97.308594 414.734375 103.683594 423.375 119.25 C 420.074219 120.769531 416.699219 122.144531 413.25 123.375 C 403.199219 108.707031 390.574219 106.082031 375.375 115.5 C 365.269531 125.296875 362.394531 136.921875 366.75 150.375 C 375.824219 169.105469 389.449219 173.480469 407.625 163.5 C 410.097656 161.652344 411.847656 159.277344 412.875 156.375 C 416.199219 155.886719 419.449219 156.386719 422.625 157.875 C 423.460938 158.792969 423.585938 159.792969 423 160.875 C 418.125 170.640625 410.25 176.515625 399.375 178.5 C 375.867188 180.941406 360.992188 170.816406 354.75 148.125 C 351.199219 123.949219 360.824219 107.949219 383.625 100.125 Z M 383.625 100.125 "/>
<path style=" stroke:none;fill-rule:evenodd;fill:rgb(0%,0%,0%);fill-opacity:1;" d="M 745.875 100.125 C 773.722656 98.597656 788.96875 111.722656 791.625 139.5 C 791.191406 141.101562 790.941406 142.726562 790.875 144.375 C 769.875 144.375 748.875 144.375 727.875 144.375 C 730.257812 159.632812 739.132812 168.132812 754.5 169.875 C 764.296875 169.300781 771.546875 164.800781 776.25 156.375 C 779.414062 155.957031 782.542969 156.457031 785.625 157.875 C 785.0625 163.128906 782.566406 167.503906 778.125 171 C 766.074219 179.40625 753.074219 181.15625 739.125 176.25 C 722.855469 167.597656 715.230469 153.976562 716.25 135.375 C 718.457031 117.050781 728.332031 105.300781 745.875 100.125 Z M 751.125 109.125 C 767.878906 109.636719 777.628906 118.136719 780.375 134.625 C 762.613281 134.875 744.867188 134.625 727.125 133.875 C 729.636719 120.117188 737.636719 111.867188 751.125 109.125 Z M 751.125 109.125 "/>
<path style=" stroke:none;fill-rule:evenodd;fill:rgb(0%,0%,0%);fill-opacity:1;" d="M 691.875 100.875 C 695.375 100.875 698.875 100.875 702.375 100.875 C 702.375 126.375 702.375 151.875 702.375 177.375 C 698.875 177.375 695.375 177.375 691.875 177.375 C 691.875 151.875 691.875 126.375 691.875 100.875 Z M 691.875 100.875 "/>
<use xlink:href="#surface32" mask="url(#mask9)"/>
<use xlink:href="#surface35" mask="url(#mask10)"/>
<use xlink:href="#surface38" mask="url(#mask11)"/>
<use xlink:href="#surface41" mask="url(#mask12)"/>
<use xlink:href="#surface44" mask="url(#mask13)"/>
<use xlink:href="#surface47" mask="url(#mask14)"/>
<use xlink:href="#surface50" mask="url(#mask15)"/>
<use xlink:href="#surface53" mask="url(#mask16)"/>
<use xlink:href="#surface56" mask="url(#mask17)"/>
<use xlink:href="#surface59" mask="url(#mask18)"/>
<use xlink:href="#surface62" mask="url(#mask19)"/>
<use xlink:href="#surface65" mask="url(#mask20)"/>
<use xlink:href="#surface68" mask="url(#mask21)"/>
<use xlink:href="#surface71" mask="url(#mask22)"/>
<use xlink:href="#surface74" mask="url(#mask23)"/>
<use xlink:href="#surface77" mask="url(#mask24)"/>
<use xlink:href="#surface80" mask="url(#mask25)"/>
<use xlink:href="#surface83" mask="url(#mask26)"/>
<use xlink:href="#surface86" mask="url(#mask27)"/>
<use xlink:href="#surface89" mask="url(#mask28)"/>
<use xlink:href="#surface92" mask="url(#mask29)"/>
<use xlink:href="#surface95" mask="url(#mask30)"/>
<use xlink:href="#surface98" mask="url(#mask31)"/>
<use xlink:href="#surface101" mask="url(#mask32)"/>
<use xlink:href="#surface104" mask="url(#mask33)"/>
<use xlink:href="#surface107" mask="url(#mask34)"/>
<use xlink:href="#surface110" mask="url(#mask35)"/>
<use xlink:href="#surface113" mask="url(#mask36)"/>
<use xlink:href="#surface116" mask="url(#mask37)"/>
<use xlink:href="#surface119" mask="url(#mask38)"/>
<use xlink:href="#surface122" mask="url(#mask39)"/>
<use xlink:href="#surface125" mask="url(#mask40)"/>
<use xlink:href="#surface128" mask="url(#mask41)"/>
<path style=" stroke:none;fill-rule:evenodd;fill:rgb(0%,0%,0%);fill-opacity:1;" d="M 778.125 203.625 C 779.625 203.625 781.125 203.625 782.625 203.625 C 782.429688 215.644531 782.683594 227.644531 783.375 239.625 C 780.628906 240.273438 779.003906 239.273438 778.5 236.625 C 771.316406 242.101562 764.820312 241.351562 759 234.375 C 755.519531 226.40625 757.148438 219.78125 763.875 214.5 C 769.402344 212.261719 774.03125 213.386719 777.75 217.875 C 778.125 213.132812 778.253906 208.382812 778.125 203.625 Z M 767.625 217.125 C 777.089844 217.769531 780.464844 222.769531 777.75 232.125 C 774.863281 236.539062 770.992188 237.664062 766.125 235.5 C 760.882812 230.699219 760.261719 225.324219 764.25 219.375 C 765.488281 218.699219 766.613281 217.949219 767.625 217.125 Z M 767.625 217.125 "/>
<path style=" stroke:none;fill-rule:evenodd;fill:rgb(0%,0%,0%);fill-opacity:1;" d="M 788.625 203.625 C 790.125 203.625 791.625 203.625 793.125 203.625 C 793.125 205.375 793.125 207.125 793.125 208.875 C 791.625 208.875 790.125 208.875 788.625 208.875 C 788.625 207.125 788.625 205.375 788.625 203.625 Z M 788.625 203.625 "/>
<path style=" stroke:none;fill-rule:evenodd;fill:rgb(0%,0%,0%);fill-opacity:1;" d="M 683.625 204.375 C 689.878906 204.25 696.128906 204.375 702.375 204.75 C 710.199219 210.40625 711.199219 217.15625 705.375 225 C 704.375 225.5 703.375 226 702.375 226.5 C 697.632812 226.875 692.882812 227 688.125 226.875 C 688.125 231.125 688.125 235.375 688.125 239.625 C 686.625 239.625 685.125 239.625 683.625 239.625 C 683.625 227.875 683.625 216.125 683.625 204.375 Z M 688.125 207.375 C 692.445312 207.113281 696.695312 207.488281 700.875 208.5 C 706.441406 212.914062 706.691406 217.664062 701.625 222.75 C 697.183594 223.726562 692.683594 224.101562 688.125 223.875 C 688.125 218.375 688.125 212.875 688.125 207.375 Z M 688.125 207.375 "/>
<path style=" stroke:none;fill-rule:evenodd;fill:rgb(0%,0%,0%);fill-opacity:1;" d="M 827.625 204.375 C 828.878906 204.375 830.121094 204.375 831.375 204.375 C 831.375 207.625 831.375 210.875 831.375 214.125 C 833.378906 214.125 835.371094 214.125 837.375 214.125 C 837.375 215.125 837.375 216.125 837.375 217.125 C 835.371094 217.125 833.378906 217.125 831.375 217.125 C 831.246094 222.878906 831.375 228.628906 831.75 234.375 C 833.632812 236.117188 835.753906 236.367188 838.125 235.125 C 838.769531 236.050781 839.265625 237.050781 839.625 238.125 C 836.527344 239.585938 833.28125 239.960938 829.875 239.25 C 829.253906 238.625 828.621094 238 828 237.375 C 827.625 230.628906 827.496094 223.878906 827.625 217.125 C 826.371094 217.125 825.128906 217.125 823.875 217.125 C 823.875 216.125 823.875 215.125 823.875 214.125 C 825.128906 214.125 826.371094 214.125 827.625 214.125 C 827.625 210.875 827.625 207.625 827.625 204.375 Z M 827.625 204.375 "/>
<use xlink:href="#surface131" mask="url(#mask42)"/>
<use xlink:href="#surface134" mask="url(#mask43)"/>
<path style=" stroke:none;fill-rule:evenodd;fill:rgb(0%,0%,0%);fill-opacity:1;" d="M 725.625 213.375 C 726.460938 214.460938 726.585938 215.710938 726 217.125 C 722.492188 217.75 719.742188 219.5 717.75 222.375 C 717.375 228.121094 717.25 233.871094 717.375 239.625 C 715.875 239.625 714.375 239.625 712.875 239.625 C 712.875 231.125 712.875 222.625 712.875 214.125 C 714.125 214.125 715.375 214.125 716.625 214.125 C 716.503906 215.644531 716.628906 217.144531 717 218.625 C 719.066406 215.410156 721.941406 213.660156 725.625 213.375 Z M 725.625 213.375 "/>
<path style=" stroke:none;fill-rule:evenodd;fill:rgb(0%,0%,0%);fill-opacity:1;" d="M 738.375 213.375 C 748.859375 212.859375 754.359375 217.859375 754.875 228.375 C 747.625 228.375 740.375 228.375 733.125 228.375 C 733.40625 232.316406 735.40625 234.941406 739.125 236.25 C 743.007812 237.203125 746.257812 236.203125 748.875 233.25 C 750.097656 232.878906 751.351562 232.753906 752.625 232.875 C 750.96875 238.03125 747.339844 240.53125 741.75 240.375 C 733.734375 239.484375 729.359375 234.984375 728.625 226.875 C 729.011719 220.246094 732.261719 215.746094 738.375 213.375 Z M 739.125 217.125 C 745.550781 216.445312 749.300781 219.195312 750.375 225.375 C 744.625 225.375 738.875 225.375 733.125 225.375 C 733.398438 221.351562 735.398438 218.601562 739.125 217.125 Z M 739.125 217.125 "/>
<path style=" stroke:none;fill-rule:evenodd;fill:rgb(0%,0%,0%);fill-opacity:1;" d="M 807.375 213.375 C 813.59375 212.398438 818.339844 214.523438 821.625 219.75 C 820.582031 220.515625 819.457031 221.140625 818.25 221.625 C 814.664062 216.792969 810.292969 215.917969 805.125 219 C 800.722656 224.976562 801.226562 230.476562 806.625 235.5 C 811.453125 237.667969 815.332031 236.542969 818.25 232.125 C 819.246094 232.625 820.253906 233.125 821.25 233.625 C 820.164062 236.957031 817.785156 239.082031 814.125 240 C 802.425781 240.546875 797.046875 234.921875 798 223.125 C 799.515625 218.238281 802.636719 214.988281 807.375 213.375 Z M 807.375 213.375 "/>
<path style=" stroke:none;fill-rule:evenodd;fill:rgb(0%,0%,0%);fill-opacity:1;" d="M 788.625 214.125 C 790.125 214.125 791.625 214.125 793.125 214.125 C 793.125 222.625 793.125 231.125 793.125 239.625 C 791.625 239.625 790.125 239.625 788.625 239.625 C 788.625 231.125 788.625 222.625 788.625 214.125 Z M 788.625 214.125 "/>
<use xlink:href="#surface137" mask="url(#mask44)"/>
<use xlink:href="#surface140" mask="url(#mask45)"/>
<use xlink:href="#surface143" mask="url(#mask46)"/>
</g>
</svg>
